{"glyphs":{":":{"x_min":0,"x_max":321,"ha":321,"o":"m 158 439 b 191 439 218 466 218 500 b 218 533 191 560 158 560 b 125 560 98 533 98 500 b 98 466 125 439 158 439 z m 158 145 b 191 145 218 172 218 205 b 218 238 191 265 158 265 b 125 265 98 238 98 205 b 98 172 125 145 158 145 z"},"$":{"x_min":0,"x_max":452,"ha":452,"o":"m 179 -10 b 184 -10 188 -9 189 -7 b 192 -4 193 1 193 9 l 193 28 b 193 43 194 62 197 84 l 200 84 b 291 84 387 148 387 245 b 387 323 335 356 268 377 b 279 422 293 484 309 563 b 338 562 355 556 373 533 b 377 527 381 523 386 521 b 387 520 388 520 389 520 b 394 520 396 523 396 529 b 396 536 392 548 384 564 b 373 590 346 611 320 620 b 323 641 325 655 325 663 b 325 685 314 694 297 706 b 291 710 285 712 280 712 b 271 712 264 703 259 683 b 254 667 250 648 244 628 b 193 625 159 609 125 570 b 101 543 87 520 83 502 b 78 484 76 471 76 462 b 76 420 109 371 143 349 b 151 342 162 337 173 332 b 156 257 145 198 138 155 b 96 166 80 174 45 196 b 40 199 36 203 33 205 b 29 208 27 210 24 213 b 19 220 15 223 10 223 b 5 223 2 219 2 211 b 2 154 83 115 130 99 b 130 87 129 77 129 67 b 129 29 130 -10 179 -10 z m 188 396 b 165 400 147 406 135 412 l 135 415 b 135 461 161 503 214 540 l 223 544 b 201 457 189 408 188 396 z m 209 151 b 216 181 229 231 248 303 l 259 299 b 298 289 328 274 349 257 l 342 241 b 324 206 289 178 252 163 b 238 157 223 154 209 151 z"},"?":{"x_min":0,"x_max":497,"ha":497,"o":"m 119 142 b 125 142 127 145 127 152 l 127 154 b 127 201 172 256 206 286 b 218 296 234 309 253 325 b 299 359 345 398 390 440 b 439 492 464 542 464 591 b 464 603 463 615 460 626 b 442 685 399 717 331 724 b 281 723 240 714 208 696 b 177 678 153 657 138 634 b 118 605 107 583 107 567 b 107 553 117 538 129 531 b 134 528 139 527 143 527 b 149 527 152 530 152 536 b 152 538 152 540 152 542 b 151 543 151 546 151 549 b 151 554 152 559 153 565 b 157 577 169 594 190 614 b 211 634 236 650 265 662 b 288 670 311 674 333 674 b 340 674 353 673 372 671 b 398 668 411 655 411 632 b 411 581 346 493 306 458 b 288 443 269 427 248 412 b 196 374 146 333 111 279 b 92 249 82 224 81 205 l 81 195 b 81 174 84 155 105 146 b 111 143 116 142 119 142 z m 80 1 b 97 1 107 43 107 57 b 107 72 99 87 83 102 b 76 108 70 110 65 110 b 55 110 48 101 46 82 b 42 67 41 55 41 48 b 41 36 46 28 54 20 b 64 7 72 1 80 1 z"},"<":{"x_min":0,"x_max":405,"ha":405,"o":"m 279 201 b 305 202 321 203 327 203 b 339 206 347 215 350 231 b 351 235 351 238 351 241 b 351 243 351 245 350 247 b 348 250 341 251 330 251 l 312 250 b 304 250 294 250 283 250 l 247 250 b 192 252 88 270 53 318 b 85 347 142 372 222 395 b 258 404 285 410 305 411 b 316 413 325 414 331 416 b 346 422 352 442 352 458 b 352 468 338 473 312 473 b 252 473 176 452 120 431 b 51 401 16 364 16 320 l 16 310 b 16 206 188 201 259 201 z"},"'":{"x_min":0,"x_max":219,"ha":219,"o":"m 133 532 b 145 532 151 537 151 545 b 151 548 151 550 150 553 b 143 567 136 591 127 624 b 121 650 114 665 106 670 b 99 674 79 678 71 678 b 59 678 53 675 53 662 b 53 653 60 629 73 592 b 85 560 97 542 108 537 b 116 534 124 532 133 532 z"},"=":{"x_min":0,"x_max":408,"ha":408,"o":"m 327 224 b 339 225 348 229 353 236 b 358 245 361 255 361 267 b 361 275 356 281 346 284 b 336 287 322 289 304 289 l 257 292 b 191 295 141 298 105 301 b 99 302 94 302 89 302 b 80 302 72 301 67 298 b 62 295 58 289 57 279 b 54 271 53 266 53 261 b 53 256 55 251 58 248 b 64 241 96 236 154 232 b 240 227 297 224 327 224 z m 318 91 b 330 92 338 96 343 104 b 349 113 352 123 352 134 b 352 143 347 149 336 151 b 324 155 310 157 293 157 l 247 159 l 96 168 b 89 169 83 169 78 169 b 60 169 50 167 47 146 b 45 139 44 133 44 128 b 44 124 45 119 49 116 b 60 104 149 97 318 91 z"},"a":{"x_min":0,"x_max":432,"ha":432,"o":"m 423 328 b 424 332 423 334 423 334 b 423 341 418 351 408 363 b 389 385 346 362 327 335 b 281 425 214 429 155 400 b 95 371 41 309 22 267 b -16 179 -38 87 78 15 b 91 9 104 7 116 7 b 169 7 203 50 229 96 b 219 51 230 22 248 6 b 280 -22 325 -16 337 16 b 313 24 307 85 309 112 b 314 177 376 274 402 301 b 416 315 423 324 423 328 z m 81 56 b 33 134 136 295 202 337 b 262 371 296 348 303 300 b 256 226 182 126 115 72 b 101 62 89 56 81 56 z"},"L":{"x_min":0,"x_max":614,"ha":614,"o":"m 540 3 b 552 3 572 26 571 39 b 571 48 565 58 555 67 b 533 87 493 95 446 96 b 432 97 412 97 388 97 b 359 97 273 96 201 94 b 280 152 289 303 289 303 b 386 330 471 384 528 459 b 562 503 593 555 590 614 b 588 648 575 676 550 701 b 533 718 511 726 483 726 b 431 726 392 693 360 656 b 292 569 243 462 214 354 l 212 348 l 188 347 b 168 347 147 349 129 358 b 125 360 122 361 120 361 b 115 361 113 359 113 354 b 114 343 122 333 137 321 b 153 311 174 303 201 300 b 182 192 157 123 126 91 b 102 92 47 99 28 114 b 23 118 19 120 15 120 b 5 120 -2 100 -2 90 b -1 82 2 74 9 65 b 27 42 66 30 126 30 b 166 30 213 32 270 37 b 304 39 344 40 389 40 b 476 40 523 30 530 11 b 533 6 536 3 540 3 z m 300 360 b 326 425 365 500 404 557 b 445 616 475 656 524 662 b 524 662 552 606 397 424 b 370 392 332 376 300 360 z"},"3":{"x_min":0,"x_max":1374,"ha":1374,"o":"m 146 563 b 183 563 212 593 212 630 b 212 668 184 697 147 697 b 109 697 81 667 81 630 b 81 593 109 563 146 563 z m 146 580 b 119 580 98 602 98 630 b 98 658 119 680 147 680 b 175 680 195 659 195 630 b 195 602 174 580 146 580 z m 149 593 b 166 593 178 601 183 614 l 159 626 b 157 621 153 619 149 619 b 144 619 140 623 140 630 b 140 638 144 641 149 641 b 153 641 157 639 159 634 l 183 646 b 178 659 166 668 149 668 b 126 668 109 652 109 630 b 109 608 126 593 149 593 z m 288 599 l 348 669 l 348 696 l 233 696 l 233 662 l 290 662 l 231 591 l 231 564 l 351 564 l 351 599 z m 415 598 l 415 615 l 470 615 l 470 647 l 415 647 l 415 663 l 478 663 l 478 696 l 372 696 l 372 564 l 480 564 l 480 598 z m 549 598 l 549 615 l 604 615 l 604 647 l 549 647 l 549 663 l 611 663 l 611 696 l 506 696 l 506 564 l 614 564 l 614 598 z m 725 696 l 725 636 l 675 696 l 639 696 l 639 564 l 682 564 l 682 624 l 732 564 l 768 564 l 768 696 z m 841 598 l 841 615 l 896 615 l 896 647 l 841 647 l 841 663 l 903 663 l 903 696 l 797 696 l 797 564 l 906 564 l 906 598 z m 980 561 b 1020 561 1040 581 1040 606 b 1040 654 968 641 968 657 b 968 661 973 665 985 665 b 997 665 1009 662 1022 655 l 1035 688 b 1021 696 1003 699 986 699 b 945 699 925 679 925 655 b 925 605 997 619 997 602 b 997 598 993 595 980 595 b 966 595 949 600 937 607 l 923 575 b 936 566 958 561 980 561 z m 1062 564 l 1106 564 l 1106 696 l 1062 696 z m 1233 564 l 1278 564 l 1221 696 l 1178 696 l 1121 564 l 1166 564 l 1174 587 l 1224 587 z m 1187 619 l 1199 652 l 1212 619 z m 261 426 l 284 426 l 284 478 l 304 478 l 304 496 l 241 496 l 241 478 l 261 478 z m 360 496 l 360 472 l 338 472 l 338 496 l 315 496 l 315 426 l 338 426 l 338 452 l 360 452 l 360 426 l 383 426 l 383 496 z m 399 426 l 422 426 l 422 496 l 399 496 z m 463 425 b 485 425 495 436 495 448 b 495 474 457 467 457 476 b 457 478 459 480 466 480 b 472 480 479 478 485 475 l 492 492 b 485 496 476 498 466 498 b 445 498 434 487 434 474 b 434 448 472 455 472 447 b 472 444 470 443 463 443 b 456 443 447 445 441 449 l 433 432 b 440 428 452 425 463 425 z m 597 479 l 597 496 l 541 496 l 541 426 l 564 426 l 564 449 l 593 449 l 593 467 l 564 467 l 564 479 z m 644 425 b 667 425 683 440 683 461 b 683 483 667 498 644 498 b 622 498 605 483 605 461 b 605 440 622 425 644 425 z m 644 444 b 636 444 629 450 629 461 b 629 472 636 479 644 479 b 653 479 660 472 660 461 b 660 450 653 444 644 444 z m 741 496 l 741 465 l 715 496 l 696 496 l 696 426 l 719 426 l 719 458 l 745 426 l 764 426 l 764 496 z m 795 426 l 818 426 l 818 478 l 838 478 l 838 496 l 775 496 l 775 478 l 795 478 z m 939 479 l 939 496 l 883 496 l 883 426 l 906 426 l 906 449 l 935 449 l 935 467 l 906 467 l 906 479 z m 987 425 b 1009 425 1026 440 1026 461 b 1026 483 1009 498 987 498 b 964 498 948 483 948 461 b 948 440 964 425 987 425 z m 987 444 b 978 444 971 450 971 461 b 971 472 978 479 987 479 b 995 479 1002 472 1002 461 b 1002 450 995 444 987 444 z m 1080 426 l 1105 426 l 1090 448 b 1098 452 1103 460 1103 470 b 1103 486 1091 496 1072 496 l 1038 496 l 1038 426 l 1062 426 l 1062 444 l 1068 444 z m 1080 470 b 1080 465 1077 462 1070 462 l 1062 462 l 1062 478 l 1070 478 b 1077 478 1080 475 1080 470 z m 111 380 l 78 380 l 78 310 l 101 310 l 101 327 l 111 327 b 131 327 143 338 143 354 b 143 370 131 380 111 380 z m 110 346 l 101 346 l 101 362 l 110 362 b 116 362 119 359 119 354 b 119 349 116 346 110 346 z m 178 328 l 178 337 l 207 337 l 207 354 l 178 354 l 178 362 l 211 362 l 211 380 l 155 380 l 155 310 l 212 310 l 212 328 z m 267 310 l 292 310 l 277 332 b 286 336 290 344 290 354 b 290 370 278 380 259 380 l 226 380 l 226 310 l 249 310 l 249 328 l 255 328 z m 267 354 b 267 349 264 346 257 346 l 249 346 l 249 362 l 257 362 b 264 362 267 359 267 354 z m 329 309 b 351 309 361 320 361 332 b 361 358 323 351 323 359 b 323 362 325 364 332 364 b 338 364 345 362 351 359 l 358 376 b 351 380 342 382 332 382 b 311 382 300 371 300 358 b 300 332 338 339 338 330 b 338 328 336 327 329 327 b 322 327 313 329 307 333 l 299 316 b 306 312 318 309 329 309 z m 409 309 b 431 309 448 324 448 345 b 448 366 431 382 409 382 b 386 382 370 366 370 345 b 370 324 386 309 409 309 z m 409 328 b 400 328 393 334 393 345 b 393 356 400 363 409 363 b 417 363 424 356 424 345 b 424 334 417 328 409 328 z m 506 380 l 506 348 l 480 380 l 461 380 l 461 310 l 483 310 l 483 342 l 510 310 l 529 310 l 529 380 z m 596 310 l 620 310 l 590 380 l 567 380 l 537 310 l 561 310 l 565 323 l 591 323 z m 572 339 l 578 357 l 585 339 z m 628 310 l 683 310 l 683 329 l 652 329 l 652 380 l 628 380 z m 761 309 b 782 309 794 321 794 342 l 794 380 l 772 380 l 772 342 b 772 332 768 328 761 328 b 755 328 751 332 751 342 l 751 380 l 727 380 l 727 342 b 727 321 740 309 761 309 z m 835 309 b 857 309 867 320 867 332 b 867 358 829 351 829 359 b 829 362 831 364 838 364 b 844 364 851 362 857 359 l 864 376 b 857 380 848 382 838 382 b 817 382 806 371 806 358 b 806 332 844 339 844 330 b 844 328 842 327 835 327 b 828 327 819 329 813 333 l 805 316 b 812 312 824 309 835 309 z m 902 328 l 902 337 l 931 337 l 931 354 l 902 354 l 902 362 l 935 362 l 935 380 l 879 380 l 879 310 l 936 310 l 936 328 z m 1020 309 b 1042 309 1059 324 1059 345 b 1059 366 1042 382 1020 382 b 997 382 981 366 981 345 b 981 324 997 309 1020 309 z m 1020 328 b 1011 328 1004 334 1004 345 b 1004 356 1011 363 1020 363 b 1028 363 1035 356 1035 345 b 1035 334 1028 328 1020 328 z m 1117 380 l 1117 348 l 1091 380 l 1072 380 l 1072 310 l 1094 310 l 1094 342 l 1121 310 l 1140 310 l 1140 380 z m 1155 310 l 1210 310 l 1210 329 l 1179 329 l 1179 380 l 1155 380 z m 1281 380 l 1258 380 l 1244 356 l 1230 380 l 1206 380 l 1232 336 l 1232 310 l 1255 310 l 1255 336 z m 213 136 l 197 159 b 206 163 212 171 212 181 b 212 197 201 206 182 206 l 154 206 l 154 136 l 167 136 l 167 156 l 182 156 b 183 156 184 156 185 157 l 199 136 z m 199 181 b 199 172 193 167 182 167 l 167 167 l 167 195 l 182 195 b 193 195 199 190 199 181 z m 279 162 b 279 179 268 190 252 190 b 237 190 225 179 225 163 b 225 147 236 135 254 135 b 263 135 271 138 275 144 l 269 152 b 265 148 260 146 254 146 b 245 146 239 151 237 159 l 279 159 b 279 160 279 161 279 162 z m 252 180 b 260 180 266 175 267 167 l 237 167 b 238 175 244 180 252 180 z m 314 190 b 305 190 297 188 291 183 l 296 174 b 300 178 306 180 312 180 b 321 180 325 175 325 168 l 325 167 l 312 167 b 296 167 290 160 290 151 b 290 142 297 135 309 135 b 317 135 323 138 326 143 l 326 136 l 338 136 l 338 167 b 338 183 329 190 314 190 z m 312 144 b 306 144 302 147 302 152 b 302 156 304 159 312 159 l 325 159 l 325 153 b 323 147 318 144 312 144 z m 383 135 b 393 135 401 140 405 148 l 396 153 b 392 148 388 146 382 146 b 373 146 366 152 366 163 b 366 173 373 179 382 179 b 388 179 392 177 396 172 l 405 178 b 401 186 393 190 383 190 b 366 190 354 179 354 163 b 354 147 366 135 383 135 z m 449 190 b 442 190 436 188 432 183 l 432 210 l 419 210 l 419 136 l 432 136 l 432 163 b 432 174 438 179 446 179 b 454 179 459 175 459 165 l 459 136 l 471 136 l 471 167 b 471 183 462 190 449 190 z m 589 190 b 581 190 574 187 570 181 b 566 187 560 190 552 190 b 545 190 539 187 535 183 l 535 189 l 523 189 l 523 136 l 535 136 l 535 163 b 535 174 541 179 549 179 b 557 179 561 175 561 165 l 561 136 l 573 136 l 573 163 b 573 174 579 179 587 179 b 594 179 599 175 599 165 l 599 136 l 611 136 l 611 167 b 611 183 602 190 589 190 z m 681 162 b 681 179 670 190 655 190 b 639 190 628 179 628 163 b 628 147 639 135 657 135 b 666 135 673 138 678 144 l 671 152 b 667 148 663 146 657 146 b 648 146 641 151 640 159 l 681 159 b 681 160 681 161 681 162 z m 655 180 b 663 180 669 175 670 167 l 640 167 b 641 175 647 180 655 180 z m 758 190 b 752 190 746 188 741 183 l 741 210 l 729 210 l 729 136 l 741 136 l 741 143 b 745 138 751 135 758 135 b 774 135 785 146 785 163 b 785 179 774 190 758 190 z m 757 146 b 748 146 741 153 741 163 b 741 173 748 179 757 179 b 766 179 773 173 773 163 b 773 153 766 146 757 146 z m 837 189 l 820 150 l 804 189 l 791 189 l 814 136 l 813 134 b 811 129 808 126 804 126 b 801 126 797 128 795 130 l 790 121 b 793 118 799 116 804 116 b 813 116 819 120 824 132 l 849 189 z m 942 162 b 942 179 931 190 916 190 b 900 190 888 179 888 163 b 888 147 900 135 917 135 b 927 135 934 138 939 144 l 932 152 b 928 148 924 146 918 146 b 909 146 902 151 901 159 l 942 159 b 942 160 942 161 942 162 z m 916 180 b 924 180 929 175 930 167 l 901 167 b 902 175 908 180 916 180 z m 1025 190 b 1016 190 1009 187 1005 181 b 1001 187 995 190 987 190 b 980 190 974 187 970 183 l 970 189 l 958 189 l 958 136 l 971 136 l 971 163 b 971 174 976 179 984 179 b 992 179 996 175 996 165 l 996 136 l 1009 136 l 1009 163 b 1009 174 1014 179 1022 179 b 1030 179 1034 175 1034 165 l 1034 136 l 1046 136 l 1046 167 b 1046 183 1038 190 1025 190 z m 1087 190 b 1078 190 1070 188 1064 183 l 1069 174 b 1073 178 1079 180 1085 180 b 1094 180 1098 175 1098 168 l 1098 167 l 1085 167 b 1069 167 1063 160 1063 151 b 1063 142 1070 135 1082 135 b 1090 135 1096 138 1099 143 l 1099 136 l 1111 136 l 1111 167 b 1111 183 1102 190 1087 190 z m 1085 144 b 1079 144 1075 147 1075 152 b 1075 156 1077 159 1086 159 l 1098 159 l 1098 153 b 1096 147 1091 144 1085 144 z m 1137 198 b 1142 198 1145 202 1145 206 b 1145 210 1142 213 1137 213 b 1133 213 1129 210 1129 206 b 1129 201 1133 198 1137 198 z m 1131 136 l 1143 136 l 1143 189 l 1131 189 z m 1164 136 l 1176 136 l 1176 210 l 1164 210 z m 108 19 l 130 45 l 130 58 l 81 58 l 81 41 l 102 41 l 80 16 l 80 3 l 132 3 l 132 19 z m 199 30 b 199 49 186 59 170 59 b 152 59 139 47 139 30 b 139 14 152 2 172 2 b 183 2 190 5 195 11 l 184 23 b 180 20 178 19 173 19 b 167 19 163 21 162 25 l 199 25 b 199 27 199 29 199 30 z m 170 43 b 175 43 178 40 179 36 l 161 36 b 162 40 165 43 170 43 z m 268 30 b 268 49 255 59 239 59 b 221 59 208 47 208 30 b 208 14 221 2 241 2 b 251 2 259 5 264 11 l 253 23 b 249 20 246 19 241 19 b 236 19 232 21 231 25 l 268 25 b 268 27 268 29 268 30 z m 239 43 b 243 43 247 40 247 36 l 230 36 b 231 40 234 43 239 43 z m 317 59 b 311 59 305 56 301 52 l 301 58 l 280 58 l 280 3 l 302 3 l 302 29 b 302 37 306 40 310 40 b 314 40 317 37 317 30 l 317 3 l 339 3 l 339 34 b 339 51 330 59 317 59 z m 412 30 b 412 49 398 59 382 59 b 364 59 351 47 351 30 b 351 14 364 2 384 2 b 395 2 402 5 408 11 l 396 23 b 392 20 390 19 385 19 b 379 19 375 21 374 25 l 411 25 b 411 27 412 29 412 30 z m 382 43 b 387 43 390 40 391 36 l 373 36 b 374 40 377 43 382 43 z m 444 2 b 463 2 472 10 472 20 b 472 42 441 35 441 41 b 441 42 443 43 448 43 b 453 43 458 42 464 39 l 470 54 b 464 57 456 59 448 59 b 430 59 420 50 420 40 b 420 18 451 25 451 20 b 451 18 450 17 445 17 b 438 17 431 19 426 22 l 420 7 b 425 4 435 2 444 2 z m 494 62 b 502 62 508 67 508 74 b 508 80 502 85 494 85 b 486 85 481 80 481 73 b 481 67 486 62 494 62 z m 483 3 l 505 3 l 505 58 l 483 58 z m 544 59 b 535 59 526 56 520 52 l 527 37 b 530 40 536 42 540 42 b 547 42 550 40 551 35 l 542 35 b 525 35 517 29 517 19 b 517 9 524 2 537 2 b 545 2 550 5 552 10 l 552 3 l 573 3 l 573 32 b 573 50 562 59 544 59 z m 544 15 b 540 15 538 17 538 20 b 538 23 540 24 545 24 l 551 24 l 551 21 b 550 17 547 15 544 15 z m 634 74 b 604 74 585 54 585 28 b 585 2 604 -18 634 -18 b 642 -18 652 -16 658 -13 l 654 -1 b 647 -4 640 -5 634 -5 b 614 -5 600 9 600 28 b 600 47 614 62 634 62 b 654 62 668 49 668 31 b 668 19 665 17 663 17 b 661 17 659 18 659 22 l 659 51 l 640 51 l 640 47 b 637 50 633 52 628 52 b 617 52 607 42 607 27 b 607 11 617 2 628 2 b 635 2 640 5 643 11 b 646 5 651 2 658 2 b 671 2 682 12 682 31 b 682 55 662 74 634 74 z m 633 18 b 629 18 626 21 626 27 b 626 33 629 36 633 36 b 637 36 640 33 640 27 b 640 21 637 18 633 18 z m 733 58 l 733 51 b 729 56 724 59 717 59 b 703 59 691 48 691 32 b 691 16 703 6 717 6 b 723 6 728 8 732 12 l 732 11 b 732 3 728 -1 719 -1 b 713 -1 706 1 702 5 l 694 -11 b 701 -15 711 -17 721 -17 b 742 -17 754 -7 754 14 l 754 58 z m 723 23 b 718 23 713 27 713 32 b 713 38 718 41 723 41 b 728 41 732 38 732 32 b 732 27 728 23 723 23 z m 840 59 b 832 59 826 56 822 50 b 818 56 812 59 805 59 b 799 59 794 57 789 52 l 789 58 l 768 58 l 768 3 l 791 3 l 791 30 b 791 37 794 40 798 40 b 801 40 804 37 804 30 l 804 3 l 826 3 l 826 30 b 826 37 829 40 833 40 b 836 40 839 37 839 30 l 839 3 l 861 3 l 861 34 b 861 51 852 59 840 59 z m 899 59 b 891 59 881 56 875 52 l 882 37 b 886 40 891 42 896 42 b 902 42 905 40 906 35 l 897 35 b 880 35 873 29 873 19 b 873 9 879 2 893 2 b 900 2 905 5 908 10 l 908 3 l 928 3 l 928 32 b 928 50 918 59 899 59 z m 899 15 b 896 15 894 17 894 20 b 894 23 896 24 901 24 l 906 24 l 906 21 b 905 17 902 15 899 15 z m 954 62 b 962 62 967 67 967 74 b 967 80 962 85 954 85 b 946 85 940 80 940 73 b 940 67 946 62 954 62 z m 943 3 l 965 3 l 965 58 l 943 58 z m 979 3 l 1001 3 l 1001 77 l 979 77 z m 1026 2 b 1033 2 1039 7 1039 15 b 1039 23 1033 28 1026 28 b 1018 28 1013 23 1013 15 b 1013 7 1018 2 1026 2 z m 1079 2 b 1092 2 1102 8 1106 18 l 1089 27 b 1086 22 1083 19 1079 19 b 1074 19 1070 23 1070 30 b 1070 37 1074 41 1079 41 b 1083 41 1086 39 1089 34 l 1106 42 b 1102 52 1092 59 1079 59 b 1061 59 1047 47 1047 30 b 1047 14 1061 2 1079 2 z m 1143 2 b 1162 2 1175 14 1175 30 b 1175 47 1162 59 1143 59 b 1125 59 1112 47 1112 30 b 1112 14 1125 2 1143 2 z m 1143 19 b 1138 19 1135 23 1135 30 b 1135 37 1138 41 1143 41 b 1148 41 1152 37 1152 30 b 1152 23 1148 19 1143 19 z m 1257 59 b 1250 59 1244 56 1239 50 b 1236 56 1230 59 1223 59 b 1217 59 1211 57 1207 52 l 1207 58 l 1186 58 l 1186 3 l 1208 3 l 1208 30 b 1208 37 1211 40 1215 40 b 1219 40 1221 37 1221 30 l 1221 3 l 1244 3 l 1244 30 b 1244 37 1247 40 1251 40 b 1254 40 1257 37 1257 30 l 1257 3 l 1279 3 l 1279 34 b 1279 51 1270 59 1257 59 z m 180 -78 l 180 -60 l 124 -60 l 124 -130 l 147 -130 l 147 -108 l 176 -108 l 176 -90 l 147 -90 l 147 -78 z m 219 -131 b 237 -131 250 -120 250 -103 b 250 -86 237 -75 219 -75 b 201 -75 188 -86 188 -103 b 188 -120 201 -131 219 -131 z m 219 -114 b 214 -114 210 -110 210 -103 b 210 -96 214 -92 219 -92 b 224 -92 228 -96 228 -103 b 228 -110 224 -114 219 -114 z m 283 -82 l 283 -76 l 262 -76 l 262 -130 l 284 -130 l 284 -106 b 284 -97 289 -94 295 -94 b 297 -94 298 -94 300 -95 l 300 -75 b 293 -75 287 -77 283 -82 z m 384 -76 l 384 -82 b 381 -77 376 -75 368 -75 b 354 -75 342 -85 342 -101 b 342 -117 354 -127 368 -127 b 375 -127 380 -125 383 -121 l 383 -122 b 383 -130 379 -134 370 -134 b 364 -134 357 -132 353 -128 l 346 -144 b 352 -148 362 -151 373 -151 b 393 -151 405 -141 405 -119 l 405 -76 z m 374 -110 b 369 -110 365 -106 365 -101 b 365 -96 369 -92 374 -92 b 379 -92 383 -96 383 -101 b 383 -106 379 -110 374 -110 z m 477 -103 b 477 -84 463 -75 447 -75 b 430 -75 417 -86 417 -103 b 417 -119 430 -131 449 -131 b 460 -131 468 -128 473 -122 l 461 -111 b 458 -113 455 -115 450 -115 b 445 -115 441 -112 439 -108 l 477 -108 b 477 -107 477 -105 477 -103 z m 448 -90 b 452 -90 455 -93 456 -97 l 439 -97 b 440 -93 443 -90 448 -90 z m 523 -113 b 521 -114 520 -114 518 -114 b 515 -114 513 -112 513 -109 l 513 -95 l 524 -95 l 524 -79 l 513 -79 l 513 -63 l 491 -63 l 491 -79 l 483 -79 l 483 -95 l 491 -95 l 491 -109 b 491 -124 500 -131 514 -131 b 520 -131 525 -130 528 -128 z m 629 -78 l 629 -60 l 573 -60 l 573 -130 l 596 -130 l 596 -108 l 625 -108 l 625 -90 l 596 -90 l 596 -78 z m 676 -76 l 676 -101 b 676 -109 672 -112 669 -112 b 664 -112 662 -110 662 -102 l 662 -76 l 639 -76 l 639 -106 b 639 -124 649 -131 662 -131 b 668 -131 673 -129 677 -125 l 677 -130 l 698 -130 l 698 -76 z m 713 -130 l 735 -130 l 735 -56 l 713 -56 z m 749 -130 l 772 -130 l 772 -56 l 749 -56 z m 872 -60 l 855 -101 l 838 -60 l 813 -60 l 842 -130 l 865 -130 l 894 -60 z m 954 -103 b 954 -84 940 -75 924 -75 b 907 -75 894 -86 894 -103 b 894 -119 906 -131 926 -131 b 937 -131 945 -128 950 -122 l 938 -111 b 935 -113 932 -115 927 -115 b 921 -115 918 -112 916 -108 l 954 -108 b 954 -107 954 -105 954 -103 z m 924 -90 b 929 -90 932 -93 933 -97 l 916 -97 b 917 -93 920 -90 924 -90 z m 986 -82 l 986 -76 l 965 -76 l 965 -130 l 987 -130 l 987 -106 b 987 -97 992 -94 999 -94 b 1001 -94 1002 -94 1004 -95 l 1004 -75 b 996 -75 990 -77 986 -82 z m 1036 -131 b 1054 -131 1064 -123 1064 -113 b 1064 -91 1033 -98 1033 -93 b 1033 -91 1034 -90 1040 -90 b 1044 -90 1050 -91 1055 -94 l 1062 -79 b 1056 -76 1047 -75 1040 -75 b 1021 -75 1012 -83 1012 -93 b 1012 -115 1043 -108 1043 -113 b 1043 -115 1042 -116 1036 -116 b 1030 -116 1022 -114 1017 -111 l 1011 -126 b 1017 -129 1026 -131 1036 -131 z m 1086 -71 b 1094 -71 1099 -66 1099 -59 b 1099 -53 1094 -48 1086 -48 b 1078 -48 1072 -53 1072 -60 b 1072 -66 1078 -71 1086 -71 z m 1075 -130 l 1097 -130 l 1097 -76 l 1075 -76 z m 1140 -131 b 1158 -131 1171 -120 1171 -103 b 1171 -86 1158 -75 1140 -75 b 1122 -75 1108 -86 1108 -103 b 1108 -120 1122 -131 1140 -131 z m 1140 -114 b 1135 -114 1131 -110 1131 -103 b 1131 -96 1135 -92 1140 -92 b 1145 -92 1149 -96 1149 -103 b 1149 -110 1145 -114 1140 -114 z m 1220 -75 b 1214 -75 1208 -77 1204 -81 l 1204 -76 l 1183 -76 l 1183 -130 l 1205 -130 l 1205 -105 b 1205 -97 1209 -94 1213 -94 b 1217 -94 1220 -96 1220 -103 l 1220 -130 l 1242 -130 l 1242 -99 b 1242 -82 1232 -75 1220 -75 z m 77 256 l 1282 256 l 1282 249 l 77 249 z"},";":{"x_min":0,"x_max":321,"ha":321,"o":"m 152 434 b 185 434 212 460 212 494 b 212 527 185 554 152 554 b 119 554 92 527 92 494 b 92 460 119 434 152 434 z m 212 199 b 212 232 185 259 152 259 b 119 259 92 232 92 199 b 92 173 108 151 133 142 b 126 138 118 136 108 136 b 103 136 98 137 92 138 l 86 138 b 81 138 78 136 78 132 b 78 124 90 118 115 115 l 126 115 b 174 115 212 149 212 199 z"},"J":{"x_min":0,"x_max":421,"ha":421,"o":"m 114 0 b 161 0 209 25 258 76 b 338 158 384 268 398 407 b 401 429 402 450 402 470 b 402 512 397 549 388 582 b 372 627 347 662 313 686 b 278 709 244 721 210 722 b 177 721 149 711 128 692 b 104 671 76 637 76 603 b 76 585 83 573 99 566 b 106 562 111 561 115 561 b 122 561 125 565 126 573 b 126 576 126 580 127 583 b 129 590 137 604 151 624 b 167 645 204 677 232 677 b 258 677 281 649 302 594 b 310 571 314 540 314 502 b 314 410 292 306 243 228 b 208 169 141 83 68 70 b 56 68 44 67 35 67 b 26 67 20 68 14 69 b 9 71 4 72 1 72 b -3 72 -5 70 -5 68 b -5 64 -4 62 -3 59 b -1 56 6 49 19 38 b 44 15 80 0 114 0 z"},"V":{"x_min":0,"x_max":789,"ha":789,"o":"m 378 0 b 461 0 543 57 597 116 b 680 207 753 311 805 422 b 832 482 865 558 865 625 b 865 634 864 640 863 646 b 858 658 839 680 825 680 b 820 680 816 677 815 670 b 814 666 814 661 813 653 b 813 609 791 541 746 448 b 695 345 579 186 490 112 b 454 82 413 59 365 42 l 365 49 b 365 77 370 108 379 144 b 389 179 402 219 417 264 l 423 281 b 452 364 466 434 466 492 b 466 552 453 628 409 671 b 376 704 316 723 270 723 b 141 723 -3 565 -3 435 b -3 367 13 319 64 273 b 91 248 114 236 132 236 b 142 236 147 238 147 243 b 147 247 145 250 139 252 b 128 258 115 274 101 301 b 91 323 86 349 86 379 b 86 427 93 461 110 506 b 125 540 148 569 179 594 b 236 641 287 665 332 665 b 336 665 341 665 344 663 b 375 650 382 564 382 529 b 382 489 371 436 350 371 b 348 361 341 342 332 312 b 295 201 277 125 277 85 b 277 28 327 0 378 0 z"},"\"":{"x_min":0,"x_max":321,"ha":321,"o":"m 193 625 b 200 626 204 629 207 635 b 208 640 210 649 212 662 b 215 678 223 698 235 722 b 242 736 248 750 254 764 b 259 777 261 788 261 798 b 261 815 254 829 240 838 b 227 849 216 854 209 854 b 204 854 200 851 198 846 b 197 842 197 837 196 831 l 196 830 b 191 798 174 762 160 733 b 151 713 147 694 147 678 b 147 651 161 625 190 625 z m 76 625 b 83 626 86 629 89 634 b 91 638 92 645 93 654 b 96 671 104 694 118 722 b 124 736 130 750 136 764 b 142 777 144 789 144 798 b 144 816 137 829 123 838 b 109 849 99 854 91 854 b 86 854 83 851 81 846 b 80 842 80 837 79 831 l 79 830 b 74 798 57 762 43 733 b 34 713 30 694 30 678 b 30 656 36 641 49 633 b 58 628 65 625 73 625 z"},"7":{"x_min":0,"x_max":1374,"ha":1374,"o":"m 146 563 b 183 563 212 593 212 630 b 212 668 184 697 147 697 b 109 697 81 667 81 630 b 81 593 109 563 146 563 z m 146 580 b 119 580 98 602 98 630 b 98 658 119 680 147 680 b 175 680 195 659 195 630 b 195 602 174 580 146 580 z m 149 593 b 166 593 178 601 183 614 l 159 626 b 157 621 153 619 149 619 b 144 619 140 623 140 630 b 140 638 144 641 149 641 b 153 641 157 639 159 634 l 183 646 b 178 659 166 668 149 668 b 126 668 109 652 109 630 b 109 608 126 593 149 593 z m 288 599 l 348 669 l 348 696 l 233 696 l 233 662 l 290 662 l 231 591 l 231 564 l 351 564 l 351 599 z m 415 598 l 415 615 l 470 615 l 470 647 l 415 647 l 415 663 l 478 663 l 478 696 l 372 696 l 372 564 l 480 564 l 480 598 z m 549 598 l 549 615 l 604 615 l 604 647 l 549 647 l 549 663 l 611 663 l 611 696 l 506 696 l 506 564 l 614 564 l 614 598 z m 725 696 l 725 636 l 675 696 l 639 696 l 639 564 l 682 564 l 682 624 l 732 564 l 768 564 l 768 696 z m 841 598 l 841 615 l 896 615 l 896 647 l 841 647 l 841 663 l 903 663 l 903 696 l 797 696 l 797 564 l 906 564 l 906 598 z m 980 561 b 1020 561 1040 581 1040 606 b 1040 654 968 641 968 657 b 968 661 973 665 985 665 b 997 665 1009 662 1022 655 l 1035 688 b 1021 696 1003 699 986 699 b 945 699 925 679 925 655 b 925 605 997 619 997 602 b 997 598 993 595 980 595 b 966 595 949 600 937 607 l 923 575 b 936 566 958 561 980 561 z m 1062 564 l 1106 564 l 1106 696 l 1062 696 z m 1233 564 l 1278 564 l 1221 696 l 1178 696 l 1121 564 l 1166 564 l 1174 587 l 1224 587 z m 1187 619 l 1199 652 l 1212 619 z m 261 426 l 284 426 l 284 478 l 304 478 l 304 496 l 241 496 l 241 478 l 261 478 z m 360 496 l 360 472 l 338 472 l 338 496 l 315 496 l 315 426 l 338 426 l 338 452 l 360 452 l 360 426 l 383 426 l 383 496 z m 399 426 l 422 426 l 422 496 l 399 496 z m 463 425 b 485 425 495 436 495 448 b 495 474 457 467 457 476 b 457 478 459 480 466 480 b 472 480 479 478 485 475 l 492 492 b 485 496 476 498 466 498 b 445 498 434 487 434 474 b 434 448 472 455 472 447 b 472 444 470 443 463 443 b 456 443 447 445 441 449 l 433 432 b 440 428 452 425 463 425 z m 597 479 l 597 496 l 541 496 l 541 426 l 564 426 l 564 449 l 593 449 l 593 467 l 564 467 l 564 479 z m 644 425 b 667 425 683 440 683 461 b 683 483 667 498 644 498 b 622 498 605 483 605 461 b 605 440 622 425 644 425 z m 644 444 b 636 444 629 450 629 461 b 629 472 636 479 644 479 b 653 479 660 472 660 461 b 660 450 653 444 644 444 z m 741 496 l 741 465 l 715 496 l 696 496 l 696 426 l 719 426 l 719 458 l 745 426 l 764 426 l 764 496 z m 795 426 l 818 426 l 818 478 l 838 478 l 838 496 l 775 496 l 775 478 l 795 478 z m 939 479 l 939 496 l 883 496 l 883 426 l 906 426 l 906 449 l 935 449 l 935 467 l 906 467 l 906 479 z m 987 425 b 1009 425 1026 440 1026 461 b 1026 483 1009 498 987 498 b 964 498 948 483 948 461 b 948 440 964 425 987 425 z m 987 444 b 978 444 971 450 971 461 b 971 472 978 479 987 479 b 995 479 1002 472 1002 461 b 1002 450 995 444 987 444 z m 1080 426 l 1105 426 l 1090 448 b 1098 452 1103 460 1103 470 b 1103 486 1091 496 1072 496 l 1038 496 l 1038 426 l 1062 426 l 1062 444 l 1068 444 z m 1080 470 b 1080 465 1077 462 1070 462 l 1062 462 l 1062 478 l 1070 478 b 1077 478 1080 475 1080 470 z m 111 380 l 78 380 l 78 310 l 101 310 l 101 327 l 111 327 b 131 327 143 338 143 354 b 143 370 131 380 111 380 z m 110 346 l 101 346 l 101 362 l 110 362 b 116 362 119 359 119 354 b 119 349 116 346 110 346 z m 178 328 l 178 337 l 207 337 l 207 354 l 178 354 l 178 362 l 211 362 l 211 380 l 155 380 l 155 310 l 212 310 l 212 328 z m 267 310 l 292 310 l 277 332 b 286 336 290 344 290 354 b 290 370 278 380 259 380 l 226 380 l 226 310 l 249 310 l 249 328 l 255 328 z m 267 354 b 267 349 264 346 257 346 l 249 346 l 249 362 l 257 362 b 264 362 267 359 267 354 z m 329 309 b 351 309 361 320 361 332 b 361 358 323 351 323 359 b 323 362 325 364 332 364 b 338 364 345 362 351 359 l 358 376 b 351 380 342 382 332 382 b 311 382 300 371 300 358 b 300 332 338 339 338 330 b 338 328 336 327 329 327 b 322 327 313 329 307 333 l 299 316 b 306 312 318 309 329 309 z m 409 309 b 431 309 448 324 448 345 b 448 366 431 382 409 382 b 386 382 370 366 370 345 b 370 324 386 309 409 309 z m 409 328 b 400 328 393 334 393 345 b 393 356 400 363 409 363 b 417 363 424 356 424 345 b 424 334 417 328 409 328 z m 506 380 l 506 348 l 480 380 l 461 380 l 461 310 l 483 310 l 483 342 l 510 310 l 529 310 l 529 380 z m 596 310 l 620 310 l 590 380 l 567 380 l 537 310 l 561 310 l 565 323 l 591 323 z m 572 339 l 578 357 l 585 339 z m 628 310 l 683 310 l 683 329 l 652 329 l 652 380 l 628 380 z m 761 309 b 782 309 794 321 794 342 l 794 380 l 772 380 l 772 342 b 772 332 768 328 761 328 b 755 328 751 332 751 342 l 751 380 l 727 380 l 727 342 b 727 321 740 309 761 309 z m 835 309 b 857 309 867 320 867 332 b 867 358 829 351 829 359 b 829 362 831 364 838 364 b 844 364 851 362 857 359 l 864 376 b 857 380 848 382 838 382 b 817 382 806 371 806 358 b 806 332 844 339 844 330 b 844 328 842 327 835 327 b 828 327 819 329 813 333 l 805 316 b 812 312 824 309 835 309 z m 902 328 l 902 337 l 931 337 l 931 354 l 902 354 l 902 362 l 935 362 l 935 380 l 879 380 l 879 310 l 936 310 l 936 328 z m 1020 309 b 1042 309 1059 324 1059 345 b 1059 366 1042 382 1020 382 b 997 382 981 366 981 345 b 981 324 997 309 1020 309 z m 1020 328 b 1011 328 1004 334 1004 345 b 1004 356 1011 363 1020 363 b 1028 363 1035 356 1035 345 b 1035 334 1028 328 1020 328 z m 1117 380 l 1117 348 l 1091 380 l 1072 380 l 1072 310 l 1094 310 l 1094 342 l 1121 310 l 1140 310 l 1140 380 z m 1155 310 l 1210 310 l 1210 329 l 1179 329 l 1179 380 l 1155 380 z m 1281 380 l 1258 380 l 1244 356 l 1230 380 l 1206 380 l 1232 336 l 1232 310 l 1255 310 l 1255 336 z m 213 136 l 197 159 b 206 163 212 171 212 181 b 212 197 201 206 182 206 l 154 206 l 154 136 l 167 136 l 167 156 l 182 156 b 183 156 184 156 185 157 l 199 136 z m 199 181 b 199 172 193 167 182 167 l 167 167 l 167 195 l 182 195 b 193 195 199 190 199 181 z m 279 162 b 279 179 268 190 252 190 b 237 190 225 179 225 163 b 225 147 236 135 254 135 b 263 135 271 138 275 144 l 269 152 b 265 148 260 146 254 146 b 245 146 239 151 237 159 l 279 159 b 279 160 279 161 279 162 z m 252 180 b 260 180 266 175 267 167 l 237 167 b 238 175 244 180 252 180 z m 314 190 b 305 190 297 188 291 183 l 296 174 b 300 178 306 180 312 180 b 321 180 325 175 325 168 l 325 167 l 312 167 b 296 167 290 160 290 151 b 290 142 297 135 309 135 b 317 135 323 138 326 143 l 326 136 l 338 136 l 338 167 b 338 183 329 190 314 190 z m 312 144 b 306 144 302 147 302 152 b 302 156 304 159 312 159 l 325 159 l 325 153 b 323 147 318 144 312 144 z m 383 135 b 393 135 401 140 405 148 l 396 153 b 392 148 388 146 382 146 b 373 146 366 152 366 163 b 366 173 373 179 382 179 b 388 179 392 177 396 172 l 405 178 b 401 186 393 190 383 190 b 366 190 354 179 354 163 b 354 147 366 135 383 135 z m 449 190 b 442 190 436 188 432 183 l 432 210 l 419 210 l 419 136 l 432 136 l 432 163 b 432 174 438 179 446 179 b 454 179 459 175 459 165 l 459 136 l 471 136 l 471 167 b 471 183 462 190 449 190 z m 589 190 b 581 190 574 187 570 181 b 566 187 560 190 552 190 b 545 190 539 187 535 183 l 535 189 l 523 189 l 523 136 l 535 136 l 535 163 b 535 174 541 179 549 179 b 557 179 561 175 561 165 l 561 136 l 573 136 l 573 163 b 573 174 579 179 587 179 b 594 179 599 175 599 165 l 599 136 l 611 136 l 611 167 b 611 183 602 190 589 190 z m 681 162 b 681 179 670 190 655 190 b 639 190 628 179 628 163 b 628 147 639 135 657 135 b 666 135 673 138 678 144 l 671 152 b 667 148 663 146 657 146 b 648 146 641 151 640 159 l 681 159 b 681 160 681 161 681 162 z m 655 180 b 663 180 669 175 670 167 l 640 167 b 641 175 647 180 655 180 z m 758 190 b 752 190 746 188 741 183 l 741 210 l 729 210 l 729 136 l 741 136 l 741 143 b 745 138 751 135 758 135 b 774 135 785 146 785 163 b 785 179 774 190 758 190 z m 757 146 b 748 146 741 153 741 163 b 741 173 748 179 757 179 b 766 179 773 173 773 163 b 773 153 766 146 757 146 z m 837 189 l 820 150 l 804 189 l 791 189 l 814 136 l 813 134 b 811 129 808 126 804 126 b 801 126 797 128 795 130 l 790 121 b 793 118 799 116 804 116 b 813 116 819 120 824 132 l 849 189 z m 942 162 b 942 179 931 190 916 190 b 900 190 888 179 888 163 b 888 147 900 135 917 135 b 927 135 934 138 939 144 l 932 152 b 928 148 924 146 918 146 b 909 146 902 151 901 159 l 942 159 b 942 160 942 161 942 162 z m 916 180 b 924 180 929 175 930 167 l 901 167 b 902 175 908 180 916 180 z m 1025 190 b 1016 190 1009 187 1005 181 b 1001 187 995 190 987 190 b 980 190 974 187 970 183 l 970 189 l 958 189 l 958 136 l 971 136 l 971 163 b 971 174 976 179 984 179 b 992 179 996 175 996 165 l 996 136 l 1009 136 l 1009 163 b 1009 174 1014 179 1022 179 b 1030 179 1034 175 1034 165 l 1034 136 l 1046 136 l 1046 167 b 1046 183 1038 190 1025 190 z m 1087 190 b 1078 190 1070 188 1064 183 l 1069 174 b 1073 178 1079 180 1085 180 b 1094 180 1098 175 1098 168 l 1098 167 l 1085 167 b 1069 167 1063 160 1063 151 b 1063 142 1070 135 1082 135 b 1090 135 1096 138 1099 143 l 1099 136 l 1111 136 l 1111 167 b 1111 183 1102 190 1087 190 z m 1085 144 b 1079 144 1075 147 1075 152 b 1075 156 1077 159 1086 159 l 1098 159 l 1098 153 b 1096 147 1091 144 1085 144 z m 1137 198 b 1142 198 1145 202 1145 206 b 1145 210 1142 213 1137 213 b 1133 213 1129 210 1129 206 b 1129 201 1133 198 1137 198 z m 1131 136 l 1143 136 l 1143 189 l 1131 189 z m 1164 136 l 1176 136 l 1176 210 l 1164 210 z m 108 19 l 130 45 l 130 58 l 81 58 l 81 41 l 102 41 l 80 16 l 80 3 l 132 3 l 132 19 z m 199 30 b 199 49 186 59 170 59 b 152 59 139 47 139 30 b 139 14 152 2 172 2 b 183 2 190 5 195 11 l 184 23 b 180 20 178 19 173 19 b 167 19 163 21 162 25 l 199 25 b 199 27 199 29 199 30 z m 170 43 b 175 43 178 40 179 36 l 161 36 b 162 40 165 43 170 43 z m 268 30 b 268 49 255 59 239 59 b 221 59 208 47 208 30 b 208 14 221 2 241 2 b 251 2 259 5 264 11 l 253 23 b 249 20 246 19 241 19 b 236 19 232 21 231 25 l 268 25 b 268 27 268 29 268 30 z m 239 43 b 243 43 247 40 247 36 l 230 36 b 231 40 234 43 239 43 z m 317 59 b 311 59 305 56 301 52 l 301 58 l 280 58 l 280 3 l 302 3 l 302 29 b 302 37 306 40 310 40 b 314 40 317 37 317 30 l 317 3 l 339 3 l 339 34 b 339 51 330 59 317 59 z m 412 30 b 412 49 398 59 382 59 b 364 59 351 47 351 30 b 351 14 364 2 384 2 b 395 2 402 5 408 11 l 396 23 b 392 20 390 19 385 19 b 379 19 375 21 374 25 l 411 25 b 411 27 412 29 412 30 z m 382 43 b 387 43 390 40 391 36 l 373 36 b 374 40 377 43 382 43 z m 444 2 b 463 2 472 10 472 20 b 472 42 441 35 441 41 b 441 42 443 43 448 43 b 453 43 458 42 464 39 l 470 54 b 464 57 456 59 448 59 b 430 59 420 50 420 40 b 420 18 451 25 451 20 b 451 18 450 17 445 17 b 438 17 431 19 426 22 l 420 7 b 425 4 435 2 444 2 z m 494 62 b 502 62 508 67 508 74 b 508 80 502 85 494 85 b 486 85 481 80 481 73 b 481 67 486 62 494 62 z m 483 3 l 505 3 l 505 58 l 483 58 z m 544 59 b 535 59 526 56 520 52 l 527 37 b 530 40 536 42 540 42 b 547 42 550 40 551 35 l 542 35 b 525 35 517 29 517 19 b 517 9 524 2 537 2 b 545 2 550 5 552 10 l 552 3 l 573 3 l 573 32 b 573 50 562 59 544 59 z m 544 15 b 540 15 538 17 538 20 b 538 23 540 24 545 24 l 551 24 l 551 21 b 550 17 547 15 544 15 z m 634 74 b 604 74 585 54 585 28 b 585 2 604 -18 634 -18 b 642 -18 652 -16 658 -13 l 654 -1 b 647 -4 640 -5 634 -5 b 614 -5 600 9 600 28 b 600 47 614 62 634 62 b 654 62 668 49 668 31 b 668 19 665 17 663 17 b 661 17 659 18 659 22 l 659 51 l 640 51 l 640 47 b 637 50 633 52 628 52 b 617 52 607 42 607 27 b 607 11 617 2 628 2 b 635 2 640 5 643 11 b 646 5 651 2 658 2 b 671 2 682 12 682 31 b 682 55 662 74 634 74 z m 633 18 b 629 18 626 21 626 27 b 626 33 629 36 633 36 b 637 36 640 33 640 27 b 640 21 637 18 633 18 z m 733 58 l 733 51 b 729 56 724 59 717 59 b 703 59 691 48 691 32 b 691 16 703 6 717 6 b 723 6 728 8 732 12 l 732 11 b 732 3 728 -1 719 -1 b 713 -1 706 1 702 5 l 694 -11 b 701 -15 711 -17 721 -17 b 742 -17 754 -7 754 14 l 754 58 z m 723 23 b 718 23 713 27 713 32 b 713 38 718 41 723 41 b 728 41 732 38 732 32 b 732 27 728 23 723 23 z m 840 59 b 832 59 826 56 822 50 b 818 56 812 59 805 59 b 799 59 794 57 789 52 l 789 58 l 768 58 l 768 3 l 791 3 l 791 30 b 791 37 794 40 798 40 b 801 40 804 37 804 30 l 804 3 l 826 3 l 826 30 b 826 37 829 40 833 40 b 836 40 839 37 839 30 l 839 3 l 861 3 l 861 34 b 861 51 852 59 840 59 z m 899 59 b 891 59 881 56 875 52 l 882 37 b 886 40 891 42 896 42 b 902 42 905 40 906 35 l 897 35 b 880 35 873 29 873 19 b 873 9 879 2 893 2 b 900 2 905 5 908 10 l 908 3 l 928 3 l 928 32 b 928 50 918 59 899 59 z m 899 15 b 896 15 894 17 894 20 b 894 23 896 24 901 24 l 906 24 l 906 21 b 905 17 902 15 899 15 z m 954 62 b 962 62 967 67 967 74 b 967 80 962 85 954 85 b 946 85 940 80 940 73 b 940 67 946 62 954 62 z m 943 3 l 965 3 l 965 58 l 943 58 z m 979 3 l 1001 3 l 1001 77 l 979 77 z m 1026 2 b 1033 2 1039 7 1039 15 b 1039 23 1033 28 1026 28 b 1018 28 1013 23 1013 15 b 1013 7 1018 2 1026 2 z m 1079 2 b 1092 2 1102 8 1106 18 l 1089 27 b 1086 22 1083 19 1079 19 b 1074 19 1070 23 1070 30 b 1070 37 1074 41 1079 41 b 1083 41 1086 39 1089 34 l 1106 42 b 1102 52 1092 59 1079 59 b 1061 59 1047 47 1047 30 b 1047 14 1061 2 1079 2 z m 1143 2 b 1162 2 1175 14 1175 30 b 1175 47 1162 59 1143 59 b 1125 59 1112 47 1112 30 b 1112 14 1125 2 1143 2 z m 1143 19 b 1138 19 1135 23 1135 30 b 1135 37 1138 41 1143 41 b 1148 41 1152 37 1152 30 b 1152 23 1148 19 1143 19 z m 1257 59 b 1250 59 1244 56 1239 50 b 1236 56 1230 59 1223 59 b 1217 59 1211 57 1207 52 l 1207 58 l 1186 58 l 1186 3 l 1208 3 l 1208 30 b 1208 37 1211 40 1215 40 b 1219 40 1221 37 1221 30 l 1221 3 l 1244 3 l 1244 30 b 1244 37 1247 40 1251 40 b 1254 40 1257 37 1257 30 l 1257 3 l 1279 3 l 1279 34 b 1279 51 1270 59 1257 59 z m 180 -78 l 180 -60 l 124 -60 l 124 -130 l 147 -130 l 147 -108 l 176 -108 l 176 -90 l 147 -90 l 147 -78 z m 219 -131 b 237 -131 250 -120 250 -103 b 250 -86 237 -75 219 -75 b 201 -75 188 -86 188 -103 b 188 -120 201 -131 219 -131 z m 219 -114 b 214 -114 210 -110 210 -103 b 210 -96 214 -92 219 -92 b 224 -92 228 -96 228 -103 b 228 -110 224 -114 219 -114 z m 283 -82 l 283 -76 l 262 -76 l 262 -130 l 284 -130 l 284 -106 b 284 -97 289 -94 295 -94 b 297 -94 298 -94 300 -95 l 300 -75 b 293 -75 287 -77 283 -82 z m 384 -76 l 384 -82 b 381 -77 376 -75 368 -75 b 354 -75 342 -85 342 -101 b 342 -117 354 -127 368 -127 b 375 -127 380 -125 383 -121 l 383 -122 b 383 -130 379 -134 370 -134 b 364 -134 357 -132 353 -128 l 346 -144 b 352 -148 362 -151 373 -151 b 393 -151 405 -141 405 -119 l 405 -76 z m 374 -110 b 369 -110 365 -106 365 -101 b 365 -96 369 -92 374 -92 b 379 -92 383 -96 383 -101 b 383 -106 379 -110 374 -110 z m 477 -103 b 477 -84 463 -75 447 -75 b 430 -75 417 -86 417 -103 b 417 -119 430 -131 449 -131 b 460 -131 468 -128 473 -122 l 461 -111 b 458 -113 455 -115 450 -115 b 445 -115 441 -112 439 -108 l 477 -108 b 477 -107 477 -105 477 -103 z m 448 -90 b 452 -90 455 -93 456 -97 l 439 -97 b 440 -93 443 -90 448 -90 z m 523 -113 b 521 -114 520 -114 518 -114 b 515 -114 513 -112 513 -109 l 513 -95 l 524 -95 l 524 -79 l 513 -79 l 513 -63 l 491 -63 l 491 -79 l 483 -79 l 483 -95 l 491 -95 l 491 -109 b 491 -124 500 -131 514 -131 b 520 -131 525 -130 528 -128 z m 629 -78 l 629 -60 l 573 -60 l 573 -130 l 596 -130 l 596 -108 l 625 -108 l 625 -90 l 596 -90 l 596 -78 z m 676 -76 l 676 -101 b 676 -109 672 -112 669 -112 b 664 -112 662 -110 662 -102 l 662 -76 l 639 -76 l 639 -106 b 639 -124 649 -131 662 -131 b 668 -131 673 -129 677 -125 l 677 -130 l 698 -130 l 698 -76 z m 713 -130 l 735 -130 l 735 -56 l 713 -56 z m 749 -130 l 772 -130 l 772 -56 l 749 -56 z m 872 -60 l 855 -101 l 838 -60 l 813 -60 l 842 -130 l 865 -130 l 894 -60 z m 954 -103 b 954 -84 940 -75 924 -75 b 907 -75 894 -86 894 -103 b 894 -119 906 -131 926 -131 b 937 -131 945 -128 950 -122 l 938 -111 b 935 -113 932 -115 927 -115 b 921 -115 918 -112 916 -108 l 954 -108 b 954 -107 954 -105 954 -103 z m 924 -90 b 929 -90 932 -93 933 -97 l 916 -97 b 917 -93 920 -90 924 -90 z m 986 -82 l 986 -76 l 965 -76 l 965 -130 l 987 -130 l 987 -106 b 987 -97 992 -94 999 -94 b 1001 -94 1002 -94 1004 -95 l 1004 -75 b 996 -75 990 -77 986 -82 z m 1036 -131 b 1054 -131 1064 -123 1064 -113 b 1064 -91 1033 -98 1033 -93 b 1033 -91 1034 -90 1040 -90 b 1044 -90 1050 -91 1055 -94 l 1062 -79 b 1056 -76 1047 -75 1040 -75 b 1021 -75 1012 -83 1012 -93 b 1012 -115 1043 -108 1043 -113 b 1043 -115 1042 -116 1036 -116 b 1030 -116 1022 -114 1017 -111 l 1011 -126 b 1017 -129 1026 -131 1036 -131 z m 1086 -71 b 1094 -71 1099 -66 1099 -59 b 1099 -53 1094 -48 1086 -48 b 1078 -48 1072 -53 1072 -60 b 1072 -66 1078 -71 1086 -71 z m 1075 -130 l 1097 -130 l 1097 -76 l 1075 -76 z m 1140 -131 b 1158 -131 1171 -120 1171 -103 b 1171 -86 1158 -75 1140 -75 b 1122 -75 1108 -86 1108 -103 b 1108 -120 1122 -131 1140 -131 z m 1140 -114 b 1135 -114 1131 -110 1131 -103 b 1131 -96 1135 -92 1140 -92 b 1145 -92 1149 -96 1149 -103 b 1149 -110 1145 -114 1140 -114 z m 1220 -75 b 1214 -75 1208 -77 1204 -81 l 1204 -76 l 1183 -76 l 1183 -130 l 1205 -130 l 1205 -105 b 1205 -97 1209 -94 1213 -94 b 1217 -94 1220 -96 1220 -103 l 1220 -130 l 1242 -130 l 1242 -99 b 1242 -82 1232 -75 1220 -75 z m 77 256 l 1282 256 l 1282 249 l 77 249 z"},"S":{"x_min":0,"x_max":558,"ha":558,"o":"m 200 4 b 234 4 270 8 310 17 b 400 37 454 77 469 138 b 471 145 472 153 472 160 b 472 215 460 249 340 351 b 220 452 186 476 186 507 b 185 562 263 603 329 628 b 416 661 518 647 555 591 b 501 532 454 471 454 442 b 454 421 466 395 483 383 b 487 380 490 380 493 379 b 506 377 512 385 510 393 b 510 394 510 395 510 396 b 508 399 507 404 507 410 b 507 416 510 425 516 437 b 526 456 554 488 600 534 b 623 558 650 601 650 635 b 650 641 649 646 647 652 b 633 705 605 691 605 679 b 604 671 594 652 574 625 b 559 659 535 683 503 697 b 470 711 437 719 404 719 b 335 719 261 695 207 652 b 164 617 131 565 131 511 b 131 429 178 367 250 309 b 322 251 373 196 404 143 b 334 104 250 83 171 83 b 127 83 94 89 70 100 b 47 111 15 151 9 151 b 3 151 0 146 0 137 b 0 104 28 67 53 46 b 91 18 140 4 200 4 z"},"}":{"x_min":0,"x_max":381,"ha":381,"o":"m 105 7 b 185 7 213 98 217 163 b 219 196 221 225 221 248 l 221 256 b 222 293 230 318 270 331 b 298 341 314 351 317 360 l 317 361 b 317 362 317 362 317 362 b 317 364 316 366 314 367 b 312 369 307 372 297 375 b 290 379 284 384 280 392 b 276 398 274 409 274 424 l 275 432 b 275 446 281 473 293 512 b 307 554 315 595 320 634 l 320 641 b 320 671 313 693 300 708 b 286 723 272 729 258 729 b 244 729 229 725 216 716 b 206 710 200 705 198 700 b 198 699 198 698 198 698 b 198 695 201 691 208 688 b 214 686 221 680 230 670 b 237 663 240 649 240 629 b 240 602 233 562 220 509 b 209 467 204 433 204 407 b 204 377 211 358 225 349 b 189 333 160 309 148 271 b 146 267 146 264 145 260 b 142 248 141 221 140 178 b 139 126 136 90 129 70 b 127 66 124 60 120 51 b 116 42 108 35 97 31 b 92 29 83 24 83 18 b 83 8 99 7 105 7 z"},"Z":{"x_min":0,"x_max":598,"ha":598,"o":"m 559 -5 b 563 -5 566 3 566 18 b 566 63 517 91 418 103 b 370 108 328 111 292 111 b 246 111 193 108 136 102 l 280 231 b 381 322 449 384 482 417 b 569 504 613 575 613 629 b 613 647 609 665 603 681 b 593 702 573 713 541 717 l 533 717 b 495 717 450 712 400 703 b 345 694 298 689 259 689 b 206 689 171 694 157 704 b 153 706 150 708 147 710 b 141 715 135 717 132 717 b 128 717 126 714 124 709 b 122 703 120 696 120 689 b 120 684 121 679 122 673 b 125 659 138 646 161 635 b 199 620 234 617 275 617 b 303 617 337 621 376 628 b 427 638 468 643 502 643 b 530 643 550 637 563 625 b 525 582 461 519 371 438 b 281 356 202 288 135 233 b 75 185 36 150 18 129 b 0 107 -9 87 -9 69 b -9 64 -9 59 -7 54 b -2 19 5 9 39 9 b 50 9 63 10 79 13 b 81 13 94 15 117 17 b 219 29 303 36 368 36 b 463 34 519 25 535 9 b 536 8 538 7 539 6 b 548 -1 555 -5 559 -5 z"},"x":{"x_min":0,"x_max":391,"ha":391,"o":"m 2 -6 b 7 -6 10 -4 12 1 b 21 36 44 71 92 121 b 114 52 156 23 207 22 b 227 18 264 29 281 42 b 212 69 186 118 173 169 b 176 171 179 173 181 174 b 195 185 209 194 223 203 b 324 270 374 328 374 378 b 374 410 365 431 346 441 b 343 442 340 443 339 443 b 334 443 331 437 331 424 l 331 417 b 331 398 314 374 280 343 b 257 323 201 256 147 220 b 123 323 160 400 136 427 b 53 479 29 313 78 186 b -5 142 -47 90 -47 50 b -47 36 -42 23 -33 13 b -19 0 -8 -6 2 -6 z"},")":{"x_min":0,"x_max":269,"ha":269,"o":"m 83 10 b 88 10 95 12 103 17 b 111 21 125 36 145 61 b 194 128 210 270 210 352 b 210 431 196 511 169 585 b 148 643 131 681 118 699 b 102 722 85 733 69 733 b 58 733 31 722 31 710 b 31 704 35 697 43 689 b 54 678 68 653 84 612 b 119 528 134 427 134 336 b 134 220 120 137 90 87 b 76 63 63 47 53 39 b 47 34 44 31 44 28 b 44 25 50 21 62 16 b 62 16 63 16 63 16 b 70 12 76 10 83 10 z"},"&":{"x_min":0,"x_max":520,"ha":520,"o":"m 244 -147 b 251 -147 254 -145 255 -140 l 255 -137 b 255 -133 255 -129 254 -125 b 253 -120 253 -113 253 -104 b 253 -79 256 -56 261 -36 b 270 -34 278 -32 287 -30 b 371 -2 435 34 479 79 b 509 109 524 134 524 152 b 524 160 521 183 510 183 b 506 183 502 176 494 167 b 454 116 371 81 298 57 b 253 43 214 36 179 36 b 135 36 50 32 50 87 b 50 95 52 104 55 113 b 67 158 104 201 167 243 b 220 276 273 296 326 302 b 349 305 359 308 359 333 l 358 344 b 358 376 335 378 308 378 b 302 379 298 379 296 380 b 294 381 292 382 287 384 l 254 396 b 217 410 192 431 178 459 l 177 460 b 203 532 313 561 383 561 b 417 561 437 556 443 545 b 445 541 446 536 447 532 b 448 525 451 521 456 521 b 472 521 475 547 475 560 b 475 571 472 583 468 595 b 456 624 420 640 363 643 l 362 642 b 364 654 365 665 365 674 b 365 692 361 703 353 708 b 340 716 326 721 312 721 b 301 721 295 712 294 694 b 294 685 291 669 286 647 b 285 644 284 641 283 638 b 208 620 132 575 132 487 b 132 432 163 383 208 352 b 129 318 75 279 45 233 b 18 189 3 155 3 129 l 3 124 b 3 99 9 74 21 47 b 33 20 52 -1 79 -19 b 107 -34 140 -42 175 -44 b 175 -85 194 -147 244 -147 z"},"_":{"x_min":0,"x_max":414,"ha":414,"o":"m 277 -54 b 301 -54 321 -53 334 -52 b 360 -51 374 -34 374 -9 b 374 0 368 5 356 8 b 345 10 319 11 278 12 b 220 12 152 13 74 15 l 62 15 b 41 15 21 15 16 -10 b 13 -17 12 -23 12 -27 b 12 -33 14 -37 18 -41 b 28 -49 114 -54 277 -54 z"},"v":{"x_min":0,"x_max":437,"ha":437,"o":"m 85 -4 b 118 -4 158 14 207 50 b 272 103 326 173 368 262 b 393 311 405 347 405 369 b 405 375 404 380 402 384 b 399 395 387 426 374 426 b 367 426 362 418 360 404 b 358 375 299 264 278 233 b 242 181 196 134 138 92 b 111 73 86 62 64 62 b 57 62 49 64 42 66 b 52 125 104 222 135 275 b 155 310 169 337 178 357 b 183 370 185 380 185 390 b 185 405 179 420 167 435 b 160 444 154 448 148 448 b 147 448 145 447 141 446 b 137 444 130 434 120 416 b 113 403 104 389 94 372 b 72 336 48 295 25 248 b 0 189 -13 145 -13 116 b -13 110 -12 106 -12 102 b -11 72 6 42 40 12 b 53 1 68 -4 85 -4 z"},"O":{"x_min":0,"x_max":575,"ha":575,"o":"m 245 -5 b 285 -5 320 4 351 22 b 392 46 430 82 466 128 b 542 222 584 359 584 473 l 584 479 b 579 597 526 674 427 710 b 410 715 393 717 376 717 b 281 717 189 643 140 579 b 60 473 18 362 12 247 l 12 238 b 12 114 87 -5 245 -5 z m 208 45 b 186 45 167 61 150 93 b 133 125 124 160 122 199 b 113 339 167 524 288 626 b 327 659 363 675 398 676 b 481 672 498 569 501 520 b 508 408 463 258 385 167 b 309 86 250 45 208 45 z"},"(":{"x_min":0,"x_max":233,"ha":233,"o":"m 133 16 b 139 16 146 18 152 21 l 153 22 b 166 27 171 31 171 34 b 171 36 168 40 162 45 b 152 53 140 69 125 93 b 102 134 87 194 84 272 b 82 307 82 330 82 343 b 82 436 96 532 131 618 b 146 656 159 680 167 689 l 171 695 b 180 703 184 710 184 716 b 184 728 157 739 146 739 b 130 739 113 728 97 705 b 84 687 67 648 46 591 b 19 516 5 437 5 354 b 5 271 21 135 70 67 b 90 42 104 27 112 22 b 121 18 127 16 133 16 z"},"C":{"x_min":0,"x_max":582,"ha":582,"o":"m 249 -2 b 302 -2 360 20 402 53 b 449 90 473 121 473 146 b 473 155 470 165 464 173 b 458 185 453 190 447 190 b 441 190 432 183 419 169 b 406 153 381 133 343 111 b 306 88 263 77 214 77 l 200 77 b 148 83 116 99 103 125 b 44 245 126 394 126 394 b 154 442 194 492 246 542 b 318 607 391 640 464 640 b 503 630 532 618 543 604 b 487 551 463 510 456 480 b 440 418 489 397 505 389 b 509 389 511 391 512 394 l 513 402 b 514 409 515 417 519 427 b 520 450 611 526 644 596 b 675 657 626 699 613 699 b 608 699 605 694 603 683 b 600 668 590 649 572 628 b 567 644 559 659 545 673 b 517 705 475 720 422 720 b 272 720 128 613 53 473 b 18 409 1 350 1 295 b 1 197 33 119 96 63 b 145 20 195 -2 249 -2 z"},"W":{"x_min":0,"x_max":1030,"ha":1030,"o":"m 498 156 l 511 174 l 512 158 b 512 109 534 59 578 34 b 630 9 697 34 740 78 b 828 169 903 307 949 424 b 977 498 993 549 997 579 b 1001 609 1003 631 1003 645 b 1003 660 1002 673 999 682 b 989 715 978 732 965 732 b 960 732 958 729 958 722 l 958 708 b 958 703 958 693 958 680 b 958 666 952 634 938 586 b 925 538 902 478 869 406 b 821 305 690 104 630 72 b 609 107 610 148 610 194 b 610 206 610 217 612 229 b 612 239 613 248 613 256 b 613 304 607 343 548 343 b 534 343 525 336 520 322 l 513 310 b 488 262 366 73 316 73 b 305 73 294 75 283 77 l 282 93 b 282 118 292 151 312 192 b 331 232 352 278 374 329 b 415 423 435 498 435 554 b 435 609 423 652 382 693 b 354 719 325 732 295 732 b 217 732 138 658 93 600 b 48 541 9 453 9 377 b 9 333 26 278 66 253 b 82 244 93 240 102 240 b 109 240 113 242 113 246 b 113 253 108 261 99 271 b 82 287 76 319 76 341 b 76 375 86 417 105 468 b 121 512 147 551 182 586 b 227 628 271 663 335 663 l 348 662 l 352 631 b 352 549 300 440 265 367 b 217 270 193 200 193 157 b 193 106 218 64 268 32 b 411 -30 498 156 498 156 z"},"A":{"x_min":0,"x_max":739,"ha":739,"o":"m 603 -5 b 612 -5 639 3 639 14 b 639 16 635 21 628 28 b 622 33 615 45 607 64 b 596 88 591 123 591 168 b 591 197 592 226 595 255 l 596 259 b 626 260 662 261 683 287 b 686 291 687 294 687 297 b 687 303 680 306 667 307 l 601 309 b 603 325 605 340 607 354 b 617 428 623 502 623 576 l 623 603 b 623 681 603 707 524 716 b 516 717 507 717 498 717 b 417 717 306 679 240 633 b 206 607 178 578 158 547 b 139 519 122 488 122 453 b 122 415 136 389 164 374 b 175 368 183 365 188 365 b 191 365 194 369 194 375 b 194 380 192 388 190 399 b 190 403 189 406 189 410 b 189 448 212 490 258 536 b 317 591 435 647 514 655 b 513 653 511 647 507 638 l 506 638 l 506 637 l 506 637 l 505 635 l 505 635 l 503 631 l 503 630 l 503 630 l 502 628 l 502 628 l 502 627 b 501 627 501 627 501 626 b 500 625 500 625 500 624 b 500 624 500 623 500 623 l 499 622 b 499 621 499 621 498 620 b 448 510 390 410 325 319 l 278 321 b 250 321 232 313 225 298 b 221 293 220 289 220 286 b 220 282 226 280 239 279 b 246 277 264 276 291 274 b 246 216 165 125 99 88 b 83 79 72 74 67 73 b 62 73 60 73 59 73 b 51 73 45 74 42 76 b 41 77 41 77 40 77 b 34 79 29 81 26 83 b 22 85 20 86 19 86 b 13 86 10 83 10 78 b 10 67 18 53 34 35 b 51 16 73 7 98 7 b 106 7 114 8 122 11 b 138 16 163 32 196 57 b 259 104 324 173 391 266 b 440 262 480 260 512 259 l 511 248 b 509 229 509 210 509 194 b 509 144 516 72 546 30 b 560 11 578 -5 603 -5 z m 516 312 l 426 315 b 471 380 508 448 539 518 b 528 434 521 366 516 312 z"},"f":{"x_min":0,"x_max":242,"ha":242,"o":"m -83 -314 b -19 -314 22 -229 40 -176 b 60 -117 70 -56 70 7 b 70 29 69 51 66 74 b 79 71 91 70 103 70 b 169 70 225 107 270 182 b 272 189 274 196 274 202 b 274 214 268 223 254 226 b 202 156 144 121 79 121 b 67 121 60 126 56 138 b 63 156 69 170 75 181 b 115 254 135 312 135 354 b 135 379 127 403 112 425 b 97 445 83 455 71 455 b 64 455 61 451 61 443 b 61 436 64 427 70 417 b 75 411 78 405 78 398 b 78 391 72 374 61 348 b 33 279 -13 192 -76 85 b -121 11 -181 -97 -181 -185 b -181 -243 -160 -295 -100 -313 b -95 -314 -89 -314 -83 -314 z m -108 -258 l -114 -258 l -114 -247 b -114 -232 -113 -219 -109 -206 b -94 -150 -51 -55 19 78 b 21 64 21 51 21 37 b 21 -22 4 -92 -29 -172 b -42 -201 -71 -258 -108 -258 z"},"Q":{"x_min":0,"x_max":590,"ha":590,"o":"m 364 50 b 395 34 426 21 461 19 b 483 19 503 22 519 28 b 535 34 545 39 549 43 b 552 46 554 49 554 52 b 554 58 548 61 539 62 b 531 62 525 62 521 61 b 516 60 511 60 506 60 b 485 60 456 73 417 100 b 512 202 562 353 562 485 l 562 491 b 557 609 507 686 414 722 b 397 727 381 729 365 729 b 274 729 187 654 140 591 b 65 485 25 374 20 258 l 20 248 b 20 124 91 7 240 7 b 290 7 327 21 364 50 z m 276 97 b 241 70 212 57 190 57 b 170 57 154 72 141 104 b 127 135 120 169 120 208 b 120 345 180 526 297 626 b 334 658 369 674 400 675 b 477 671 486 571 486 522 b 486 411 438 267 361 177 b 353 168 345 160 337 152 b 308 168 277 177 245 179 b 225 178 208 173 193 165 b 172 153 161 143 161 133 b 161 127 165 124 172 124 b 175 124 180 125 184 125 b 191 126 198 126 204 126 b 220 126 261 106 276 97 z"},"w":{"x_min":0,"x_max":572,"ha":572,"o":"m 309 3 b 339 3 372 20 408 54 b 481 123 525 244 525 343 b 525 372 522 395 515 411 b 501 445 487 462 473 462 b 458 461 451 451 451 432 l 451 430 b 467 420 476 401 476 372 b 476 312 469 276 445 220 b 429 183 407 150 378 119 b 349 88 313 69 271 62 l 269 77 b 268 87 267 96 267 104 b 267 117 269 136 272 163 b 276 188 278 205 278 210 b 278 223 274 233 267 243 b 256 258 246 265 237 265 b 229 265 223 259 216 246 b 195 197 165 153 127 116 b 102 91 70 74 33 64 b 70 141 139 301 139 382 b 139 400 136 414 130 424 b 122 441 112 453 100 459 b 96 462 92 463 89 463 b 84 463 81 455 80 437 b 71 361 34 272 0 205 b -21 165 -33 138 -36 123 b -40 107 -42 96 -42 89 b -42 74 -38 60 -29 47 b -10 18 14 3 43 3 b 100 3 176 57 208 103 l 211 93 b 224 49 259 3 309 3 z"},"-":{"x_min":0,"x_max":390,"ha":390,"o":"m 319 266 b 331 266 339 270 344 277 b 350 287 353 297 353 308 b 353 317 348 323 337 325 b 328 328 313 330 295 331 l 248 333 b 212 335 162 338 97 342 b 90 343 84 343 79 343 b 70 343 63 342 59 339 b 53 337 50 331 48 320 b 46 313 45 308 45 303 b 45 297 46 293 50 290 b 65 273 284 266 319 266 z"},"E":{"x_min":0,"x_max":517,"ha":517,"o":"m 146 3 b 199 3 252 23 308 63 b 337 85 356 102 366 114 l 373 123 b 379 131 382 137 382 141 b 382 154 356 181 344 181 b 336 181 332 174 329 168 b 316 151 294 133 264 112 b 241 96 211 82 177 71 b 143 61 118 56 102 56 b 86 56 77 57 74 60 b 71 61 69 63 69 67 b 69 70 68 73 68 74 b 68 92 80 127 101 178 b 117 215 138 257 166 304 b 170 303 175 303 181 303 b 219 303 258 309 295 316 b 338 322 369 325 386 325 b 393 325 399 324 405 323 b 407 322 410 320 413 318 b 416 317 418 316 421 316 b 430 316 448 337 449 345 b 450 349 450 351 450 353 b 450 360 445 368 437 375 b 424 386 402 392 371 392 b 335 392 281 387 207 378 b 248 456 272 502 280 518 b 300 559 313 592 319 618 b 319 622 320 625 320 628 b 320 634 318 638 316 641 b 338 644 360 647 383 650 b 423 657 464 663 505 663 b 524 663 542 662 558 659 b 603 650 625 640 625 629 b 625 627 625 625 623 623 b 622 620 622 618 622 615 b 622 611 624 610 629 610 b 637 610 648 621 663 645 b 667 651 668 658 668 664 b 668 673 664 682 657 691 b 625 724 565 727 522 727 b 481 727 439 723 394 716 b 282 701 207 692 167 691 l 129 690 b 100 690 81 692 74 695 b 67 700 63 702 62 702 b 60 702 57 701 55 699 b 50 694 46 689 43 683 b 42 676 40 671 40 668 b 40 663 42 659 44 655 b 48 648 60 642 79 635 b 97 629 121 626 150 626 b 168 626 197 628 234 631 b 212 586 182 531 145 466 b 76 345 33 262 17 218 b 1 180 -6 147 -6 119 b -6 80 9 51 41 33 b 75 13 110 3 146 3 z"},"s":{"x_min":0,"x_max":325,"ha":325,"o":"m -12 -253 b 10 -255 36 -247 66 -228 b 140 -178 180 -121 187 -56 b 191 -21 186 15 171 55 b 181 63 200 77 233 90 b 251 98 228 122 217 127 b 184 147 143 118 143 118 b 126 147 100 196 95 237 b 90 329 202 358 235 271 b 240 261 244 256 248 255 b 253 255 258 258 260 266 b 261 272 262 277 263 279 b 265 302 257 329 239 360 b 226 382 204 396 171 402 l 169 402 b 105 408 36 363 21 281 b 17 242 21 208 33 179 b 45 149 56 127 67 113 b 71 106 76 99 82 92 b 29 63 -61 -2 -84 -69 b -93 -94 -98 -112 -99 -124 b -106 -188 -64 -249 -12 -253 z m -59 -181 b -28 -86 41 -10 114 27 b 142 -46 43 -217 -59 -181 z"},">":{"x_min":0,"x_max":438,"ha":438,"o":"m 64 207 b 122 207 202 228 256 248 b 325 278 360 315 360 359 l 360 368 b 360 473 189 479 116 479 b 87 479 65 478 49 476 b 36 474 28 464 26 448 b 25 444 24 441 24 438 b 24 436 25 434 26 432 b 28 430 34 428 46 428 l 86 429 b 129 429 171 427 214 417 b 253 407 296 394 323 361 b 291 333 234 307 154 285 b 118 275 90 270 71 268 b 43 265 29 262 24 229 b 24 227 23 224 23 222 b 23 216 26 212 32 210 b 39 208 49 207 64 207 z"},"l":{"x_min":0,"x_max":197,"ha":197,"o":"m 58 -5 b 58 -5 24 52 90 203 b 100 226 114 249 127 273 l 157 332 b 204 417 238 492 260 558 b 266 581 269 601 269 619 b 269 648 259 683 238 705 b 229 713 223 718 217 718 b 214 718 211 717 209 714 b 208 710 207 707 207 703 b 207 700 207 697 208 695 b 208 692 208 689 208 685 b 208 609 109 431 73 368 b 45 318 22 273 3 234 b -23 179 -36 135 -36 101 b -36 79 -31 61 -22 48 b -4 19 21 -5 58 -5 z"},"8":{"x_min":0,"x_max":1374,"ha":1374,"o":"m 146 563 b 183 563 212 593 212 630 b 212 668 184 697 147 697 b 109 697 81 667 81 630 b 81 593 109 563 146 563 z m 146 580 b 119 580 98 602 98 630 b 98 658 119 680 147 680 b 175 680 195 659 195 630 b 195 602 174 580 146 580 z m 149 593 b 166 593 178 601 183 614 l 159 626 b 157 621 153 619 149 619 b 144 619 140 623 140 630 b 140 638 144 641 149 641 b 153 641 157 639 159 634 l 183 646 b 178 659 166 668 149 668 b 126 668 109 652 109 630 b 109 608 126 593 149 593 z m 288 599 l 348 669 l 348 696 l 233 696 l 233 662 l 290 662 l 231 591 l 231 564 l 351 564 l 351 599 z m 415 598 l 415 615 l 470 615 l 470 647 l 415 647 l 415 663 l 478 663 l 478 696 l 372 696 l 372 564 l 480 564 l 480 598 z m 549 598 l 549 615 l 604 615 l 604 647 l 549 647 l 549 663 l 611 663 l 611 696 l 506 696 l 506 564 l 614 564 l 614 598 z m 725 696 l 725 636 l 675 696 l 639 696 l 639 564 l 682 564 l 682 624 l 732 564 l 768 564 l 768 696 z m 841 598 l 841 615 l 896 615 l 896 647 l 841 647 l 841 663 l 903 663 l 903 696 l 797 696 l 797 564 l 906 564 l 906 598 z m 980 561 b 1020 561 1040 581 1040 606 b 1040 654 968 641 968 657 b 968 661 973 665 985 665 b 997 665 1009 662 1022 655 l 1035 688 b 1021 696 1003 699 986 699 b 945 699 925 679 925 655 b 925 605 997 619 997 602 b 997 598 993 595 980 595 b 966 595 949 600 937 607 l 923 575 b 936 566 958 561 980 561 z m 1062 564 l 1106 564 l 1106 696 l 1062 696 z m 1233 564 l 1278 564 l 1221 696 l 1178 696 l 1121 564 l 1166 564 l 1174 587 l 1224 587 z m 1187 619 l 1199 652 l 1212 619 z m 261 426 l 284 426 l 284 478 l 304 478 l 304 496 l 241 496 l 241 478 l 261 478 z m 360 496 l 360 472 l 338 472 l 338 496 l 315 496 l 315 426 l 338 426 l 338 452 l 360 452 l 360 426 l 383 426 l 383 496 z m 399 426 l 422 426 l 422 496 l 399 496 z m 463 425 b 485 425 495 436 495 448 b 495 474 457 467 457 476 b 457 478 459 480 466 480 b 472 480 479 478 485 475 l 492 492 b 485 496 476 498 466 498 b 445 498 434 487 434 474 b 434 448 472 455 472 447 b 472 444 470 443 463 443 b 456 443 447 445 441 449 l 433 432 b 440 428 452 425 463 425 z m 597 479 l 597 496 l 541 496 l 541 426 l 564 426 l 564 449 l 593 449 l 593 467 l 564 467 l 564 479 z m 644 425 b 667 425 683 440 683 461 b 683 483 667 498 644 498 b 622 498 605 483 605 461 b 605 440 622 425 644 425 z m 644 444 b 636 444 629 450 629 461 b 629 472 636 479 644 479 b 653 479 660 472 660 461 b 660 450 653 444 644 444 z m 741 496 l 741 465 l 715 496 l 696 496 l 696 426 l 719 426 l 719 458 l 745 426 l 764 426 l 764 496 z m 795 426 l 818 426 l 818 478 l 838 478 l 838 496 l 775 496 l 775 478 l 795 478 z m 939 479 l 939 496 l 883 496 l 883 426 l 906 426 l 906 449 l 935 449 l 935 467 l 906 467 l 906 479 z m 987 425 b 1009 425 1026 440 1026 461 b 1026 483 1009 498 987 498 b 964 498 948 483 948 461 b 948 440 964 425 987 425 z m 987 444 b 978 444 971 450 971 461 b 971 472 978 479 987 479 b 995 479 1002 472 1002 461 b 1002 450 995 444 987 444 z m 1080 426 l 1105 426 l 1090 448 b 1098 452 1103 460 1103 470 b 1103 486 1091 496 1072 496 l 1038 496 l 1038 426 l 1062 426 l 1062 444 l 1068 444 z m 1080 470 b 1080 465 1077 462 1070 462 l 1062 462 l 1062 478 l 1070 478 b 1077 478 1080 475 1080 470 z m 111 380 l 78 380 l 78 310 l 101 310 l 101 327 l 111 327 b 131 327 143 338 143 354 b 143 370 131 380 111 380 z m 110 346 l 101 346 l 101 362 l 110 362 b 116 362 119 359 119 354 b 119 349 116 346 110 346 z m 178 328 l 178 337 l 207 337 l 207 354 l 178 354 l 178 362 l 211 362 l 211 380 l 155 380 l 155 310 l 212 310 l 212 328 z m 267 310 l 292 310 l 277 332 b 286 336 290 344 290 354 b 290 370 278 380 259 380 l 226 380 l 226 310 l 249 310 l 249 328 l 255 328 z m 267 354 b 267 349 264 346 257 346 l 249 346 l 249 362 l 257 362 b 264 362 267 359 267 354 z m 329 309 b 351 309 361 320 361 332 b 361 358 323 351 323 359 b 323 362 325 364 332 364 b 338 364 345 362 351 359 l 358 376 b 351 380 342 382 332 382 b 311 382 300 371 300 358 b 300 332 338 339 338 330 b 338 328 336 327 329 327 b 322 327 313 329 307 333 l 299 316 b 306 312 318 309 329 309 z m 409 309 b 431 309 448 324 448 345 b 448 366 431 382 409 382 b 386 382 370 366 370 345 b 370 324 386 309 409 309 z m 409 328 b 400 328 393 334 393 345 b 393 356 400 363 409 363 b 417 363 424 356 424 345 b 424 334 417 328 409 328 z m 506 380 l 506 348 l 480 380 l 461 380 l 461 310 l 483 310 l 483 342 l 510 310 l 529 310 l 529 380 z m 596 310 l 620 310 l 590 380 l 567 380 l 537 310 l 561 310 l 565 323 l 591 323 z m 572 339 l 578 357 l 585 339 z m 628 310 l 683 310 l 683 329 l 652 329 l 652 380 l 628 380 z m 761 309 b 782 309 794 321 794 342 l 794 380 l 772 380 l 772 342 b 772 332 768 328 761 328 b 755 328 751 332 751 342 l 751 380 l 727 380 l 727 342 b 727 321 740 309 761 309 z m 835 309 b 857 309 867 320 867 332 b 867 358 829 351 829 359 b 829 362 831 364 838 364 b 844 364 851 362 857 359 l 864 376 b 857 380 848 382 838 382 b 817 382 806 371 806 358 b 806 332 844 339 844 330 b 844 328 842 327 835 327 b 828 327 819 329 813 333 l 805 316 b 812 312 824 309 835 309 z m 902 328 l 902 337 l 931 337 l 931 354 l 902 354 l 902 362 l 935 362 l 935 380 l 879 380 l 879 310 l 936 310 l 936 328 z m 1020 309 b 1042 309 1059 324 1059 345 b 1059 366 1042 382 1020 382 b 997 382 981 366 981 345 b 981 324 997 309 1020 309 z m 1020 328 b 1011 328 1004 334 1004 345 b 1004 356 1011 363 1020 363 b 1028 363 1035 356 1035 345 b 1035 334 1028 328 1020 328 z m 1117 380 l 1117 348 l 1091 380 l 1072 380 l 1072 310 l 1094 310 l 1094 342 l 1121 310 l 1140 310 l 1140 380 z m 1155 310 l 1210 310 l 1210 329 l 1179 329 l 1179 380 l 1155 380 z m 1281 380 l 1258 380 l 1244 356 l 1230 380 l 1206 380 l 1232 336 l 1232 310 l 1255 310 l 1255 336 z m 213 136 l 197 159 b 206 163 212 171 212 181 b 212 197 201 206 182 206 l 154 206 l 154 136 l 167 136 l 167 156 l 182 156 b 183 156 184 156 185 157 l 199 136 z m 199 181 b 199 172 193 167 182 167 l 167 167 l 167 195 l 182 195 b 193 195 199 190 199 181 z m 279 162 b 279 179 268 190 252 190 b 237 190 225 179 225 163 b 225 147 236 135 254 135 b 263 135 271 138 275 144 l 269 152 b 265 148 260 146 254 146 b 245 146 239 151 237 159 l 279 159 b 279 160 279 161 279 162 z m 252 180 b 260 180 266 175 267 167 l 237 167 b 238 175 244 180 252 180 z m 314 190 b 305 190 297 188 291 183 l 296 174 b 300 178 306 180 312 180 b 321 180 325 175 325 168 l 325 167 l 312 167 b 296 167 290 160 290 151 b 290 142 297 135 309 135 b 317 135 323 138 326 143 l 326 136 l 338 136 l 338 167 b 338 183 329 190 314 190 z m 312 144 b 306 144 302 147 302 152 b 302 156 304 159 312 159 l 325 159 l 325 153 b 323 147 318 144 312 144 z m 383 135 b 393 135 401 140 405 148 l 396 153 b 392 148 388 146 382 146 b 373 146 366 152 366 163 b 366 173 373 179 382 179 b 388 179 392 177 396 172 l 405 178 b 401 186 393 190 383 190 b 366 190 354 179 354 163 b 354 147 366 135 383 135 z m 449 190 b 442 190 436 188 432 183 l 432 210 l 419 210 l 419 136 l 432 136 l 432 163 b 432 174 438 179 446 179 b 454 179 459 175 459 165 l 459 136 l 471 136 l 471 167 b 471 183 462 190 449 190 z m 589 190 b 581 190 574 187 570 181 b 566 187 560 190 552 190 b 545 190 539 187 535 183 l 535 189 l 523 189 l 523 136 l 535 136 l 535 163 b 535 174 541 179 549 179 b 557 179 561 175 561 165 l 561 136 l 573 136 l 573 163 b 573 174 579 179 587 179 b 594 179 599 175 599 165 l 599 136 l 611 136 l 611 167 b 611 183 602 190 589 190 z m 681 162 b 681 179 670 190 655 190 b 639 190 628 179 628 163 b 628 147 639 135 657 135 b 666 135 673 138 678 144 l 671 152 b 667 148 663 146 657 146 b 648 146 641 151 640 159 l 681 159 b 681 160 681 161 681 162 z m 655 180 b 663 180 669 175 670 167 l 640 167 b 641 175 647 180 655 180 z m 758 190 b 752 190 746 188 741 183 l 741 210 l 729 210 l 729 136 l 741 136 l 741 143 b 745 138 751 135 758 135 b 774 135 785 146 785 163 b 785 179 774 190 758 190 z m 757 146 b 748 146 741 153 741 163 b 741 173 748 179 757 179 b 766 179 773 173 773 163 b 773 153 766 146 757 146 z m 837 189 l 820 150 l 804 189 l 791 189 l 814 136 l 813 134 b 811 129 808 126 804 126 b 801 126 797 128 795 130 l 790 121 b 793 118 799 116 804 116 b 813 116 819 120 824 132 l 849 189 z m 942 162 b 942 179 931 190 916 190 b 900 190 888 179 888 163 b 888 147 900 135 917 135 b 927 135 934 138 939 144 l 932 152 b 928 148 924 146 918 146 b 909 146 902 151 901 159 l 942 159 b 942 160 942 161 942 162 z m 916 180 b 924 180 929 175 930 167 l 901 167 b 902 175 908 180 916 180 z m 1025 190 b 1016 190 1009 187 1005 181 b 1001 187 995 190 987 190 b 980 190 974 187 970 183 l 970 189 l 958 189 l 958 136 l 971 136 l 971 163 b 971 174 976 179 984 179 b 992 179 996 175 996 165 l 996 136 l 1009 136 l 1009 163 b 1009 174 1014 179 1022 179 b 1030 179 1034 175 1034 165 l 1034 136 l 1046 136 l 1046 167 b 1046 183 1038 190 1025 190 z m 1087 190 b 1078 190 1070 188 1064 183 l 1069 174 b 1073 178 1079 180 1085 180 b 1094 180 1098 175 1098 168 l 1098 167 l 1085 167 b 1069 167 1063 160 1063 151 b 1063 142 1070 135 1082 135 b 1090 135 1096 138 1099 143 l 1099 136 l 1111 136 l 1111 167 b 1111 183 1102 190 1087 190 z m 1085 144 b 1079 144 1075 147 1075 152 b 1075 156 1077 159 1086 159 l 1098 159 l 1098 153 b 1096 147 1091 144 1085 144 z m 1137 198 b 1142 198 1145 202 1145 206 b 1145 210 1142 213 1137 213 b 1133 213 1129 210 1129 206 b 1129 201 1133 198 1137 198 z m 1131 136 l 1143 136 l 1143 189 l 1131 189 z m 1164 136 l 1176 136 l 1176 210 l 1164 210 z m 108 19 l 130 45 l 130 58 l 81 58 l 81 41 l 102 41 l 80 16 l 80 3 l 132 3 l 132 19 z m 199 30 b 199 49 186 59 170 59 b 152 59 139 47 139 30 b 139 14 152 2 172 2 b 183 2 190 5 195 11 l 184 23 b 180 20 178 19 173 19 b 167 19 163 21 162 25 l 199 25 b 199 27 199 29 199 30 z m 170 43 b 175 43 178 40 179 36 l 161 36 b 162 40 165 43 170 43 z m 268 30 b 268 49 255 59 239 59 b 221 59 208 47 208 30 b 208 14 221 2 241 2 b 251 2 259 5 264 11 l 253 23 b 249 20 246 19 241 19 b 236 19 232 21 231 25 l 268 25 b 268 27 268 29 268 30 z m 239 43 b 243 43 247 40 247 36 l 230 36 b 231 40 234 43 239 43 z m 317 59 b 311 59 305 56 301 52 l 301 58 l 280 58 l 280 3 l 302 3 l 302 29 b 302 37 306 40 310 40 b 314 40 317 37 317 30 l 317 3 l 339 3 l 339 34 b 339 51 330 59 317 59 z m 412 30 b 412 49 398 59 382 59 b 364 59 351 47 351 30 b 351 14 364 2 384 2 b 395 2 402 5 408 11 l 396 23 b 392 20 390 19 385 19 b 379 19 375 21 374 25 l 411 25 b 411 27 412 29 412 30 z m 382 43 b 387 43 390 40 391 36 l 373 36 b 374 40 377 43 382 43 z m 444 2 b 463 2 472 10 472 20 b 472 42 441 35 441 41 b 441 42 443 43 448 43 b 453 43 458 42 464 39 l 470 54 b 464 57 456 59 448 59 b 430 59 420 50 420 40 b 420 18 451 25 451 20 b 451 18 450 17 445 17 b 438 17 431 19 426 22 l 420 7 b 425 4 435 2 444 2 z m 494 62 b 502 62 508 67 508 74 b 508 80 502 85 494 85 b 486 85 481 80 481 73 b 481 67 486 62 494 62 z m 483 3 l 505 3 l 505 58 l 483 58 z m 544 59 b 535 59 526 56 520 52 l 527 37 b 530 40 536 42 540 42 b 547 42 550 40 551 35 l 542 35 b 525 35 517 29 517 19 b 517 9 524 2 537 2 b 545 2 550 5 552 10 l 552 3 l 573 3 l 573 32 b 573 50 562 59 544 59 z m 544 15 b 540 15 538 17 538 20 b 538 23 540 24 545 24 l 551 24 l 551 21 b 550 17 547 15 544 15 z m 634 74 b 604 74 585 54 585 28 b 585 2 604 -18 634 -18 b 642 -18 652 -16 658 -13 l 654 -1 b 647 -4 640 -5 634 -5 b 614 -5 600 9 600 28 b 600 47 614 62 634 62 b 654 62 668 49 668 31 b 668 19 665 17 663 17 b 661 17 659 18 659 22 l 659 51 l 640 51 l 640 47 b 637 50 633 52 628 52 b 617 52 607 42 607 27 b 607 11 617 2 628 2 b 635 2 640 5 643 11 b 646 5 651 2 658 2 b 671 2 682 12 682 31 b 682 55 662 74 634 74 z m 633 18 b 629 18 626 21 626 27 b 626 33 629 36 633 36 b 637 36 640 33 640 27 b 640 21 637 18 633 18 z m 733 58 l 733 51 b 729 56 724 59 717 59 b 703 59 691 48 691 32 b 691 16 703 6 717 6 b 723 6 728 8 732 12 l 732 11 b 732 3 728 -1 719 -1 b 713 -1 706 1 702 5 l 694 -11 b 701 -15 711 -17 721 -17 b 742 -17 754 -7 754 14 l 754 58 z m 723 23 b 718 23 713 27 713 32 b 713 38 718 41 723 41 b 728 41 732 38 732 32 b 732 27 728 23 723 23 z m 840 59 b 832 59 826 56 822 50 b 818 56 812 59 805 59 b 799 59 794 57 789 52 l 789 58 l 768 58 l 768 3 l 791 3 l 791 30 b 791 37 794 40 798 40 b 801 40 804 37 804 30 l 804 3 l 826 3 l 826 30 b 826 37 829 40 833 40 b 836 40 839 37 839 30 l 839 3 l 861 3 l 861 34 b 861 51 852 59 840 59 z m 899 59 b 891 59 881 56 875 52 l 882 37 b 886 40 891 42 896 42 b 902 42 905 40 906 35 l 897 35 b 880 35 873 29 873 19 b 873 9 879 2 893 2 b 900 2 905 5 908 10 l 908 3 l 928 3 l 928 32 b 928 50 918 59 899 59 z m 899 15 b 896 15 894 17 894 20 b 894 23 896 24 901 24 l 906 24 l 906 21 b 905 17 902 15 899 15 z m 954 62 b 962 62 967 67 967 74 b 967 80 962 85 954 85 b 946 85 940 80 940 73 b 940 67 946 62 954 62 z m 943 3 l 965 3 l 965 58 l 943 58 z m 979 3 l 1001 3 l 1001 77 l 979 77 z m 1026 2 b 1033 2 1039 7 1039 15 b 1039 23 1033 28 1026 28 b 1018 28 1013 23 1013 15 b 1013 7 1018 2 1026 2 z m 1079 2 b 1092 2 1102 8 1106 18 l 1089 27 b 1086 22 1083 19 1079 19 b 1074 19 1070 23 1070 30 b 1070 37 1074 41 1079 41 b 1083 41 1086 39 1089 34 l 1106 42 b 1102 52 1092 59 1079 59 b 1061 59 1047 47 1047 30 b 1047 14 1061 2 1079 2 z m 1143 2 b 1162 2 1175 14 1175 30 b 1175 47 1162 59 1143 59 b 1125 59 1112 47 1112 30 b 1112 14 1125 2 1143 2 z m 1143 19 b 1138 19 1135 23 1135 30 b 1135 37 1138 41 1143 41 b 1148 41 1152 37 1152 30 b 1152 23 1148 19 1143 19 z m 1257 59 b 1250 59 1244 56 1239 50 b 1236 56 1230 59 1223 59 b 1217 59 1211 57 1207 52 l 1207 58 l 1186 58 l 1186 3 l 1208 3 l 1208 30 b 1208 37 1211 40 1215 40 b 1219 40 1221 37 1221 30 l 1221 3 l 1244 3 l 1244 30 b 1244 37 1247 40 1251 40 b 1254 40 1257 37 1257 30 l 1257 3 l 1279 3 l 1279 34 b 1279 51 1270 59 1257 59 z m 180 -78 l 180 -60 l 124 -60 l 124 -130 l 147 -130 l 147 -108 l 176 -108 l 176 -90 l 147 -90 l 147 -78 z m 219 -131 b 237 -131 250 -120 250 -103 b 250 -86 237 -75 219 -75 b 201 -75 188 -86 188 -103 b 188 -120 201 -131 219 -131 z m 219 -114 b 214 -114 210 -110 210 -103 b 210 -96 214 -92 219 -92 b 224 -92 228 -96 228 -103 b 228 -110 224 -114 219 -114 z m 283 -82 l 283 -76 l 262 -76 l 262 -130 l 284 -130 l 284 -106 b 284 -97 289 -94 295 -94 b 297 -94 298 -94 300 -95 l 300 -75 b 293 -75 287 -77 283 -82 z m 384 -76 l 384 -82 b 381 -77 376 -75 368 -75 b 354 -75 342 -85 342 -101 b 342 -117 354 -127 368 -127 b 375 -127 380 -125 383 -121 l 383 -122 b 383 -130 379 -134 370 -134 b 364 -134 357 -132 353 -128 l 346 -144 b 352 -148 362 -151 373 -151 b 393 -151 405 -141 405 -119 l 405 -76 z m 374 -110 b 369 -110 365 -106 365 -101 b 365 -96 369 -92 374 -92 b 379 -92 383 -96 383 -101 b 383 -106 379 -110 374 -110 z m 477 -103 b 477 -84 463 -75 447 -75 b 430 -75 417 -86 417 -103 b 417 -119 430 -131 449 -131 b 460 -131 468 -128 473 -122 l 461 -111 b 458 -113 455 -115 450 -115 b 445 -115 441 -112 439 -108 l 477 -108 b 477 -107 477 -105 477 -103 z m 448 -90 b 452 -90 455 -93 456 -97 l 439 -97 b 440 -93 443 -90 448 -90 z m 523 -113 b 521 -114 520 -114 518 -114 b 515 -114 513 -112 513 -109 l 513 -95 l 524 -95 l 524 -79 l 513 -79 l 513 -63 l 491 -63 l 491 -79 l 483 -79 l 483 -95 l 491 -95 l 491 -109 b 491 -124 500 -131 514 -131 b 520 -131 525 -130 528 -128 z m 629 -78 l 629 -60 l 573 -60 l 573 -130 l 596 -130 l 596 -108 l 625 -108 l 625 -90 l 596 -90 l 596 -78 z m 676 -76 l 676 -101 b 676 -109 672 -112 669 -112 b 664 -112 662 -110 662 -102 l 662 -76 l 639 -76 l 639 -106 b 639 -124 649 -131 662 -131 b 668 -131 673 -129 677 -125 l 677 -130 l 698 -130 l 698 -76 z m 713 -130 l 735 -130 l 735 -56 l 713 -56 z m 749 -130 l 772 -130 l 772 -56 l 749 -56 z m 872 -60 l 855 -101 l 838 -60 l 813 -60 l 842 -130 l 865 -130 l 894 -60 z m 954 -103 b 954 -84 940 -75 924 -75 b 907 -75 894 -86 894 -103 b 894 -119 906 -131 926 -131 b 937 -131 945 -128 950 -122 l 938 -111 b 935 -113 932 -115 927 -115 b 921 -115 918 -112 916 -108 l 954 -108 b 954 -107 954 -105 954 -103 z m 924 -90 b 929 -90 932 -93 933 -97 l 916 -97 b 917 -93 920 -90 924 -90 z m 986 -82 l 986 -76 l 965 -76 l 965 -130 l 987 -130 l 987 -106 b 987 -97 992 -94 999 -94 b 1001 -94 1002 -94 1004 -95 l 1004 -75 b 996 -75 990 -77 986 -82 z m 1036 -131 b 1054 -131 1064 -123 1064 -113 b 1064 -91 1033 -98 1033 -93 b 1033 -91 1034 -90 1040 -90 b 1044 -90 1050 -91 1055 -94 l 1062 -79 b 1056 -76 1047 -75 1040 -75 b 1021 -75 1012 -83 1012 -93 b 1012 -115 1043 -108 1043 -113 b 1043 -115 1042 -116 1036 -116 b 1030 -116 1022 -114 1017 -111 l 1011 -126 b 1017 -129 1026 -131 1036 -131 z m 1086 -71 b 1094 -71 1099 -66 1099 -59 b 1099 -53 1094 -48 1086 -48 b 1078 -48 1072 -53 1072 -60 b 1072 -66 1078 -71 1086 -71 z m 1075 -130 l 1097 -130 l 1097 -76 l 1075 -76 z m 1140 -131 b 1158 -131 1171 -120 1171 -103 b 1171 -86 1158 -75 1140 -75 b 1122 -75 1108 -86 1108 -103 b 1108 -120 1122 -131 1140 -131 z m 1140 -114 b 1135 -114 1131 -110 1131 -103 b 1131 -96 1135 -92 1140 -92 b 1145 -92 1149 -96 1149 -103 b 1149 -110 1145 -114 1140 -114 z m 1220 -75 b 1214 -75 1208 -77 1204 -81 l 1204 -76 l 1183 -76 l 1183 -130 l 1205 -130 l 1205 -105 b 1205 -97 1209 -94 1213 -94 b 1217 -94 1220 -96 1220 -103 l 1220 -130 l 1242 -130 l 1242 -99 b 1242 -82 1232 -75 1220 -75 z m 77 256 l 1282 256 l 1282 249 l 77 249 z"},"\\":{"x_min":0,"x_max":381,"ha":381,"o":"m 263 53 b 281 53 304 66 305 86 l 305 105 b 305 129 299 157 288 188 b 266 242 234 307 193 384 b 143 479 106 555 83 612 l 75 631 b 71 643 69 653 69 661 b 68 666 68 669 67 673 b 66 677 63 680 58 680 b 45 680 23 666 15 654 b 10 648 7 637 7 622 b 7 594 26 542 63 467 b 81 431 100 394 120 355 b 148 300 171 254 188 218 b 224 137 242 90 243 76 b 246 63 250 56 255 55 b 259 54 261 53 263 53 z"},"e":{"x_min":0,"x_max":366,"ha":366,"o":"m 150 7 b 175 7 201 12 228 22 b 270 41 304 63 331 89 b 357 115 375 134 385 148 b 396 164 401 177 401 188 b 401 194 399 200 395 205 b 388 213 383 218 378 218 b 375 218 374 216 372 212 b 370 196 346 168 301 130 b 271 105 242 87 214 76 b 182 62 158 54 142 54 b 98 54 83 109 83 144 l 84 154 b 101 146 118 142 135 142 b 165 142 199 154 236 180 b 279 210 314 261 314 313 b 314 370 269 414 211 419 b 141 417 61 333 31 278 b 4 229 -9 187 -9 150 b -9 60 61 7 150 7 z m 88 184 b 101 232 149 298 190 329 b 208 342 228 351 249 353 l 253 354 b 265 354 271 347 271 335 b 271 310 254 277 238 257 b 202 208 152 184 88 184 z"},"b":{"x_min":0,"x_max":422,"ha":422,"o":"m 14 47 b 33 17 72 -4 107 -4 b 172 -4 242 44 284 89 b 337 146 385 224 385 305 b 385 347 374 380 353 405 b 333 424 309 434 278 434 b 252 433 226 429 200 420 b 201 421 202 423 203 425 l 208 435 b 209 436 210 438 211 439 b 256 516 280 581 283 632 b 283 661 278 682 269 696 b 258 711 249 719 241 719 b 234 719 231 709 231 690 l 232 685 b 232 667 219 631 192 577 b 139 481 102 413 80 373 b -11 206 -57 98 -57 50 b -57 37 -54 27 -49 20 b -41 7 -26 -4 -10 -4 b 1 -4 7 7 8 29 b 9 33 11 39 14 47 z m 127 285 b 149 304 179 323 218 341 b 238 348 255 352 271 352 b 295 352 341 339 341 308 b 341 292 327 264 298 226 b 252 164 195 120 127 95 b 112 89 101 86 94 86 l 82 86 b 66 86 49 90 35 97 b 42 114 52 134 63 157 l 83 197 b 97 226 111 255 127 285 z"},"%":{"x_min":0,"x_max":438,"ha":438,"o":"m 91 2 b 97 2 102 8 105 20 l 110 33 b 117 61 141 119 181 208 b 204 256 243 335 299 444 b 347 537 375 592 383 610 b 396 641 402 664 402 682 b 402 693 388 727 376 727 b 372 727 367 719 361 703 b 355 687 336 648 303 589 b 234 461 188 372 165 321 l 131 248 b 87 152 63 95 58 75 b 55 63 54 53 54 44 b 54 27 58 21 73 10 b 81 4 86 2 91 2 z m 125 466 b 166 466 201 506 220 537 b 235 566 243 592 243 616 b 243 638 236 657 224 674 b 212 693 195 703 173 703 b 116 703 74 639 57 591 b 54 580 52 568 52 556 b 52 521 68 489 100 472 b 108 468 117 466 125 466 z m 106 508 b 97 508 92 515 92 529 b 92 562 107 594 137 626 b 160 647 178 658 193 658 b 197 658 200 657 202 655 b 204 653 205 647 205 637 b 205 594 168 536 128 515 b 119 510 112 508 106 508 z m 268 26 b 308 26 344 66 363 98 b 378 126 386 152 386 176 b 386 198 379 217 367 235 b 355 254 338 263 316 263 b 288 263 263 249 239 221 b 210 185 195 150 195 117 b 195 81 211 49 243 32 b 251 28 260 26 268 26 z m 249 68 b 240 68 235 75 235 89 b 235 123 250 155 280 187 b 303 208 322 218 336 218 b 340 218 343 217 345 215 b 347 213 348 208 348 198 b 348 154 311 96 271 76 b 262 71 255 68 249 68 z"},"m":{"x_min":0,"x_max":635,"ha":635,"o":"m 494 287 b 493 284 492 282 491 279 b 474 243 459 206 446 168 b 434 131 427 98 427 70 b 427 55 430 42 437 28 b 443 15 453 4 467 -4 b 470 -7 475 -9 480 -12 b 486 -14 492 -15 498 -15 b 503 -14 508 -10 512 -2 b 513 1 513 4 511 8 b 510 11 509 18 509 28 b 508 32 508 35 508 38 b 508 59 513 86 523 118 b 527 134 533 150 539 167 l 545 179 b 583 249 601 295 601 319 b 601 332 595 346 582 361 b 573 371 562 376 549 376 b 533 376 514 370 493 356 b 471 342 450 326 428 306 b 407 286 387 266 369 246 b 351 226 330 196 305 158 b 345 243 367 293 369 309 b 370 315 371 321 371 327 b 371 353 360 375 339 395 b 330 404 320 409 311 409 b 300 409 284 401 263 384 b 242 367 220 347 197 324 b 174 300 152 277 133 254 b 113 231 99 214 88 201 b 116 253 132 288 138 304 b 143 320 146 335 146 349 b 146 363 144 375 137 385 b 131 395 124 403 114 409 b 101 418 92 415 86 400 b 80 385 67 358 47 321 b 27 284 11 252 0 226 b -12 199 -22 172 -30 145 b -39 118 -43 93 -43 71 b -43 47 -33 29 -12 18 b -5 14 2 11 8 11 b 24 11 40 34 56 79 b 65 93 80 112 102 137 b 169 214 225 272 270 311 b 226 218 204 148 204 100 b 204 89 206 77 209 63 b 213 49 219 37 226 27 b 233 17 243 11 254 11 b 262 11 270 16 277 26 b 283 35 290 45 297 58 b 326 105 358 150 395 191 b 425 228 459 259 494 287 z"},"#":{"x_min":0,"x_max":626,"ha":626,"o":"m 315 1 b 323 2 327 10 327 26 b 331 63 348 131 380 227 b 395 229 409 230 422 231 l 503 239 b 512 240 519 243 523 249 b 529 255 539 272 539 281 b 539 289 534 292 524 292 l 400 282 b 408 305 426 352 455 423 b 493 423 527 422 555 421 b 564 421 571 423 576 428 b 581 432 585 438 589 446 l 591 448 b 594 453 595 457 595 460 b 595 467 589 471 578 472 l 476 476 b 503 541 521 587 531 617 b 540 644 544 662 544 672 b 544 688 536 702 520 715 b 514 721 509 724 504 724 b 499 724 494 717 490 703 b 485 686 474 654 456 605 b 440 562 422 520 404 478 l 254 483 b 298 589 319 652 319 671 b 319 688 311 702 294 715 b 289 721 283 724 278 724 b 273 724 269 717 265 703 b 260 686 248 654 230 605 b 215 565 199 525 182 486 l 90 489 b 84 489 80 488 77 485 b 71 481 63 458 63 450 b 63 438 71 432 87 430 l 128 430 l 128 429 l 158 429 b 137 380 117 322 95 257 l 36 252 b 29 252 24 250 21 247 b 17 242 11 221 11 212 b 11 200 19 193 35 193 l 38 193 b 44 194 50 195 55 195 l 55 195 b 58 195 61 195 62 196 b 66 196 70 197 73 197 l 77 197 b 59 132 50 85 50 54 b 50 33 55 19 64 12 b 73 5 81 1 87 1 b 96 1 101 10 102 26 b 105 59 120 115 145 194 l 148 204 l 309 220 b 287 144 275 89 275 54 b 275 33 280 19 290 12 b 298 5 306 1 313 1 z m 167 263 b 181 301 202 356 231 428 l 381 424 b 363 381 345 332 327 276 z"},",":{"x_min":0,"x_max":321,"ha":321,"o":"m 111 -55 b 123 -55 135 -52 146 -48 b 180 -33 197 -7 197 29 b 197 59 176 86 146 86 b 123 86 111 82 101 59 b 98 52 97 45 97 39 b 97 28 101 20 110 14 b 118 7 123 0 123 -7 b 123 -17 113 -32 103 -33 l 97 -33 b 90 -33 85 -35 82 -41 b 82 -42 81 -43 81 -44 b 81 -51 91 -55 111 -55 z"},"n":{"x_min":0,"x_max":441,"ha":441,"o":"m 341 177 b 387 290 405 310 405 340 b 405 374 384 412 347 412 b 277 412 153 284 108 229 b 124 258 162 334 162 363 b 162 380 155 395 140 407 b 133 414 127 417 123 417 b 116 417 110 409 103 391 b 88 354 63 310 8 213 b -28 151 -46 103 -46 67 b -46 56 -44 45 -41 37 b -31 21 -20 7 0 7 b 8 7 14 10 18 17 b 21 23 31 37 46 59 b 81 107 116 154 153 200 b 198 253 276 333 342 355 l 304 293 b 278 249 261 212 250 187 b 203 70 257 25 257 25 b 278 4 302 0 326 0 b 344 0 294 64 341 177 z"},"h":{"x_min":0,"x_max":420,"ha":420,"o":"m 286 73 b 283 83 297 119 320 176 b 352 252 368 303 368 328 b 368 368 343 415 301 421 l 298 421 b 253 421 174 353 142 317 l 160 350 b 224 465 266 544 285 586 b 298 616 304 641 304 662 b 304 682 299 697 288 709 b 277 721 269 727 264 727 b 258 727 254 721 252 709 b 246 687 227 644 194 580 b 183 557 138 479 62 346 l 24 281 b -4 233 -44 136 -44 83 b -44 58 -33 38 -9 24 b -2 19 4 17 9 17 b 16 17 23 26 31 44 b 40 67 61 103 93 151 b 137 216 215 320 289 347 l 276 320 b 257 279 238 237 225 193 b 219 174 206 131 203 113 b 197 77 202 41 250 27 b 279 19 299 24 286 73 z"},"z":{"x_min":0,"x_max":366,"ha":366,"o":"m 115 14 b 77 6 33 -11 -18 -37 b -72 -67 -107 -99 -125 -134 b -140 -162 -147 -187 -147 -209 b -147 -242 -135 -268 -111 -288 b -96 -300 -75 -306 -48 -306 b -38 -306 -27 -305 -15 -304 b 104 -278 197 -163 197 -36 l 197 -29 b 254 -24 250 24 222 25 b 210 25 198 24 183 22 b 177 39 168 55 157 71 b 257 125 308 198 308 291 b 308 368 266 410 184 417 l 180 417 b 100 417 18 364 18 284 b 18 274 21 247 34 247 b 39 247 42 252 46 262 b 51 279 62 295 80 308 b 108 328 139 337 175 337 b 209 337 261 323 261 285 l 261 278 b 260 259 195 151 126 127 b 104 120 86 117 74 117 l 59 117 b 27 135 22 122 22 94 b 22 67 36 57 62 44 b 83 35 101 24 115 14 z m 133 -35 b 131 -66 122 -97 102 -131 b 68 -189 9 -245 -55 -245 b -68 -245 -85 -241 -97 -233 l -105 -229 b -90 -182 -53 -135 5 -88 b 49 -57 82 -44 133 -35 z"},"B":{"x_min":0,"x_max":641,"ha":641,"o":"m 192 3 b 300 3 453 53 524 138 b 562 183 582 227 582 270 b 582 335 538 365 478 380 b 550 417 635 490 635 580 b 635 643 607 685 547 709 b 513 721 474 727 430 727 b 349 727 273 710 206 676 b 102 618 36 555 8 487 b -1 462 -6 440 -6 423 b -6 399 0 380 12 363 b 24 345 36 335 46 335 b 53 335 57 339 57 346 b 57 350 54 356 50 362 b 45 369 43 378 43 391 b 43 427 70 465 91 493 b 112 521 144 548 185 573 b 268 622 348 646 425 646 l 446 646 b 495 643 531 634 554 620 b 577 606 590 591 595 576 l 589 562 l 589 562 l 589 561 b 577 533 549 505 504 478 b 448 444 404 424 372 417 b 395 463 415 512 415 564 b 415 584 408 602 394 618 b 382 632 371 640 361 640 b 355 640 353 636 353 628 b 353 624 354 620 354 614 b 355 612 355 609 355 606 b 355 587 344 554 322 505 b 309 478 290 445 266 409 b 254 391 239 367 221 339 b 196 299 147 212 147 168 b 147 140 164 112 189 99 b 198 95 204 92 208 92 b 214 92 217 100 217 115 b 217 155 264 229 287 267 b 298 285 309 304 320 322 b 361 322 417 318 456 305 b 498 289 522 270 528 248 b 529 244 530 241 530 237 b 530 203 447 155 422 142 b 350 101 255 81 173 81 b 139 81 110 85 87 94 b 58 106 39 119 32 133 b 32 135 30 138 25 142 b 23 144 21 145 19 145 b 15 145 11 141 8 133 b 6 127 5 121 5 112 b 5 70 39 46 72 29 b 107 12 147 3 192 3 z"},"K":{"x_min":0,"x_max":538,"ha":538,"o":"m 67 1 b 94 2 94 20 94 43 l 94 57 l 94 80 b 95 122 113 194 127 236 b 159 171 208 116 274 68 b 314 43 352 31 387 31 b 434 31 494 48 519 95 b 525 106 529 115 529 121 b 529 125 526 136 521 136 b 518 136 515 134 510 129 b 493 114 461 103 439 103 b 413 103 376 118 330 148 b 290 176 251 218 215 275 l 195 306 b 281 326 351 361 401 412 b 452 462 525 542 525 624 b 525 649 522 667 516 679 b 511 686 508 690 505 690 b 500 690 497 683 495 669 b 495 633 468 587 413 531 b 349 463 273 420 186 403 b 251 513 303 643 217 706 b 203 716 191 720 181 720 b 178 720 175 719 175 717 b 174 714 174 712 174 709 b 174 706 174 701 175 696 b 177 687 178 675 178 660 b 178 643 174 624 168 602 b 163 579 106 441 106 441 b 84 386 64 331 44 275 b 19 204 7 144 7 96 b 7 61 12 38 22 24 b 33 8 47 1 62 1 z"},"R":{"x_min":0,"x_max":683,"ha":683,"o":"m 239 -2 b 251 -2 252 6 252 17 l 252 20 b 252 26 253 33 255 41 b 259 53 266 72 277 98 l 282 106 b 315 58 391 5 451 5 b 477 5 501 11 522 21 b 560 40 579 59 580 79 l 581 87 b 581 96 578 101 572 101 b 569 101 564 98 557 92 b 535 74 516 67 488 67 b 451 67 414 80 378 105 b 353 123 335 141 325 159 b 327 159 331 158 336 158 l 344 158 l 345 157 l 355 157 b 495 157 727 305 727 462 b 727 541 684 613 624 661 b 579 693 538 711 499 715 b 460 719 433 721 418 721 b 311 721 201 680 118 612 b 38 547 -2 477 -2 403 b -2 376 4 352 18 329 b 34 305 48 289 61 280 b 74 272 83 268 90 268 b 97 268 101 271 101 275 b 101 278 97 283 88 292 b 66 312 59 332 59 362 l 60 377 b 62 404 73 435 95 470 b 119 505 156 540 208 575 b 259 609 325 633 403 646 b 421 647 438 648 454 648 b 509 648 554 637 589 616 b 631 590 673 558 673 505 b 673 484 667 460 656 433 b 619 345 536 287 450 252 b 410 236 376 228 347 228 b 386 300 417 367 440 428 b 455 466 462 491 464 503 b 465 516 466 524 466 529 b 466 539 465 546 461 551 b 455 565 441 579 428 588 b 422 592 417 594 413 594 b 408 594 404 592 403 587 b 402 583 401 578 400 571 b 399 564 398 555 395 542 b 389 518 368 473 332 408 l 288 326 b 209 188 169 98 168 58 b 168 39 175 25 188 16 b 206 4 222 -2 239 -2 z"},"T":{"x_min":0,"x_max":312,"ha":312,"o":"m 72 4 b 78 4 82 6 82 11 l 83 19 b 83 22 82 26 82 31 b 81 35 81 40 81 46 b 81 88 93 136 118 192 b 138 233 166 283 202 342 b 237 399 334 562 334 629 b 349 632 364 636 379 640 b 414 648 441 653 461 653 b 480 654 492 654 496 654 b 528 654 553 650 571 643 b 575 641 578 637 581 631 b 584 622 588 618 592 618 b 599 618 608 628 621 649 b 624 655 625 662 625 668 b 625 677 621 687 613 695 b 592 716 558 727 510 727 b 468 727 403 717 317 698 b 272 688 230 680 190 673 b 162 668 136 667 113 667 b 93 667 38 670 25 678 b 19 681 14 683 10 683 b -2 683 -6 663 -6 654 b -6 641 -1 630 9 622 b 27 608 64 601 121 601 b 153 601 190 604 234 611 b 210 552 158 452 78 312 b 34 230 12 161 12 102 l 12 95 b 12 52 27 23 57 8 b 63 5 68 4 72 4 z"},"P":{"x_min":0,"x_max":729,"ha":729,"o":"m 252 85 b 268 81 285 79 303 79 b 324 79 353 83 389 91 b 479 109 570 176 630 245 b 681 302 725 388 725 468 b 725 492 719 522 707 558 b 694 593 662 626 611 658 b 553 692 486 709 412 709 b 292 709 131 654 59 550 b 23 500 5 454 5 413 b 5 383 13 356 28 332 b 42 307 58 291 74 282 b 81 278 87 276 90 276 b 96 276 99 279 99 285 b 99 292 97 297 93 303 b 81 322 74 347 74 376 b 74 401 83 430 99 462 b 139 546 224 587 307 610 b 343 620 379 625 416 625 b 438 625 459 623 481 619 b 539 606 583 584 616 553 b 658 514 678 477 678 442 b 678 396 643 340 572 273 b 528 234 479 204 424 185 b 374 167 328 156 286 154 b 299 177 313 203 329 231 b 376 310 419 389 458 466 b 471 490 477 510 477 529 b 477 547 471 563 458 576 b 448 586 441 591 435 591 b 433 591 429 589 425 585 b 420 582 415 569 408 548 b 397 523 378 490 351 448 b 332 419 313 389 294 356 b 281 333 266 309 250 284 b 228 252 208 219 190 187 b 163 139 150 96 150 58 b 150 19 170 -22 209 -34 b 214 -36 218 -37 221 -37 b 226 -37 229 -32 229 -22 b 229 -19 229 -16 228 -11 b 228 -4 227 2 227 10 b 227 24 235 49 252 85 z"},"|":{"x_min":0,"x_max":310,"ha":310,"o":"m 142 65 b 144 65 146 65 148 66 b 152 67 154 72 154 79 b 154 82 154 84 153 88 b 153 91 153 95 153 102 b 153 124 156 166 164 229 b 169 266 177 312 187 367 b 194 406 201 443 207 479 b 215 525 219 563 219 591 b 219 609 217 623 214 633 l 210 645 b 207 658 197 669 180 680 b 168 688 158 691 151 691 b 150 691 148 691 147 690 b 146 689 145 688 145 684 b 145 682 146 678 146 673 b 149 665 150 655 150 643 b 149 639 148 632 147 624 b 142 563 130 487 112 396 b 97 319 86 254 81 200 b 81 193 81 186 81 179 b 81 156 83 136 88 117 b 89 117 91 110 95 98 b 101 80 124 65 142 65 z"},"t":{"x_min":0,"x_max":307,"ha":307,"o":"m 214 474 b 259 482 298 486 329 486 b 346 486 356 483 361 477 b 364 471 366 466 366 461 b 368 455 370 452 372 452 l 373 452 b 385 454 386 483 386 492 b 386 544 348 554 300 554 b 285 554 268 553 249 551 b 261 579 277 619 277 650 b 277 672 270 689 255 701 b 246 709 238 714 233 714 b 227 714 223 708 222 697 b 215 648 184 583 160 538 b 140 535 118 534 94 534 l 81 534 b 32 539 4 549 -2 563 b -7 569 -11 573 -14 573 b -21 573 -23 563 -23 545 b -23 513 -11 492 19 478 b 44 469 73 464 105 464 l 119 464 b 109 447 98 428 86 408 l 42 330 b 23 297 4 261 -13 221 b -31 182 -40 145 -40 110 l -40 103 b -36 68 -23 42 -2 23 b 23 1 47 -9 70 -9 b 148 -9 238 64 260 109 b 276 136 283 152 285 157 b 296 186 272 205 265 190 b 186 80 57 17 30 45 l 30 56 b 30 72 36 97 48 130 b 61 164 81 208 107 263 b 133 317 156 361 176 397 b 190 425 203 451 214 474 z"},"M":{"x_min":0,"x_max":983,"ha":983,"o":"m 547 93 b 556 106 572 138 579 180 b 579 232 887 647 936 613 b 945 608 786 401 743 184 b 724 87 738 31 811 16 b 811 16 842 21 847 30 b 853 39 842 42 834 58 b 828 73 826 93 829 118 b 833 176 855 248 895 334 b 914 375 932 415 949 452 b 966 485 978 511 985 529 b 1023 613 999 695 930 687 b 920 688 904 679 880 663 b 856 648 825 621 787 582 b 730 524 641 397 641 397 b 689 487 710 541 719 591 b 724 645 707 681 667 699 b 662 700 656 701 650 700 b 594 698 513 628 410 488 b 415 504 418 521 419 538 b 424 591 417 625 393 668 b 370 708 323 729 279 727 b 248 726 212 713 172 688 b 119 651 78 603 49 543 b 21 485 6 433 2 388 l 1 384 b 0 340 6 307 21 283 b 37 260 54 249 72 250 l 73 250 b 94 252 104 258 105 269 b 106 274 104 278 100 282 b 76 296 71 342 74 373 b 75 390 80 415 88 444 b 97 475 115 513 144 561 b 175 607 208 638 242 655 b 266 667 286 673 303 674 b 346 676 359 642 355 598 b 353 571 344 536 329 492 b 304 419 266 344 219 265 b 209 252 182 201 164 158 b 108 30 161 -27 212 -9 b 212 -9 220 18 227 42 b 236 70 259 135 324 248 b 535 618 631 626 631 626 b 631 626 594 523 572 472 b 461 216 475 196 473 172 b 466 96 538 80 547 93 z"},"g":{"x_min":0,"x_max":438,"ha":438,"o":"m 62 -305 b 105 -305 145 -285 182 -245 b 221 -202 260 -135 301 -44 b 318 -51 332 -61 341 -73 b 350 -83 356 -88 359 -88 b 363 -88 364 -85 364 -78 b 364 -49 349 -24 317 -2 b 348 77 382 198 382 281 b 382 309 376 362 341 362 b 333 391 320 408 302 414 b 284 420 270 423 259 423 b 234 423 204 416 167 399 b 116 373 73 337 38 293 b 0 244 -38 183 -38 118 b -38 77 -23 49 9 22 b 27 8 46 1 65 1 b 131 1 206 84 245 131 b 271 163 289 189 301 210 b 284 145 263 83 238 22 l 224 22 b 146 22 99 1 35 -41 b 4 -61 -19 -83 -34 -108 b -50 -135 -58 -157 -58 -172 l -58 -195 b -58 -255 5 -305 62 -305 z m 29 65 b 42 169 181 351 291 351 b 299 351 307 350 314 348 b 310 327 293 294 265 251 b 236 208 201 168 159 130 b 117 93 73 71 29 65 z m 16 -233 b -1 -233 -9 -224 -9 -205 b -9 -180 3 -151 28 -121 b 74 -67 136 -38 213 -33 b 187 -87 141 -165 93 -200 b 71 -217 48 -228 25 -232 b 21 -233 19 -233 16 -233 z"},"j":{"x_min":0,"x_max":181,"ha":181,"o":"m 64 45 l 67 54 b 89 119 115 206 115 274 b 115 310 108 336 94 354 b 82 367 71 374 62 374 b 55 374 52 371 51 365 l 51 356 b 52 352 53 345 53 335 b 53 332 53 327 53 322 b 51 305 44 270 30 217 b 14 157 -8 94 -36 28 b -134 -7 -244 -83 -300 -172 b -321 -207 -333 -236 -334 -262 b -334 -263 -334 -263 -334 -264 l -335 -268 b -335 -292 -329 -312 -315 -331 b -290 -365 -265 -383 -238 -383 b -127 -383 -33 -191 8 -96 l 13 -86 b 23 -63 33 -39 42 -14 b 55 -11 67 -10 79 -10 b 104 -10 126 -17 145 -31 b 149 -34 153 -36 156 -36 b 162 -36 165 -30 166 -19 l 166 -17 b 166 -6 163 2 155 10 b 135 32 104 44 64 45 z m -75 -59 l -92 -95 b -157 -225 -219 -297 -278 -311 l -278 -298 b -276 -274 -265 -245 -245 -211 b -204 -141 -144 -97 -75 -59 z m 106 429 b 131 429 158 481 163 498 b 167 517 162 535 144 553 b 137 561 130 564 123 564 b 120 564 116 563 110 560 b 96 553 71 500 68 487 b 63 472 69 463 77 452 b 86 437 97 429 106 429 z"},"i":{"x_min":0,"x_max":188,"ha":188,"o":"m 152 453 b 160 453 168 457 176 464 b 184 472 191 480 197 489 b 202 498 206 504 208 509 b 213 525 207 541 189 555 b 182 561 175 564 168 564 b 165 564 161 563 155 561 b 150 558 145 553 139 545 b 133 537 127 528 123 520 b 118 511 115 504 113 500 b 111 495 111 489 113 485 b 115 480 118 476 122 472 b 132 459 142 453 152 453 z m -12 182 b -16 174 -20 166 -23 158 b -36 125 -41 96 -39 72 b -32 41 -15 18 14 3 b 23 -1 30 -4 34 -4 b 40 -4 42 3 40 19 b 39 23 39 27 38 32 b 39 36 40 42 40 47 b 40 64 43 85 51 109 b 63 144 83 186 108 235 b 125 270 138 302 146 332 b 155 361 153 382 139 395 b 127 406 118 411 110 411 b 107 411 104 411 101 409 b 95 407 92 401 90 392 b 87 376 75 348 54 308 l 42 287 b 21 248 2 212 -12 182 z"},"y":{"x_min":0,"x_max":484,"ha":484,"o":"m 325 21 b 335 48 346 79 358 112 b 386 191 405 253 416 298 b 421 323 423 343 423 360 b 423 378 414 424 390 424 b 382 424 371 414 355 393 l 325 356 b 270 290 112 101 33 67 b 22 63 13 60 5 58 l 4 58 b -33 62 115 243 149 323 b 166 361 143 392 108 405 b 106 406 105 406 104 406 b 98 406 91 399 83 385 l 70 365 b 1 254 -26 217 -47 169 b -58 143 -63 118 -63 96 b -63 65 -53 39 -33 16 b -17 -1 0 -10 20 -10 b 44 -9 70 1 99 23 b 128 45 168 83 216 137 b 265 191 307 241 340 287 b 309 188 275 100 237 21 b 224 19 210 17 196 14 b 144 1 97 -22 59 -54 b 16 -89 -20 -125 -20 -182 b -20 -230 18 -281 69 -280 b 90 -280 115 -271 141 -254 b 217 -200 269 -117 304 -31 b 324 -32 359 -36 375 -45 b 384 -51 389 -54 391 -56 b 392 -59 394 -60 396 -60 b 404 -60 407 -53 407 -39 b 407 -2 360 15 330 20 b 328 20 326 21 325 21 z m 204 -44 b 169 -109 108 -203 30 -208 l 34 -190 b 49 -122 140 -62 204 -44 z"},"@":{"x_min":0,"x_max":627,"ha":627,"o":"m 305 -46 b 336 -46 380 -37 406 -20 b 418 -12 424 -5 424 0 l 424 1 b 422 9 416 13 405 13 b 397 13 388 11 378 6 b 360 -4 332 -10 293 -11 b 265 -10 238 2 211 25 b 162 68 141 136 141 199 b 141 290 168 359 225 408 b 267 439 301 455 328 456 b 355 457 370 457 373 457 b 420 457 459 447 490 427 b 521 406 538 384 543 361 b 548 338 550 320 550 307 b 550 260 530 200 499 166 b 481 146 467 132 456 126 b 443 118 434 114 428 114 b 424 114 421 116 419 119 b 418 123 417 128 416 135 b 414 143 414 150 414 157 b 414 165 414 173 415 184 b 416 197 416 208 416 215 b 416 226 415 234 411 238 b 409 240 405 243 401 247 b 396 250 393 253 388 257 b 370 280 345 293 312 296 l 309 296 b 254 296 207 235 207 182 b 207 132 240 98 289 98 b 309 98 331 111 354 138 b 367 97 409 69 451 69 b 520 69 568 116 596 210 b 603 236 606 260 606 283 b 606 353 568 412 513 454 b 475 483 438 500 402 506 b 366 511 342 514 329 514 b 284 514 240 502 198 479 b 146 447 110 405 89 354 b 69 303 59 255 59 212 b 59 130 92 54 158 3 b 187 -19 214 -33 240 -38 b 267 -43 288 -46 305 -46 z m 272 143 l 272 147 b 272 177 284 213 306 233 b 314 241 332 254 344 254 b 349 254 351 251 351 246 b 351 225 311 179 295 161 b 288 153 280 147 272 143 z"},".":{"x_min":0,"x_max":321,"ha":321,"o":"m 145 -6 b 178 -6 205 21 205 54 b 205 87 178 114 145 114 b 112 114 85 87 85 54 b 85 20 111 -6 145 -6 z"},"p":{"x_min":0,"x_max":419,"ha":419,"o":"m -98 -286 b -92 -286 -89 -282 -89 -274 b -89 -273 -89 -271 -89 -270 l -90 -263 b -90 -260 -90 -257 -90 -253 b -90 -183 -27 -37 7 30 b 22 -3 54 -31 92 -31 b 106 -31 123 -27 140 -21 b 229 14 293 76 333 167 b 347 202 354 233 354 262 b 354 310 334 350 297 380 b 279 393 260 400 242 400 b 200 400 155 363 128 335 l 127 345 b 125 363 119 377 111 388 b 103 399 96 405 90 405 b 78 405 78 399 77 388 b 77 381 76 374 73 366 b 55 313 9 218 -62 80 b -102 5 -151 -114 -151 -197 b -151 -227 -147 -260 -119 -277 b -109 -283 -103 -286 -98 -286 z m 43 42 b 33 42 24 46 17 52 l 22 63 b 42 100 60 137 76 174 b 97 201 128 236 170 280 b 202 312 237 333 277 343 b 286 343 293 327 293 319 b 293 304 281 272 257 223 b 218 145 167 94 90 56 b 72 47 56 42 43 42 z"},"X":{"x_min":0,"x_max":659,"ha":659,"o":"m 484 339 b 492 346 500 354 507 360 b 568 417 631 501 672 575 b 688 601 695 625 695 646 b 695 657 693 667 689 673 l 687 679 b 683 688 674 697 666 704 b 661 706 658 708 656 708 b 654 708 653 707 651 704 b 650 702 648 695 647 686 l 646 675 b 637 615 534 499 488 451 b 485 520 483 579 439 638 b 398 691 332 718 266 718 b 245 718 223 715 201 710 b 152 696 110 672 78 638 b 27 584 2 524 2 456 b 2 446 3 431 6 411 b 12 367 42 328 82 308 b 103 298 121 292 136 292 b 148 293 155 297 155 303 b 155 310 150 314 141 316 b 125 320 111 333 98 354 b 87 372 81 396 80 424 b 80 499 99 551 156 602 b 196 637 250 665 305 665 b 313 665 324 664 336 661 b 349 657 361 641 373 612 b 393 561 395 504 395 449 b 395 425 394 394 391 355 b 373 339 355 323 339 309 b 290 265 218 183 202 117 b 199 104 197 91 197 79 b 197 56 203 22 220 6 b 229 -1 236 -5 243 -5 l 244 -5 b 250 -5 253 -2 253 4 l 254 17 b 254 27 259 43 267 64 b 279 101 306 143 347 192 b 359 207 371 220 383 234 b 383 211 382 186 382 159 b 385 117 396 85 414 61 b 447 17 493 -3 547 -3 b 582 -3 599 2 599 12 b 599 14 598 16 596 17 b 592 21 583 23 569 23 b 565 23 561 22 557 22 b 546 22 533 25 519 30 b 504 34 492 50 481 77 b 475 102 472 132 472 168 b 472 200 475 236 479 277 b 481 300 483 321 484 339 z"},"*":{"x_min":0,"x_max":321,"ha":321,"o":"m 138 540 b 144 533 149 529 153 525 b 159 521 165 518 170 518 b 180 518 200 535 200 545 b 200 548 199 551 196 554 l 196 555 b 190 560 181 571 169 589 b 170 589 170 590 171 590 b 189 597 203 602 211 605 b 237 615 253 626 253 655 b 253 664 249 667 242 667 b 241 667 221 660 184 646 b 185 647 186 649 187 650 b 194 665 198 676 198 684 b 198 691 195 697 188 703 l 168 719 b 162 724 155 727 148 727 l 142 727 b 133 727 124 713 112 686 b 111 688 110 690 108 691 b 104 695 96 696 85 696 b 75 696 55 694 55 681 b 55 662 76 625 87 607 b 73 602 58 596 42 590 b 32 585 27 574 27 555 b 27 546 30 542 38 542 b 40 542 48 544 63 550 b 69 552 76 555 83 557 b 84 533 93 516 108 506 b 114 502 121 500 126 500 b 133 500 137 502 137 509 l 136 519 b 136 525 137 533 138 540 z"},"Y":{"x_min":0,"x_max":902,"ha":902,"o":"m 824 685 b 822 683 821 681 820 678 b 820 675 819 670 819 664 l 819 658 l 808 606 b 798 574 782 535 758 489 b 733 443 700 393 656 337 b 613 282 570 237 529 204 b 497 178 459 158 417 143 l 417 150 b 417 173 421 200 429 230 b 438 260 449 294 463 332 l 468 347 b 494 417 507 478 507 527 b 507 552 503 579 496 607 b 489 636 475 660 456 679 b 441 693 421 704 398 711 b 374 719 352 723 331 723 b 292 723 254 710 217 685 b 179 659 148 628 123 590 b 98 553 86 515 86 478 b 86 449 90 424 99 402 b 108 380 124 359 146 340 b 170 319 191 309 208 309 b 216 309 221 311 221 315 b 221 318 218 321 214 323 b 204 327 192 341 180 364 b 171 382 167 404 167 430 b 167 471 174 507 188 539 b 202 567 222 592 250 613 b 301 653 347 674 386 674 b 391 674 395 673 397 672 b 407 667 414 658 418 644 b 423 630 427 614 429 598 b 431 581 432 568 432 558 b 432 523 422 479 403 423 b 401 416 396 401 388 378 b 388 377 387 375 386 373 b 354 279 337 215 337 180 b 337 164 342 150 351 140 b 359 129 371 122 385 116 b 398 111 413 108 428 108 b 453 108 478 113 501 123 b 525 132 548 144 569 159 b 590 174 608 190 625 207 b 670 254 711 304 747 358 b 743 346 739 334 735 322 b 708 249 680 186 648 132 b 589 37 530 -22 472 -44 b 462 -47 453 -49 446 -51 b 438 -52 429 -53 418 -53 b 411 -53 405 -53 400 -52 b 396 -51 392 -51 389 -51 b 384 -51 380 -53 377 -57 b 375 -61 373 -65 373 -69 b 373 -76 376 -83 382 -89 b 388 -95 394 -100 401 -104 b 409 -107 415 -110 419 -112 b 429 -115 441 -117 456 -117 b 489 -117 519 -111 547 -98 b 575 -84 602 -67 625 -44 b 649 -22 671 3 691 32 b 711 61 730 91 747 123 b 783 192 812 264 833 338 b 854 411 868 472 875 522 b 882 573 885 607 885 624 b 885 647 875 667 854 683 b 845 690 835 691 824 685 z"},"c":{"x_min":0,"x_max":409,"ha":409,"o":"m 111 1 b 136 1 162 6 189 16 b 232 36 265 64 276 73 b 288 83 305 103 316 118 b 329 134 335 147 337 158 b 346 188 310 226 299 193 b 280 127 140 49 101 49 b 59 49 35 77 82 200 b 116 291 213 383 253 379 b 267 379 271 342 216 285 b 301 208 403 419 221 417 b 152 416 70 336 33 279 b 0 229 -18 186 -23 148 b -36 56 24 1 111 1 z"},"!":{"x_min":0,"x_max":321,"ha":321,"o":"m 91 125 b 93 125 96 126 99 128 b 101 129 104 136 107 146 b 111 160 122 187 139 229 b 157 272 175 313 195 354 b 209 380 229 416 254 460 b 279 505 304 546 327 585 b 350 624 365 649 372 660 b 380 671 385 680 385 686 b 385 687 384 689 384 692 b 384 696 378 701 366 709 b 356 717 348 721 341 721 b 340 721 337 721 333 720 b 315 717 234 585 224 568 b 186 505 155 448 131 398 b 110 350 92 303 78 258 b 62 206 53 171 53 155 b 53 149 54 145 56 141 b 59 134 83 125 91 125 z m 59 -1 b 76 -1 87 40 87 54 b 87 69 79 84 62 99 b 56 105 50 107 45 107 b 36 107 30 101 27 86 b 22 64 20 50 20 45 b 20 33 25 25 33 17 b 43 4 52 -1 59 -1 z"},"/":{"x_min":0,"x_max":381,"ha":381,"o":"m 62 53 b 64 53 67 54 70 55 b 76 56 80 63 82 76 b 83 90 102 137 137 218 b 154 254 177 300 206 355 b 226 394 245 431 262 467 b 300 542 318 594 318 622 l 318 633 b 318 646 311 658 296 668 b 285 676 275 680 268 680 b 257 680 257 669 257 661 b 256 653 254 643 251 631 b 249 627 246 620 242 612 b 217 552 181 476 133 384 b 92 307 60 242 38 188 b 26 157 20 129 20 105 b 20 105 20 98 21 86 b 21 66 44 53 62 53 z"},"[":{"x_min":0,"x_max":251,"ha":251,"o":"m 125 7 b 134 7 156 11 156 23 b 156 32 144 37 118 37 b 106 37 92 37 74 36 b 77 102 82 180 89 271 b 93 325 96 374 99 417 b 108 557 117 640 125 667 b 130 684 136 688 153 688 l 167 690 b 183 693 191 698 191 707 b 191 711 186 717 175 723 b 167 728 157 730 146 730 l 115 730 b 89 730 71 720 61 700 b 42 658 33 556 30 510 l 22 366 b 11 178 6 74 6 54 b 6 21 16 7 50 7 z"},"6":{"x_min":0,"x_max":1374,"ha":1374,"o":"m 146 563 b 183 563 212 593 212 630 b 212 668 184 697 147 697 b 109 697 81 667 81 630 b 81 593 109 563 146 563 z m 146 580 b 119 580 98 602 98 630 b 98 658 119 680 147 680 b 175 680 195 659 195 630 b 195 602 174 580 146 580 z m 149 593 b 166 593 178 601 183 614 l 159 626 b 157 621 153 619 149 619 b 144 619 140 623 140 630 b 140 638 144 641 149 641 b 153 641 157 639 159 634 l 183 646 b 178 659 166 668 149 668 b 126 668 109 652 109 630 b 109 608 126 593 149 593 z m 288 599 l 348 669 l 348 696 l 233 696 l 233 662 l 290 662 l 231 591 l 231 564 l 351 564 l 351 599 z m 415 598 l 415 615 l 470 615 l 470 647 l 415 647 l 415 663 l 478 663 l 478 696 l 372 696 l 372 564 l 480 564 l 480 598 z m 549 598 l 549 615 l 604 615 l 604 647 l 549 647 l 549 663 l 611 663 l 611 696 l 506 696 l 506 564 l 614 564 l 614 598 z m 725 696 l 725 636 l 675 696 l 639 696 l 639 564 l 682 564 l 682 624 l 732 564 l 768 564 l 768 696 z m 841 598 l 841 615 l 896 615 l 896 647 l 841 647 l 841 663 l 903 663 l 903 696 l 797 696 l 797 564 l 906 564 l 906 598 z m 980 561 b 1020 561 1040 581 1040 606 b 1040 654 968 641 968 657 b 968 661 973 665 985 665 b 997 665 1009 662 1022 655 l 1035 688 b 1021 696 1003 699 986 699 b 945 699 925 679 925 655 b 925 605 997 619 997 602 b 997 598 993 595 980 595 b 966 595 949 600 937 607 l 923 575 b 936 566 958 561 980 561 z m 1062 564 l 1106 564 l 1106 696 l 1062 696 z m 1233 564 l 1278 564 l 1221 696 l 1178 696 l 1121 564 l 1166 564 l 1174 587 l 1224 587 z m 1187 619 l 1199 652 l 1212 619 z m 261 426 l 284 426 l 284 478 l 304 478 l 304 496 l 241 496 l 241 478 l 261 478 z m 360 496 l 360 472 l 338 472 l 338 496 l 315 496 l 315 426 l 338 426 l 338 452 l 360 452 l 360 426 l 383 426 l 383 496 z m 399 426 l 422 426 l 422 496 l 399 496 z m 463 425 b 485 425 495 436 495 448 b 495 474 457 467 457 476 b 457 478 459 480 466 480 b 472 480 479 478 485 475 l 492 492 b 485 496 476 498 466 498 b 445 498 434 487 434 474 b 434 448 472 455 472 447 b 472 444 470 443 463 443 b 456 443 447 445 441 449 l 433 432 b 440 428 452 425 463 425 z m 597 479 l 597 496 l 541 496 l 541 426 l 564 426 l 564 449 l 593 449 l 593 467 l 564 467 l 564 479 z m 644 425 b 667 425 683 440 683 461 b 683 483 667 498 644 498 b 622 498 605 483 605 461 b 605 440 622 425 644 425 z m 644 444 b 636 444 629 450 629 461 b 629 472 636 479 644 479 b 653 479 660 472 660 461 b 660 450 653 444 644 444 z m 741 496 l 741 465 l 715 496 l 696 496 l 696 426 l 719 426 l 719 458 l 745 426 l 764 426 l 764 496 z m 795 426 l 818 426 l 818 478 l 838 478 l 838 496 l 775 496 l 775 478 l 795 478 z m 939 479 l 939 496 l 883 496 l 883 426 l 906 426 l 906 449 l 935 449 l 935 467 l 906 467 l 906 479 z m 987 425 b 1009 425 1026 440 1026 461 b 1026 483 1009 498 987 498 b 964 498 948 483 948 461 b 948 440 964 425 987 425 z m 987 444 b 978 444 971 450 971 461 b 971 472 978 479 987 479 b 995 479 1002 472 1002 461 b 1002 450 995 444 987 444 z m 1080 426 l 1105 426 l 1090 448 b 1098 452 1103 460 1103 470 b 1103 486 1091 496 1072 496 l 1038 496 l 1038 426 l 1062 426 l 1062 444 l 1068 444 z m 1080 470 b 1080 465 1077 462 1070 462 l 1062 462 l 1062 478 l 1070 478 b 1077 478 1080 475 1080 470 z m 111 380 l 78 380 l 78 310 l 101 310 l 101 327 l 111 327 b 131 327 143 338 143 354 b 143 370 131 380 111 380 z m 110 346 l 101 346 l 101 362 l 110 362 b 116 362 119 359 119 354 b 119 349 116 346 110 346 z m 178 328 l 178 337 l 207 337 l 207 354 l 178 354 l 178 362 l 211 362 l 211 380 l 155 380 l 155 310 l 212 310 l 212 328 z m 267 310 l 292 310 l 277 332 b 286 336 290 344 290 354 b 290 370 278 380 259 380 l 226 380 l 226 310 l 249 310 l 249 328 l 255 328 z m 267 354 b 267 349 264 346 257 346 l 249 346 l 249 362 l 257 362 b 264 362 267 359 267 354 z m 329 309 b 351 309 361 320 361 332 b 361 358 323 351 323 359 b 323 362 325 364 332 364 b 338 364 345 362 351 359 l 358 376 b 351 380 342 382 332 382 b 311 382 300 371 300 358 b 300 332 338 339 338 330 b 338 328 336 327 329 327 b 322 327 313 329 307 333 l 299 316 b 306 312 318 309 329 309 z m 409 309 b 431 309 448 324 448 345 b 448 366 431 382 409 382 b 386 382 370 366 370 345 b 370 324 386 309 409 309 z m 409 328 b 400 328 393 334 393 345 b 393 356 400 363 409 363 b 417 363 424 356 424 345 b 424 334 417 328 409 328 z m 506 380 l 506 348 l 480 380 l 461 380 l 461 310 l 483 310 l 483 342 l 510 310 l 529 310 l 529 380 z m 596 310 l 620 310 l 590 380 l 567 380 l 537 310 l 561 310 l 565 323 l 591 323 z m 572 339 l 578 357 l 585 339 z m 628 310 l 683 310 l 683 329 l 652 329 l 652 380 l 628 380 z m 761 309 b 782 309 794 321 794 342 l 794 380 l 772 380 l 772 342 b 772 332 768 328 761 328 b 755 328 751 332 751 342 l 751 380 l 727 380 l 727 342 b 727 321 740 309 761 309 z m 835 309 b 857 309 867 320 867 332 b 867 358 829 351 829 359 b 829 362 831 364 838 364 b 844 364 851 362 857 359 l 864 376 b 857 380 848 382 838 382 b 817 382 806 371 806 358 b 806 332 844 339 844 330 b 844 328 842 327 835 327 b 828 327 819 329 813 333 l 805 316 b 812 312 824 309 835 309 z m 902 328 l 902 337 l 931 337 l 931 354 l 902 354 l 902 362 l 935 362 l 935 380 l 879 380 l 879 310 l 936 310 l 936 328 z m 1020 309 b 1042 309 1059 324 1059 345 b 1059 366 1042 382 1020 382 b 997 382 981 366 981 345 b 981 324 997 309 1020 309 z m 1020 328 b 1011 328 1004 334 1004 345 b 1004 356 1011 363 1020 363 b 1028 363 1035 356 1035 345 b 1035 334 1028 328 1020 328 z m 1117 380 l 1117 348 l 1091 380 l 1072 380 l 1072 310 l 1094 310 l 1094 342 l 1121 310 l 1140 310 l 1140 380 z m 1155 310 l 1210 310 l 1210 329 l 1179 329 l 1179 380 l 1155 380 z m 1281 380 l 1258 380 l 1244 356 l 1230 380 l 1206 380 l 1232 336 l 1232 310 l 1255 310 l 1255 336 z m 213 136 l 197 159 b 206 163 212 171 212 181 b 212 197 201 206 182 206 l 154 206 l 154 136 l 167 136 l 167 156 l 182 156 b 183 156 184 156 185 157 l 199 136 z m 199 181 b 199 172 193 167 182 167 l 167 167 l 167 195 l 182 195 b 193 195 199 190 199 181 z m 279 162 b 279 179 268 190 252 190 b 237 190 225 179 225 163 b 225 147 236 135 254 135 b 263 135 271 138 275 144 l 269 152 b 265 148 260 146 254 146 b 245 146 239 151 237 159 l 279 159 b 279 160 279 161 279 162 z m 252 180 b 260 180 266 175 267 167 l 237 167 b 238 175 244 180 252 180 z m 314 190 b 305 190 297 188 291 183 l 296 174 b 300 178 306 180 312 180 b 321 180 325 175 325 168 l 325 167 l 312 167 b 296 167 290 160 290 151 b 290 142 297 135 309 135 b 317 135 323 138 326 143 l 326 136 l 338 136 l 338 167 b 338 183 329 190 314 190 z m 312 144 b 306 144 302 147 302 152 b 302 156 304 159 312 159 l 325 159 l 325 153 b 323 147 318 144 312 144 z m 383 135 b 393 135 401 140 405 148 l 396 153 b 392 148 388 146 382 146 b 373 146 366 152 366 163 b 366 173 373 179 382 179 b 388 179 392 177 396 172 l 405 178 b 401 186 393 190 383 190 b 366 190 354 179 354 163 b 354 147 366 135 383 135 z m 449 190 b 442 190 436 188 432 183 l 432 210 l 419 210 l 419 136 l 432 136 l 432 163 b 432 174 438 179 446 179 b 454 179 459 175 459 165 l 459 136 l 471 136 l 471 167 b 471 183 462 190 449 190 z m 589 190 b 581 190 574 187 570 181 b 566 187 560 190 552 190 b 545 190 539 187 535 183 l 535 189 l 523 189 l 523 136 l 535 136 l 535 163 b 535 174 541 179 549 179 b 557 179 561 175 561 165 l 561 136 l 573 136 l 573 163 b 573 174 579 179 587 179 b 594 179 599 175 599 165 l 599 136 l 611 136 l 611 167 b 611 183 602 190 589 190 z m 681 162 b 681 179 670 190 655 190 b 639 190 628 179 628 163 b 628 147 639 135 657 135 b 666 135 673 138 678 144 l 671 152 b 667 148 663 146 657 146 b 648 146 641 151 640 159 l 681 159 b 681 160 681 161 681 162 z m 655 180 b 663 180 669 175 670 167 l 640 167 b 641 175 647 180 655 180 z m 758 190 b 752 190 746 188 741 183 l 741 210 l 729 210 l 729 136 l 741 136 l 741 143 b 745 138 751 135 758 135 b 774 135 785 146 785 163 b 785 179 774 190 758 190 z m 757 146 b 748 146 741 153 741 163 b 741 173 748 179 757 179 b 766 179 773 173 773 163 b 773 153 766 146 757 146 z m 837 189 l 820 150 l 804 189 l 791 189 l 814 136 l 813 134 b 811 129 808 126 804 126 b 801 126 797 128 795 130 l 790 121 b 793 118 799 116 804 116 b 813 116 819 120 824 132 l 849 189 z m 942 162 b 942 179 931 190 916 190 b 900 190 888 179 888 163 b 888 147 900 135 917 135 b 927 135 934 138 939 144 l 932 152 b 928 148 924 146 918 146 b 909 146 902 151 901 159 l 942 159 b 942 160 942 161 942 162 z m 916 180 b 924 180 929 175 930 167 l 901 167 b 902 175 908 180 916 180 z m 1025 190 b 1016 190 1009 187 1005 181 b 1001 187 995 190 987 190 b 980 190 974 187 970 183 l 970 189 l 958 189 l 958 136 l 971 136 l 971 163 b 971 174 976 179 984 179 b 992 179 996 175 996 165 l 996 136 l 1009 136 l 1009 163 b 1009 174 1014 179 1022 179 b 1030 179 1034 175 1034 165 l 1034 136 l 1046 136 l 1046 167 b 1046 183 1038 190 1025 190 z m 1087 190 b 1078 190 1070 188 1064 183 l 1069 174 b 1073 178 1079 180 1085 180 b 1094 180 1098 175 1098 168 l 1098 167 l 1085 167 b 1069 167 1063 160 1063 151 b 1063 142 1070 135 1082 135 b 1090 135 1096 138 1099 143 l 1099 136 l 1111 136 l 1111 167 b 1111 183 1102 190 1087 190 z m 1085 144 b 1079 144 1075 147 1075 152 b 1075 156 1077 159 1086 159 l 1098 159 l 1098 153 b 1096 147 1091 144 1085 144 z m 1137 198 b 1142 198 1145 202 1145 206 b 1145 210 1142 213 1137 213 b 1133 213 1129 210 1129 206 b 1129 201 1133 198 1137 198 z m 1131 136 l 1143 136 l 1143 189 l 1131 189 z m 1164 136 l 1176 136 l 1176 210 l 1164 210 z m 108 19 l 130 45 l 130 58 l 81 58 l 81 41 l 102 41 l 80 16 l 80 3 l 132 3 l 132 19 z m 199 30 b 199 49 186 59 170 59 b 152 59 139 47 139 30 b 139 14 152 2 172 2 b 183 2 190 5 195 11 l 184 23 b 180 20 178 19 173 19 b 167 19 163 21 162 25 l 199 25 b 199 27 199 29 199 30 z m 170 43 b 175 43 178 40 179 36 l 161 36 b 162 40 165 43 170 43 z m 268 30 b 268 49 255 59 239 59 b 221 59 208 47 208 30 b 208 14 221 2 241 2 b 251 2 259 5 264 11 l 253 23 b 249 20 246 19 241 19 b 236 19 232 21 231 25 l 268 25 b 268 27 268 29 268 30 z m 239 43 b 243 43 247 40 247 36 l 230 36 b 231 40 234 43 239 43 z m 317 59 b 311 59 305 56 301 52 l 301 58 l 280 58 l 280 3 l 302 3 l 302 29 b 302 37 306 40 310 40 b 314 40 317 37 317 30 l 317 3 l 339 3 l 339 34 b 339 51 330 59 317 59 z m 412 30 b 412 49 398 59 382 59 b 364 59 351 47 351 30 b 351 14 364 2 384 2 b 395 2 402 5 408 11 l 396 23 b 392 20 390 19 385 19 b 379 19 375 21 374 25 l 411 25 b 411 27 412 29 412 30 z m 382 43 b 387 43 390 40 391 36 l 373 36 b 374 40 377 43 382 43 z m 444 2 b 463 2 472 10 472 20 b 472 42 441 35 441 41 b 441 42 443 43 448 43 b 453 43 458 42 464 39 l 470 54 b 464 57 456 59 448 59 b 430 59 420 50 420 40 b 420 18 451 25 451 20 b 451 18 450 17 445 17 b 438 17 431 19 426 22 l 420 7 b 425 4 435 2 444 2 z m 494 62 b 502 62 508 67 508 74 b 508 80 502 85 494 85 b 486 85 481 80 481 73 b 481 67 486 62 494 62 z m 483 3 l 505 3 l 505 58 l 483 58 z m 544 59 b 535 59 526 56 520 52 l 527 37 b 530 40 536 42 540 42 b 547 42 550 40 551 35 l 542 35 b 525 35 517 29 517 19 b 517 9 524 2 537 2 b 545 2 550 5 552 10 l 552 3 l 573 3 l 573 32 b 573 50 562 59 544 59 z m 544 15 b 540 15 538 17 538 20 b 538 23 540 24 545 24 l 551 24 l 551 21 b 550 17 547 15 544 15 z m 634 74 b 604 74 585 54 585 28 b 585 2 604 -18 634 -18 b 642 -18 652 -16 658 -13 l 654 -1 b 647 -4 640 -5 634 -5 b 614 -5 600 9 600 28 b 600 47 614 62 634 62 b 654 62 668 49 668 31 b 668 19 665 17 663 17 b 661 17 659 18 659 22 l 659 51 l 640 51 l 640 47 b 637 50 633 52 628 52 b 617 52 607 42 607 27 b 607 11 617 2 628 2 b 635 2 640 5 643 11 b 646 5 651 2 658 2 b 671 2 682 12 682 31 b 682 55 662 74 634 74 z m 633 18 b 629 18 626 21 626 27 b 626 33 629 36 633 36 b 637 36 640 33 640 27 b 640 21 637 18 633 18 z m 733 58 l 733 51 b 729 56 724 59 717 59 b 703 59 691 48 691 32 b 691 16 703 6 717 6 b 723 6 728 8 732 12 l 732 11 b 732 3 728 -1 719 -1 b 713 -1 706 1 702 5 l 694 -11 b 701 -15 711 -17 721 -17 b 742 -17 754 -7 754 14 l 754 58 z m 723 23 b 718 23 713 27 713 32 b 713 38 718 41 723 41 b 728 41 732 38 732 32 b 732 27 728 23 723 23 z m 840 59 b 832 59 826 56 822 50 b 818 56 812 59 805 59 b 799 59 794 57 789 52 l 789 58 l 768 58 l 768 3 l 791 3 l 791 30 b 791 37 794 40 798 40 b 801 40 804 37 804 30 l 804 3 l 826 3 l 826 30 b 826 37 829 40 833 40 b 836 40 839 37 839 30 l 839 3 l 861 3 l 861 34 b 861 51 852 59 840 59 z m 899 59 b 891 59 881 56 875 52 l 882 37 b 886 40 891 42 896 42 b 902 42 905 40 906 35 l 897 35 b 880 35 873 29 873 19 b 873 9 879 2 893 2 b 900 2 905 5 908 10 l 908 3 l 928 3 l 928 32 b 928 50 918 59 899 59 z m 899 15 b 896 15 894 17 894 20 b 894 23 896 24 901 24 l 906 24 l 906 21 b 905 17 902 15 899 15 z m 954 62 b 962 62 967 67 967 74 b 967 80 962 85 954 85 b 946 85 940 80 940 73 b 940 67 946 62 954 62 z m 943 3 l 965 3 l 965 58 l 943 58 z m 979 3 l 1001 3 l 1001 77 l 979 77 z m 1026 2 b 1033 2 1039 7 1039 15 b 1039 23 1033 28 1026 28 b 1018 28 1013 23 1013 15 b 1013 7 1018 2 1026 2 z m 1079 2 b 1092 2 1102 8 1106 18 l 1089 27 b 1086 22 1083 19 1079 19 b 1074 19 1070 23 1070 30 b 1070 37 1074 41 1079 41 b 1083 41 1086 39 1089 34 l 1106 42 b 1102 52 1092 59 1079 59 b 1061 59 1047 47 1047 30 b 1047 14 1061 2 1079 2 z m 1143 2 b 1162 2 1175 14 1175 30 b 1175 47 1162 59 1143 59 b 1125 59 1112 47 1112 30 b 1112 14 1125 2 1143 2 z m 1143 19 b 1138 19 1135 23 1135 30 b 1135 37 1138 41 1143 41 b 1148 41 1152 37 1152 30 b 1152 23 1148 19 1143 19 z m 1257 59 b 1250 59 1244 56 1239 50 b 1236 56 1230 59 1223 59 b 1217 59 1211 57 1207 52 l 1207 58 l 1186 58 l 1186 3 l 1208 3 l 1208 30 b 1208 37 1211 40 1215 40 b 1219 40 1221 37 1221 30 l 1221 3 l 1244 3 l 1244 30 b 1244 37 1247 40 1251 40 b 1254 40 1257 37 1257 30 l 1257 3 l 1279 3 l 1279 34 b 1279 51 1270 59 1257 59 z m 180 -78 l 180 -60 l 124 -60 l 124 -130 l 147 -130 l 147 -108 l 176 -108 l 176 -90 l 147 -90 l 147 -78 z m 219 -131 b 237 -131 250 -120 250 -103 b 250 -86 237 -75 219 -75 b 201 -75 188 -86 188 -103 b 188 -120 201 -131 219 -131 z m 219 -114 b 214 -114 210 -110 210 -103 b 210 -96 214 -92 219 -92 b 224 -92 228 -96 228 -103 b 228 -110 224 -114 219 -114 z m 283 -82 l 283 -76 l 262 -76 l 262 -130 l 284 -130 l 284 -106 b 284 -97 289 -94 295 -94 b 297 -94 298 -94 300 -95 l 300 -75 b 293 -75 287 -77 283 -82 z m 384 -76 l 384 -82 b 381 -77 376 -75 368 -75 b 354 -75 342 -85 342 -101 b 342 -117 354 -127 368 -127 b 375 -127 380 -125 383 -121 l 383 -122 b 383 -130 379 -134 370 -134 b 364 -134 357 -132 353 -128 l 346 -144 b 352 -148 362 -151 373 -151 b 393 -151 405 -141 405 -119 l 405 -76 z m 374 -110 b 369 -110 365 -106 365 -101 b 365 -96 369 -92 374 -92 b 379 -92 383 -96 383 -101 b 383 -106 379 -110 374 -110 z m 477 -103 b 477 -84 463 -75 447 -75 b 430 -75 417 -86 417 -103 b 417 -119 430 -131 449 -131 b 460 -131 468 -128 473 -122 l 461 -111 b 458 -113 455 -115 450 -115 b 445 -115 441 -112 439 -108 l 477 -108 b 477 -107 477 -105 477 -103 z m 448 -90 b 452 -90 455 -93 456 -97 l 439 -97 b 440 -93 443 -90 448 -90 z m 523 -113 b 521 -114 520 -114 518 -114 b 515 -114 513 -112 513 -109 l 513 -95 l 524 -95 l 524 -79 l 513 -79 l 513 -63 l 491 -63 l 491 -79 l 483 -79 l 483 -95 l 491 -95 l 491 -109 b 491 -124 500 -131 514 -131 b 520 -131 525 -130 528 -128 z m 629 -78 l 629 -60 l 573 -60 l 573 -130 l 596 -130 l 596 -108 l 625 -108 l 625 -90 l 596 -90 l 596 -78 z m 676 -76 l 676 -101 b 676 -109 672 -112 669 -112 b 664 -112 662 -110 662 -102 l 662 -76 l 639 -76 l 639 -106 b 639 -124 649 -131 662 -131 b 668 -131 673 -129 677 -125 l 677 -130 l 698 -130 l 698 -76 z m 713 -130 l 735 -130 l 735 -56 l 713 -56 z m 749 -130 l 772 -130 l 772 -56 l 749 -56 z m 872 -60 l 855 -101 l 838 -60 l 813 -60 l 842 -130 l 865 -130 l 894 -60 z m 954 -103 b 954 -84 940 -75 924 -75 b 907 -75 894 -86 894 -103 b 894 -119 906 -131 926 -131 b 937 -131 945 -128 950 -122 l 938 -111 b 935 -113 932 -115 927 -115 b 921 -115 918 -112 916 -108 l 954 -108 b 954 -107 954 -105 954 -103 z m 924 -90 b 929 -90 932 -93 933 -97 l 916 -97 b 917 -93 920 -90 924 -90 z m 986 -82 l 986 -76 l 965 -76 l 965 -130 l 987 -130 l 987 -106 b 987 -97 992 -94 999 -94 b 1001 -94 1002 -94 1004 -95 l 1004 -75 b 996 -75 990 -77 986 -82 z m 1036 -131 b 1054 -131 1064 -123 1064 -113 b 1064 -91 1033 -98 1033 -93 b 1033 -91 1034 -90 1040 -90 b 1044 -90 1050 -91 1055 -94 l 1062 -79 b 1056 -76 1047 -75 1040 -75 b 1021 -75 1012 -83 1012 -93 b 1012 -115 1043 -108 1043 -113 b 1043 -115 1042 -116 1036 -116 b 1030 -116 1022 -114 1017 -111 l 1011 -126 b 1017 -129 1026 -131 1036 -131 z m 1086 -71 b 1094 -71 1099 -66 1099 -59 b 1099 -53 1094 -48 1086 -48 b 1078 -48 1072 -53 1072 -60 b 1072 -66 1078 -71 1086 -71 z m 1075 -130 l 1097 -130 l 1097 -76 l 1075 -76 z m 1140 -131 b 1158 -131 1171 -120 1171 -103 b 1171 -86 1158 -75 1140 -75 b 1122 -75 1108 -86 1108 -103 b 1108 -120 1122 -131 1140 -131 z m 1140 -114 b 1135 -114 1131 -110 1131 -103 b 1131 -96 1135 -92 1140 -92 b 1145 -92 1149 -96 1149 -103 b 1149 -110 1145 -114 1140 -114 z m 1220 -75 b 1214 -75 1208 -77 1204 -81 l 1204 -76 l 1183 -76 l 1183 -130 l 1205 -130 l 1205 -105 b 1205 -97 1209 -94 1213 -94 b 1217 -94 1220 -96 1220 -103 l 1220 -130 l 1242 -130 l 1242 -99 b 1242 -82 1232 -75 1220 -75 z m 77 256 l 1282 256 l 1282 249 l 77 249 z"},"r":{"x_min":0,"x_max":417,"ha":417,"o":"m 250 239 b 248 234 247 230 248 226 b 249 207 268 189 303 173 b 345 238 366 284 364 309 b 361 349 333 395 291 402 l 288 402 b 243 402 167 333 138 298 b 148 329 153 355 151 376 b 150 395 144 411 132 423 b 120 435 112 440 106 440 b 101 440 98 435 96 423 b 91 400 78 368 55 326 l 22 262 b -2 212 -37 118 -33 63 b -31 38 -18 19 6 4 b 14 0 20 -3 25 -3 b 32 -3 39 6 45 24 b 64 104 100 171 154 227 b 208 282 251 315 283 327 l 272 301 b 266 284 259 265 251 244 z"},"2":{"x_min":0,"x_max":1374,"ha":1374,"o":"m 146 563 b 183 563 212 593 212 630 b 212 668 184 697 147 697 b 109 697 81 667 81 630 b 81 593 109 563 146 563 z m 146 580 b 119 580 98 602 98 630 b 98 658 119 680 147 680 b 175 680 195 659 195 630 b 195 602 174 580 146 580 z m 149 593 b 166 593 178 601 183 614 l 159 626 b 157 621 153 619 149 619 b 144 619 140 623 140 630 b 140 638 144 641 149 641 b 153 641 157 639 159 634 l 183 646 b 178 659 166 668 149 668 b 126 668 109 652 109 630 b 109 608 126 593 149 593 z m 288 599 l 348 669 l 348 696 l 233 696 l 233 662 l 290 662 l 231 591 l 231 564 l 351 564 l 351 599 z m 415 598 l 415 615 l 470 615 l 470 647 l 415 647 l 415 663 l 478 663 l 478 696 l 372 696 l 372 564 l 480 564 l 480 598 z m 549 598 l 549 615 l 604 615 l 604 647 l 549 647 l 549 663 l 611 663 l 611 696 l 506 696 l 506 564 l 614 564 l 614 598 z m 725 696 l 725 636 l 675 696 l 639 696 l 639 564 l 682 564 l 682 624 l 732 564 l 768 564 l 768 696 z m 841 598 l 841 615 l 896 615 l 896 647 l 841 647 l 841 663 l 903 663 l 903 696 l 797 696 l 797 564 l 906 564 l 906 598 z m 980 561 b 1020 561 1040 581 1040 606 b 1040 654 968 641 968 657 b 968 661 973 665 985 665 b 997 665 1009 662 1022 655 l 1035 688 b 1021 696 1003 699 986 699 b 945 699 925 679 925 655 b 925 605 997 619 997 602 b 997 598 993 595 980 595 b 966 595 949 600 937 607 l 923 575 b 936 566 958 561 980 561 z m 1062 564 l 1106 564 l 1106 696 l 1062 696 z m 1233 564 l 1278 564 l 1221 696 l 1178 696 l 1121 564 l 1166 564 l 1174 587 l 1224 587 z m 1187 619 l 1199 652 l 1212 619 z m 261 426 l 284 426 l 284 478 l 304 478 l 304 496 l 241 496 l 241 478 l 261 478 z m 360 496 l 360 472 l 338 472 l 338 496 l 315 496 l 315 426 l 338 426 l 338 452 l 360 452 l 360 426 l 383 426 l 383 496 z m 399 426 l 422 426 l 422 496 l 399 496 z m 463 425 b 485 425 495 436 495 448 b 495 474 457 467 457 476 b 457 478 459 480 466 480 b 472 480 479 478 485 475 l 492 492 b 485 496 476 498 466 498 b 445 498 434 487 434 474 b 434 448 472 455 472 447 b 472 444 470 443 463 443 b 456 443 447 445 441 449 l 433 432 b 440 428 452 425 463 425 z m 597 479 l 597 496 l 541 496 l 541 426 l 564 426 l 564 449 l 593 449 l 593 467 l 564 467 l 564 479 z m 644 425 b 667 425 683 440 683 461 b 683 483 667 498 644 498 b 622 498 605 483 605 461 b 605 440 622 425 644 425 z m 644 444 b 636 444 629 450 629 461 b 629 472 636 479 644 479 b 653 479 660 472 660 461 b 660 450 653 444 644 444 z m 741 496 l 741 465 l 715 496 l 696 496 l 696 426 l 719 426 l 719 458 l 745 426 l 764 426 l 764 496 z m 795 426 l 818 426 l 818 478 l 838 478 l 838 496 l 775 496 l 775 478 l 795 478 z m 939 479 l 939 496 l 883 496 l 883 426 l 906 426 l 906 449 l 935 449 l 935 467 l 906 467 l 906 479 z m 987 425 b 1009 425 1026 440 1026 461 b 1026 483 1009 498 987 498 b 964 498 948 483 948 461 b 948 440 964 425 987 425 z m 987 444 b 978 444 971 450 971 461 b 971 472 978 479 987 479 b 995 479 1002 472 1002 461 b 1002 450 995 444 987 444 z m 1080 426 l 1105 426 l 1090 448 b 1098 452 1103 460 1103 470 b 1103 486 1091 496 1072 496 l 1038 496 l 1038 426 l 1062 426 l 1062 444 l 1068 444 z m 1080 470 b 1080 465 1077 462 1070 462 l 1062 462 l 1062 478 l 1070 478 b 1077 478 1080 475 1080 470 z m 111 380 l 78 380 l 78 310 l 101 310 l 101 327 l 111 327 b 131 327 143 338 143 354 b 143 370 131 380 111 380 z m 110 346 l 101 346 l 101 362 l 110 362 b 116 362 119 359 119 354 b 119 349 116 346 110 346 z m 178 328 l 178 337 l 207 337 l 207 354 l 178 354 l 178 362 l 211 362 l 211 380 l 155 380 l 155 310 l 212 310 l 212 328 z m 267 310 l 292 310 l 277 332 b 286 336 290 344 290 354 b 290 370 278 380 259 380 l 226 380 l 226 310 l 249 310 l 249 328 l 255 328 z m 267 354 b 267 349 264 346 257 346 l 249 346 l 249 362 l 257 362 b 264 362 267 359 267 354 z m 329 309 b 351 309 361 320 361 332 b 361 358 323 351 323 359 b 323 362 325 364 332 364 b 338 364 345 362 351 359 l 358 376 b 351 380 342 382 332 382 b 311 382 300 371 300 358 b 300 332 338 339 338 330 b 338 328 336 327 329 327 b 322 327 313 329 307 333 l 299 316 b 306 312 318 309 329 309 z m 409 309 b 431 309 448 324 448 345 b 448 366 431 382 409 382 b 386 382 370 366 370 345 b 370 324 386 309 409 309 z m 409 328 b 400 328 393 334 393 345 b 393 356 400 363 409 363 b 417 363 424 356 424 345 b 424 334 417 328 409 328 z m 506 380 l 506 348 l 480 380 l 461 380 l 461 310 l 483 310 l 483 342 l 510 310 l 529 310 l 529 380 z m 596 310 l 620 310 l 590 380 l 567 380 l 537 310 l 561 310 l 565 323 l 591 323 z m 572 339 l 578 357 l 585 339 z m 628 310 l 683 310 l 683 329 l 652 329 l 652 380 l 628 380 z m 761 309 b 782 309 794 321 794 342 l 794 380 l 772 380 l 772 342 b 772 332 768 328 761 328 b 755 328 751 332 751 342 l 751 380 l 727 380 l 727 342 b 727 321 740 309 761 309 z m 835 309 b 857 309 867 320 867 332 b 867 358 829 351 829 359 b 829 362 831 364 838 364 b 844 364 851 362 857 359 l 864 376 b 857 380 848 382 838 382 b 817 382 806 371 806 358 b 806 332 844 339 844 330 b 844 328 842 327 835 327 b 828 327 819 329 813 333 l 805 316 b 812 312 824 309 835 309 z m 902 328 l 902 337 l 931 337 l 931 354 l 902 354 l 902 362 l 935 362 l 935 380 l 879 380 l 879 310 l 936 310 l 936 328 z m 1020 309 b 1042 309 1059 324 1059 345 b 1059 366 1042 382 1020 382 b 997 382 981 366 981 345 b 981 324 997 309 1020 309 z m 1020 328 b 1011 328 1004 334 1004 345 b 1004 356 1011 363 1020 363 b 1028 363 1035 356 1035 345 b 1035 334 1028 328 1020 328 z m 1117 380 l 1117 348 l 1091 380 l 1072 380 l 1072 310 l 1094 310 l 1094 342 l 1121 310 l 1140 310 l 1140 380 z m 1155 310 l 1210 310 l 1210 329 l 1179 329 l 1179 380 l 1155 380 z m 1281 380 l 1258 380 l 1244 356 l 1230 380 l 1206 380 l 1232 336 l 1232 310 l 1255 310 l 1255 336 z m 213 136 l 197 159 b 206 163 212 171 212 181 b 212 197 201 206 182 206 l 154 206 l 154 136 l 167 136 l 167 156 l 182 156 b 183 156 184 156 185 157 l 199 136 z m 199 181 b 199 172 193 167 182 167 l 167 167 l 167 195 l 182 195 b 193 195 199 190 199 181 z m 279 162 b 279 179 268 190 252 190 b 237 190 225 179 225 163 b 225 147 236 135 254 135 b 263 135 271 138 275 144 l 269 152 b 265 148 260 146 254 146 b 245 146 239 151 237 159 l 279 159 b 279 160 279 161 279 162 z m 252 180 b 260 180 266 175 267 167 l 237 167 b 238 175 244 180 252 180 z m 314 190 b 305 190 297 188 291 183 l 296 174 b 300 178 306 180 312 180 b 321 180 325 175 325 168 l 325 167 l 312 167 b 296 167 290 160 290 151 b 290 142 297 135 309 135 b 317 135 323 138 326 143 l 326 136 l 338 136 l 338 167 b 338 183 329 190 314 190 z m 312 144 b 306 144 302 147 302 152 b 302 156 304 159 312 159 l 325 159 l 325 153 b 323 147 318 144 312 144 z m 383 135 b 393 135 401 140 405 148 l 396 153 b 392 148 388 146 382 146 b 373 146 366 152 366 163 b 366 173 373 179 382 179 b 388 179 392 177 396 172 l 405 178 b 401 186 393 190 383 190 b 366 190 354 179 354 163 b 354 147 366 135 383 135 z m 449 190 b 442 190 436 188 432 183 l 432 210 l 419 210 l 419 136 l 432 136 l 432 163 b 432 174 438 179 446 179 b 454 179 459 175 459 165 l 459 136 l 471 136 l 471 167 b 471 183 462 190 449 190 z m 589 190 b 581 190 574 187 570 181 b 566 187 560 190 552 190 b 545 190 539 187 535 183 l 535 189 l 523 189 l 523 136 l 535 136 l 535 163 b 535 174 541 179 549 179 b 557 179 561 175 561 165 l 561 136 l 573 136 l 573 163 b 573 174 579 179 587 179 b 594 179 599 175 599 165 l 599 136 l 611 136 l 611 167 b 611 183 602 190 589 190 z m 681 162 b 681 179 670 190 655 190 b 639 190 628 179 628 163 b 628 147 639 135 657 135 b 666 135 673 138 678 144 l 671 152 b 667 148 663 146 657 146 b 648 146 641 151 640 159 l 681 159 b 681 160 681 161 681 162 z m 655 180 b 663 180 669 175 670 167 l 640 167 b 641 175 647 180 655 180 z m 758 190 b 752 190 746 188 741 183 l 741 210 l 729 210 l 729 136 l 741 136 l 741 143 b 745 138 751 135 758 135 b 774 135 785 146 785 163 b 785 179 774 190 758 190 z m 757 146 b 748 146 741 153 741 163 b 741 173 748 179 757 179 b 766 179 773 173 773 163 b 773 153 766 146 757 146 z m 837 189 l 820 150 l 804 189 l 791 189 l 814 136 l 813 134 b 811 129 808 126 804 126 b 801 126 797 128 795 130 l 790 121 b 793 118 799 116 804 116 b 813 116 819 120 824 132 l 849 189 z m 942 162 b 942 179 931 190 916 190 b 900 190 888 179 888 163 b 888 147 900 135 917 135 b 927 135 934 138 939 144 l 932 152 b 928 148 924 146 918 146 b 909 146 902 151 901 159 l 942 159 b 942 160 942 161 942 162 z m 916 180 b 924 180 929 175 930 167 l 901 167 b 902 175 908 180 916 180 z m 1025 190 b 1016 190 1009 187 1005 181 b 1001 187 995 190 987 190 b 980 190 974 187 970 183 l 970 189 l 958 189 l 958 136 l 971 136 l 971 163 b 971 174 976 179 984 179 b 992 179 996 175 996 165 l 996 136 l 1009 136 l 1009 163 b 1009 174 1014 179 1022 179 b 1030 179 1034 175 1034 165 l 1034 136 l 1046 136 l 1046 167 b 1046 183 1038 190 1025 190 z m 1087 190 b 1078 190 1070 188 1064 183 l 1069 174 b 1073 178 1079 180 1085 180 b 1094 180 1098 175 1098 168 l 1098 167 l 1085 167 b 1069 167 1063 160 1063 151 b 1063 142 1070 135 1082 135 b 1090 135 1096 138 1099 143 l 1099 136 l 1111 136 l 1111 167 b 1111 183 1102 190 1087 190 z m 1085 144 b 1079 144 1075 147 1075 152 b 1075 156 1077 159 1086 159 l 1098 159 l 1098 153 b 1096 147 1091 144 1085 144 z m 1137 198 b 1142 198 1145 202 1145 206 b 1145 210 1142 213 1137 213 b 1133 213 1129 210 1129 206 b 1129 201 1133 198 1137 198 z m 1131 136 l 1143 136 l 1143 189 l 1131 189 z m 1164 136 l 1176 136 l 1176 210 l 1164 210 z m 108 19 l 130 45 l 130 58 l 81 58 l 81 41 l 102 41 l 80 16 l 80 3 l 132 3 l 132 19 z m 199 30 b 199 49 186 59 170 59 b 152 59 139 47 139 30 b 139 14 152 2 172 2 b 183 2 190 5 195 11 l 184 23 b 180 20 178 19 173 19 b 167 19 163 21 162 25 l 199 25 b 199 27 199 29 199 30 z m 170 43 b 175 43 178 40 179 36 l 161 36 b 162 40 165 43 170 43 z m 268 30 b 268 49 255 59 239 59 b 221 59 208 47 208 30 b 208 14 221 2 241 2 b 251 2 259 5 264 11 l 253 23 b 249 20 246 19 241 19 b 236 19 232 21 231 25 l 268 25 b 268 27 268 29 268 30 z m 239 43 b 243 43 247 40 247 36 l 230 36 b 231 40 234 43 239 43 z m 317 59 b 311 59 305 56 301 52 l 301 58 l 280 58 l 280 3 l 302 3 l 302 29 b 302 37 306 40 310 40 b 314 40 317 37 317 30 l 317 3 l 339 3 l 339 34 b 339 51 330 59 317 59 z m 412 30 b 412 49 398 59 382 59 b 364 59 351 47 351 30 b 351 14 364 2 384 2 b 395 2 402 5 408 11 l 396 23 b 392 20 390 19 385 19 b 379 19 375 21 374 25 l 411 25 b 411 27 412 29 412 30 z m 382 43 b 387 43 390 40 391 36 l 373 36 b 374 40 377 43 382 43 z m 444 2 b 463 2 472 10 472 20 b 472 42 441 35 441 41 b 441 42 443 43 448 43 b 453 43 458 42 464 39 l 470 54 b 464 57 456 59 448 59 b 430 59 420 50 420 40 b 420 18 451 25 451 20 b 451 18 450 17 445 17 b 438 17 431 19 426 22 l 420 7 b 425 4 435 2 444 2 z m 494 62 b 502 62 508 67 508 74 b 508 80 502 85 494 85 b 486 85 481 80 481 73 b 481 67 486 62 494 62 z m 483 3 l 505 3 l 505 58 l 483 58 z m 544 59 b 535 59 526 56 520 52 l 527 37 b 530 40 536 42 540 42 b 547 42 550 40 551 35 l 542 35 b 525 35 517 29 517 19 b 517 9 524 2 537 2 b 545 2 550 5 552 10 l 552 3 l 573 3 l 573 32 b 573 50 562 59 544 59 z m 544 15 b 540 15 538 17 538 20 b 538 23 540 24 545 24 l 551 24 l 551 21 b 550 17 547 15 544 15 z m 634 74 b 604 74 585 54 585 28 b 585 2 604 -18 634 -18 b 642 -18 652 -16 658 -13 l 654 -1 b 647 -4 640 -5 634 -5 b 614 -5 600 9 600 28 b 600 47 614 62 634 62 b 654 62 668 49 668 31 b 668 19 665 17 663 17 b 661 17 659 18 659 22 l 659 51 l 640 51 l 640 47 b 637 50 633 52 628 52 b 617 52 607 42 607 27 b 607 11 617 2 628 2 b 635 2 640 5 643 11 b 646 5 651 2 658 2 b 671 2 682 12 682 31 b 682 55 662 74 634 74 z m 633 18 b 629 18 626 21 626 27 b 626 33 629 36 633 36 b 637 36 640 33 640 27 b 640 21 637 18 633 18 z m 733 58 l 733 51 b 729 56 724 59 717 59 b 703 59 691 48 691 32 b 691 16 703 6 717 6 b 723 6 728 8 732 12 l 732 11 b 732 3 728 -1 719 -1 b 713 -1 706 1 702 5 l 694 -11 b 701 -15 711 -17 721 -17 b 742 -17 754 -7 754 14 l 754 58 z m 723 23 b 718 23 713 27 713 32 b 713 38 718 41 723 41 b 728 41 732 38 732 32 b 732 27 728 23 723 23 z m 840 59 b 832 59 826 56 822 50 b 818 56 812 59 805 59 b 799 59 794 57 789 52 l 789 58 l 768 58 l 768 3 l 791 3 l 791 30 b 791 37 794 40 798 40 b 801 40 804 37 804 30 l 804 3 l 826 3 l 826 30 b 826 37 829 40 833 40 b 836 40 839 37 839 30 l 839 3 l 861 3 l 861 34 b 861 51 852 59 840 59 z m 899 59 b 891 59 881 56 875 52 l 882 37 b 886 40 891 42 896 42 b 902 42 905 40 906 35 l 897 35 b 880 35 873 29 873 19 b 873 9 879 2 893 2 b 900 2 905 5 908 10 l 908 3 l 928 3 l 928 32 b 928 50 918 59 899 59 z m 899 15 b 896 15 894 17 894 20 b 894 23 896 24 901 24 l 906 24 l 906 21 b 905 17 902 15 899 15 z m 954 62 b 962 62 967 67 967 74 b 967 80 962 85 954 85 b 946 85 940 80 940 73 b 940 67 946 62 954 62 z m 943 3 l 965 3 l 965 58 l 943 58 z m 979 3 l 1001 3 l 1001 77 l 979 77 z m 1026 2 b 1033 2 1039 7 1039 15 b 1039 23 1033 28 1026 28 b 1018 28 1013 23 1013 15 b 1013 7 1018 2 1026 2 z m 1079 2 b 1092 2 1102 8 1106 18 l 1089 27 b 1086 22 1083 19 1079 19 b 1074 19 1070 23 1070 30 b 1070 37 1074 41 1079 41 b 1083 41 1086 39 1089 34 l 1106 42 b 1102 52 1092 59 1079 59 b 1061 59 1047 47 1047 30 b 1047 14 1061 2 1079 2 z m 1143 2 b 1162 2 1175 14 1175 30 b 1175 47 1162 59 1143 59 b 1125 59 1112 47 1112 30 b 1112 14 1125 2 1143 2 z m 1143 19 b 1138 19 1135 23 1135 30 b 1135 37 1138 41 1143 41 b 1148 41 1152 37 1152 30 b 1152 23 1148 19 1143 19 z m 1257 59 b 1250 59 1244 56 1239 50 b 1236 56 1230 59 1223 59 b 1217 59 1211 57 1207 52 l 1207 58 l 1186 58 l 1186 3 l 1208 3 l 1208 30 b 1208 37 1211 40 1215 40 b 1219 40 1221 37 1221 30 l 1221 3 l 1244 3 l 1244 30 b 1244 37 1247 40 1251 40 b 1254 40 1257 37 1257 30 l 1257 3 l 1279 3 l 1279 34 b 1279 51 1270 59 1257 59 z m 180 -78 l 180 -60 l 124 -60 l 124 -130 l 147 -130 l 147 -108 l 176 -108 l 176 -90 l 147 -90 l 147 -78 z m 219 -131 b 237 -131 250 -120 250 -103 b 250 -86 237 -75 219 -75 b 201 -75 188 -86 188 -103 b 188 -120 201 -131 219 -131 z m 219 -114 b 214 -114 210 -110 210 -103 b 210 -96 214 -92 219 -92 b 224 -92 228 -96 228 -103 b 228 -110 224 -114 219 -114 z m 283 -82 l 283 -76 l 262 -76 l 262 -130 l 284 -130 l 284 -106 b 284 -97 289 -94 295 -94 b 297 -94 298 -94 300 -95 l 300 -75 b 293 -75 287 -77 283 -82 z m 384 -76 l 384 -82 b 381 -77 376 -75 368 -75 b 354 -75 342 -85 342 -101 b 342 -117 354 -127 368 -127 b 375 -127 380 -125 383 -121 l 383 -122 b 383 -130 379 -134 370 -134 b 364 -134 357 -132 353 -128 l 346 -144 b 352 -148 362 -151 373 -151 b 393 -151 405 -141 405 -119 l 405 -76 z m 374 -110 b 369 -110 365 -106 365 -101 b 365 -96 369 -92 374 -92 b 379 -92 383 -96 383 -101 b 383 -106 379 -110 374 -110 z m 477 -103 b 477 -84 463 -75 447 -75 b 430 -75 417 -86 417 -103 b 417 -119 430 -131 449 -131 b 460 -131 468 -128 473 -122 l 461 -111 b 458 -113 455 -115 450 -115 b 445 -115 441 -112 439 -108 l 477 -108 b 477 -107 477 -105 477 -103 z m 448 -90 b 452 -90 455 -93 456 -97 l 439 -97 b 440 -93 443 -90 448 -90 z m 523 -113 b 521 -114 520 -114 518 -114 b 515 -114 513 -112 513 -109 l 513 -95 l 524 -95 l 524 -79 l 513 -79 l 513 -63 l 491 -63 l 491 -79 l 483 -79 l 483 -95 l 491 -95 l 491 -109 b 491 -124 500 -131 514 -131 b 520 -131 525 -130 528 -128 z m 629 -78 l 629 -60 l 573 -60 l 573 -130 l 596 -130 l 596 -108 l 625 -108 l 625 -90 l 596 -90 l 596 -78 z m 676 -76 l 676 -101 b 676 -109 672 -112 669 -112 b 664 -112 662 -110 662 -102 l 662 -76 l 639 -76 l 639 -106 b 639 -124 649 -131 662 -131 b 668 -131 673 -129 677 -125 l 677 -130 l 698 -130 l 698 -76 z m 713 -130 l 735 -130 l 735 -56 l 713 -56 z m 749 -130 l 772 -130 l 772 -56 l 749 -56 z m 872 -60 l 855 -101 l 838 -60 l 813 -60 l 842 -130 l 865 -130 l 894 -60 z m 954 -103 b 954 -84 940 -75 924 -75 b 907 -75 894 -86 894 -103 b 894 -119 906 -131 926 -131 b 937 -131 945 -128 950 -122 l 938 -111 b 935 -113 932 -115 927 -115 b 921 -115 918 -112 916 -108 l 954 -108 b 954 -107 954 -105 954 -103 z m 924 -90 b 929 -90 932 -93 933 -97 l 916 -97 b 917 -93 920 -90 924 -90 z m 986 -82 l 986 -76 l 965 -76 l 965 -130 l 987 -130 l 987 -106 b 987 -97 992 -94 999 -94 b 1001 -94 1002 -94 1004 -95 l 1004 -75 b 996 -75 990 -77 986 -82 z m 1036 -131 b 1054 -131 1064 -123 1064 -113 b 1064 -91 1033 -98 1033 -93 b 1033 -91 1034 -90 1040 -90 b 1044 -90 1050 -91 1055 -94 l 1062 -79 b 1056 -76 1047 -75 1040 -75 b 1021 -75 1012 -83 1012 -93 b 1012 -115 1043 -108 1043 -113 b 1043 -115 1042 -116 1036 -116 b 1030 -116 1022 -114 1017 -111 l 1011 -126 b 1017 -129 1026 -131 1036 -131 z m 1086 -71 b 1094 -71 1099 -66 1099 -59 b 1099 -53 1094 -48 1086 -48 b 1078 -48 1072 -53 1072 -60 b 1072 -66 1078 -71 1086 -71 z m 1075 -130 l 1097 -130 l 1097 -76 l 1075 -76 z m 1140 -131 b 1158 -131 1171 -120 1171 -103 b 1171 -86 1158 -75 1140 -75 b 1122 -75 1108 -86 1108 -103 b 1108 -120 1122 -131 1140 -131 z m 1140 -114 b 1135 -114 1131 -110 1131 -103 b 1131 -96 1135 -92 1140 -92 b 1145 -92 1149 -96 1149 -103 b 1149 -110 1145 -114 1140 -114 z m 1220 -75 b 1214 -75 1208 -77 1204 -81 l 1204 -76 l 1183 -76 l 1183 -130 l 1205 -130 l 1205 -105 b 1205 -97 1209 -94 1213 -94 b 1217 -94 1220 -96 1220 -103 l 1220 -130 l 1242 -130 l 1242 -99 b 1242 -82 1232 -75 1220 -75 z m 77 256 l 1282 256 l 1282 249 l 77 249 z"},"{":{"x_min":0,"x_max":272,"ha":272,"o":"m 94 -1 b 101 -1 106 -1 110 1 b 117 3 120 7 120 12 b 120 16 116 19 110 22 b 95 29 92 46 92 62 b 92 73 94 87 98 104 b 104 124 110 146 118 169 b 132 213 139 241 141 251 l 141 261 b 141 299 124 323 90 340 b 122 357 142 411 149 500 b 157 590 171 644 194 662 b 206 671 216 677 224 680 b 232 684 236 687 236 691 b 236 696 232 701 224 708 b 216 714 205 719 191 721 l 187 721 b 172 721 156 714 138 700 b 118 684 102 659 92 625 b 83 586 78 545 78 503 b 76 464 73 438 69 423 b 62 404 56 390 49 382 b 42 374 31 368 18 363 b 12 361 8 359 6 358 b 3 356 2 354 2 350 b 2 342 14 333 39 322 b 60 314 70 302 70 283 b 70 274 67 262 63 247 b 46 198 25 131 24 80 b 27 25 51 -1 94 -1 z"},"9":{"x_min":0,"x_max":1374,"ha":1374,"o":"m 146 563 b 183 563 212 593 212 630 b 212 668 184 697 147 697 b 109 697 81 667 81 630 b 81 593 109 563 146 563 z m 146 580 b 119 580 98 602 98 630 b 98 658 119 680 147 680 b 175 680 195 659 195 630 b 195 602 174 580 146 580 z m 149 593 b 166 593 178 601 183 614 l 159 626 b 157 621 153 619 149 619 b 144 619 140 623 140 630 b 140 638 144 641 149 641 b 153 641 157 639 159 634 l 183 646 b 178 659 166 668 149 668 b 126 668 109 652 109 630 b 109 608 126 593 149 593 z m 288 599 l 348 669 l 348 696 l 233 696 l 233 662 l 290 662 l 231 591 l 231 564 l 351 564 l 351 599 z m 415 598 l 415 615 l 470 615 l 470 647 l 415 647 l 415 663 l 478 663 l 478 696 l 372 696 l 372 564 l 480 564 l 480 598 z m 549 598 l 549 615 l 604 615 l 604 647 l 549 647 l 549 663 l 611 663 l 611 696 l 506 696 l 506 564 l 614 564 l 614 598 z m 725 696 l 725 636 l 675 696 l 639 696 l 639 564 l 682 564 l 682 624 l 732 564 l 768 564 l 768 696 z m 841 598 l 841 615 l 896 615 l 896 647 l 841 647 l 841 663 l 903 663 l 903 696 l 797 696 l 797 564 l 906 564 l 906 598 z m 980 561 b 1020 561 1040 581 1040 606 b 1040 654 968 641 968 657 b 968 661 973 665 985 665 b 997 665 1009 662 1022 655 l 1035 688 b 1021 696 1003 699 986 699 b 945 699 925 679 925 655 b 925 605 997 619 997 602 b 997 598 993 595 980 595 b 966 595 949 600 937 607 l 923 575 b 936 566 958 561 980 561 z m 1062 564 l 1106 564 l 1106 696 l 1062 696 z m 1233 564 l 1278 564 l 1221 696 l 1178 696 l 1121 564 l 1166 564 l 1174 587 l 1224 587 z m 1187 619 l 1199 652 l 1212 619 z m 261 426 l 284 426 l 284 478 l 304 478 l 304 496 l 241 496 l 241 478 l 261 478 z m 360 496 l 360 472 l 338 472 l 338 496 l 315 496 l 315 426 l 338 426 l 338 452 l 360 452 l 360 426 l 383 426 l 383 496 z m 399 426 l 422 426 l 422 496 l 399 496 z m 463 425 b 485 425 495 436 495 448 b 495 474 457 467 457 476 b 457 478 459 480 466 480 b 472 480 479 478 485 475 l 492 492 b 485 496 476 498 466 498 b 445 498 434 487 434 474 b 434 448 472 455 472 447 b 472 444 470 443 463 443 b 456 443 447 445 441 449 l 433 432 b 440 428 452 425 463 425 z m 597 479 l 597 496 l 541 496 l 541 426 l 564 426 l 564 449 l 593 449 l 593 467 l 564 467 l 564 479 z m 644 425 b 667 425 683 440 683 461 b 683 483 667 498 644 498 b 622 498 605 483 605 461 b 605 440 622 425 644 425 z m 644 444 b 636 444 629 450 629 461 b 629 472 636 479 644 479 b 653 479 660 472 660 461 b 660 450 653 444 644 444 z m 741 496 l 741 465 l 715 496 l 696 496 l 696 426 l 719 426 l 719 458 l 745 426 l 764 426 l 764 496 z m 795 426 l 818 426 l 818 478 l 838 478 l 838 496 l 775 496 l 775 478 l 795 478 z m 939 479 l 939 496 l 883 496 l 883 426 l 906 426 l 906 449 l 935 449 l 935 467 l 906 467 l 906 479 z m 987 425 b 1009 425 1026 440 1026 461 b 1026 483 1009 498 987 498 b 964 498 948 483 948 461 b 948 440 964 425 987 425 z m 987 444 b 978 444 971 450 971 461 b 971 472 978 479 987 479 b 995 479 1002 472 1002 461 b 1002 450 995 444 987 444 z m 1080 426 l 1105 426 l 1090 448 b 1098 452 1103 460 1103 470 b 1103 486 1091 496 1072 496 l 1038 496 l 1038 426 l 1062 426 l 1062 444 l 1068 444 z m 1080 470 b 1080 465 1077 462 1070 462 l 1062 462 l 1062 478 l 1070 478 b 1077 478 1080 475 1080 470 z m 111 380 l 78 380 l 78 310 l 101 310 l 101 327 l 111 327 b 131 327 143 338 143 354 b 143 370 131 380 111 380 z m 110 346 l 101 346 l 101 362 l 110 362 b 116 362 119 359 119 354 b 119 349 116 346 110 346 z m 178 328 l 178 337 l 207 337 l 207 354 l 178 354 l 178 362 l 211 362 l 211 380 l 155 380 l 155 310 l 212 310 l 212 328 z m 267 310 l 292 310 l 277 332 b 286 336 290 344 290 354 b 290 370 278 380 259 380 l 226 380 l 226 310 l 249 310 l 249 328 l 255 328 z m 267 354 b 267 349 264 346 257 346 l 249 346 l 249 362 l 257 362 b 264 362 267 359 267 354 z m 329 309 b 351 309 361 320 361 332 b 361 358 323 351 323 359 b 323 362 325 364 332 364 b 338 364 345 362 351 359 l 358 376 b 351 380 342 382 332 382 b 311 382 300 371 300 358 b 300 332 338 339 338 330 b 338 328 336 327 329 327 b 322 327 313 329 307 333 l 299 316 b 306 312 318 309 329 309 z m 409 309 b 431 309 448 324 448 345 b 448 366 431 382 409 382 b 386 382 370 366 370 345 b 370 324 386 309 409 309 z m 409 328 b 400 328 393 334 393 345 b 393 356 400 363 409 363 b 417 363 424 356 424 345 b 424 334 417 328 409 328 z m 506 380 l 506 348 l 480 380 l 461 380 l 461 310 l 483 310 l 483 342 l 510 310 l 529 310 l 529 380 z m 596 310 l 620 310 l 590 380 l 567 380 l 537 310 l 561 310 l 565 323 l 591 323 z m 572 339 l 578 357 l 585 339 z m 628 310 l 683 310 l 683 329 l 652 329 l 652 380 l 628 380 z m 761 309 b 782 309 794 321 794 342 l 794 380 l 772 380 l 772 342 b 772 332 768 328 761 328 b 755 328 751 332 751 342 l 751 380 l 727 380 l 727 342 b 727 321 740 309 761 309 z m 835 309 b 857 309 867 320 867 332 b 867 358 829 351 829 359 b 829 362 831 364 838 364 b 844 364 851 362 857 359 l 864 376 b 857 380 848 382 838 382 b 817 382 806 371 806 358 b 806 332 844 339 844 330 b 844 328 842 327 835 327 b 828 327 819 329 813 333 l 805 316 b 812 312 824 309 835 309 z m 902 328 l 902 337 l 931 337 l 931 354 l 902 354 l 902 362 l 935 362 l 935 380 l 879 380 l 879 310 l 936 310 l 936 328 z m 1020 309 b 1042 309 1059 324 1059 345 b 1059 366 1042 382 1020 382 b 997 382 981 366 981 345 b 981 324 997 309 1020 309 z m 1020 328 b 1011 328 1004 334 1004 345 b 1004 356 1011 363 1020 363 b 1028 363 1035 356 1035 345 b 1035 334 1028 328 1020 328 z m 1117 380 l 1117 348 l 1091 380 l 1072 380 l 1072 310 l 1094 310 l 1094 342 l 1121 310 l 1140 310 l 1140 380 z m 1155 310 l 1210 310 l 1210 329 l 1179 329 l 1179 380 l 1155 380 z m 1281 380 l 1258 380 l 1244 356 l 1230 380 l 1206 380 l 1232 336 l 1232 310 l 1255 310 l 1255 336 z m 213 136 l 197 159 b 206 163 212 171 212 181 b 212 197 201 206 182 206 l 154 206 l 154 136 l 167 136 l 167 156 l 182 156 b 183 156 184 156 185 157 l 199 136 z m 199 181 b 199 172 193 167 182 167 l 167 167 l 167 195 l 182 195 b 193 195 199 190 199 181 z m 279 162 b 279 179 268 190 252 190 b 237 190 225 179 225 163 b 225 147 236 135 254 135 b 263 135 271 138 275 144 l 269 152 b 265 148 260 146 254 146 b 245 146 239 151 237 159 l 279 159 b 279 160 279 161 279 162 z m 252 180 b 260 180 266 175 267 167 l 237 167 b 238 175 244 180 252 180 z m 314 190 b 305 190 297 188 291 183 l 296 174 b 300 178 306 180 312 180 b 321 180 325 175 325 168 l 325 167 l 312 167 b 296 167 290 160 290 151 b 290 142 297 135 309 135 b 317 135 323 138 326 143 l 326 136 l 338 136 l 338 167 b 338 183 329 190 314 190 z m 312 144 b 306 144 302 147 302 152 b 302 156 304 159 312 159 l 325 159 l 325 153 b 323 147 318 144 312 144 z m 383 135 b 393 135 401 140 405 148 l 396 153 b 392 148 388 146 382 146 b 373 146 366 152 366 163 b 366 173 373 179 382 179 b 388 179 392 177 396 172 l 405 178 b 401 186 393 190 383 190 b 366 190 354 179 354 163 b 354 147 366 135 383 135 z m 449 190 b 442 190 436 188 432 183 l 432 210 l 419 210 l 419 136 l 432 136 l 432 163 b 432 174 438 179 446 179 b 454 179 459 175 459 165 l 459 136 l 471 136 l 471 167 b 471 183 462 190 449 190 z m 589 190 b 581 190 574 187 570 181 b 566 187 560 190 552 190 b 545 190 539 187 535 183 l 535 189 l 523 189 l 523 136 l 535 136 l 535 163 b 535 174 541 179 549 179 b 557 179 561 175 561 165 l 561 136 l 573 136 l 573 163 b 573 174 579 179 587 179 b 594 179 599 175 599 165 l 599 136 l 611 136 l 611 167 b 611 183 602 190 589 190 z m 681 162 b 681 179 670 190 655 190 b 639 190 628 179 628 163 b 628 147 639 135 657 135 b 666 135 673 138 678 144 l 671 152 b 667 148 663 146 657 146 b 648 146 641 151 640 159 l 681 159 b 681 160 681 161 681 162 z m 655 180 b 663 180 669 175 670 167 l 640 167 b 641 175 647 180 655 180 z m 758 190 b 752 190 746 188 741 183 l 741 210 l 729 210 l 729 136 l 741 136 l 741 143 b 745 138 751 135 758 135 b 774 135 785 146 785 163 b 785 179 774 190 758 190 z m 757 146 b 748 146 741 153 741 163 b 741 173 748 179 757 179 b 766 179 773 173 773 163 b 773 153 766 146 757 146 z m 837 189 l 820 150 l 804 189 l 791 189 l 814 136 l 813 134 b 811 129 808 126 804 126 b 801 126 797 128 795 130 l 790 121 b 793 118 799 116 804 116 b 813 116 819 120 824 132 l 849 189 z m 942 162 b 942 179 931 190 916 190 b 900 190 888 179 888 163 b 888 147 900 135 917 135 b 927 135 934 138 939 144 l 932 152 b 928 148 924 146 918 146 b 909 146 902 151 901 159 l 942 159 b 942 160 942 161 942 162 z m 916 180 b 924 180 929 175 930 167 l 901 167 b 902 175 908 180 916 180 z m 1025 190 b 1016 190 1009 187 1005 181 b 1001 187 995 190 987 190 b 980 190 974 187 970 183 l 970 189 l 958 189 l 958 136 l 971 136 l 971 163 b 971 174 976 179 984 179 b 992 179 996 175 996 165 l 996 136 l 1009 136 l 1009 163 b 1009 174 1014 179 1022 179 b 1030 179 1034 175 1034 165 l 1034 136 l 1046 136 l 1046 167 b 1046 183 1038 190 1025 190 z m 1087 190 b 1078 190 1070 188 1064 183 l 1069 174 b 1073 178 1079 180 1085 180 b 1094 180 1098 175 1098 168 l 1098 167 l 1085 167 b 1069 167 1063 160 1063 151 b 1063 142 1070 135 1082 135 b 1090 135 1096 138 1099 143 l 1099 136 l 1111 136 l 1111 167 b 1111 183 1102 190 1087 190 z m 1085 144 b 1079 144 1075 147 1075 152 b 1075 156 1077 159 1086 159 l 1098 159 l 1098 153 b 1096 147 1091 144 1085 144 z m 1137 198 b 1142 198 1145 202 1145 206 b 1145 210 1142 213 1137 213 b 1133 213 1129 210 1129 206 b 1129 201 1133 198 1137 198 z m 1131 136 l 1143 136 l 1143 189 l 1131 189 z m 1164 136 l 1176 136 l 1176 210 l 1164 210 z m 108 19 l 130 45 l 130 58 l 81 58 l 81 41 l 102 41 l 80 16 l 80 3 l 132 3 l 132 19 z m 199 30 b 199 49 186 59 170 59 b 152 59 139 47 139 30 b 139 14 152 2 172 2 b 183 2 190 5 195 11 l 184 23 b 180 20 178 19 173 19 b 167 19 163 21 162 25 l 199 25 b 199 27 199 29 199 30 z m 170 43 b 175 43 178 40 179 36 l 161 36 b 162 40 165 43 170 43 z m 268 30 b 268 49 255 59 239 59 b 221 59 208 47 208 30 b 208 14 221 2 241 2 b 251 2 259 5 264 11 l 253 23 b 249 20 246 19 241 19 b 236 19 232 21 231 25 l 268 25 b 268 27 268 29 268 30 z m 239 43 b 243 43 247 40 247 36 l 230 36 b 231 40 234 43 239 43 z m 317 59 b 311 59 305 56 301 52 l 301 58 l 280 58 l 280 3 l 302 3 l 302 29 b 302 37 306 40 310 40 b 314 40 317 37 317 30 l 317 3 l 339 3 l 339 34 b 339 51 330 59 317 59 z m 412 30 b 412 49 398 59 382 59 b 364 59 351 47 351 30 b 351 14 364 2 384 2 b 395 2 402 5 408 11 l 396 23 b 392 20 390 19 385 19 b 379 19 375 21 374 25 l 411 25 b 411 27 412 29 412 30 z m 382 43 b 387 43 390 40 391 36 l 373 36 b 374 40 377 43 382 43 z m 444 2 b 463 2 472 10 472 20 b 472 42 441 35 441 41 b 441 42 443 43 448 43 b 453 43 458 42 464 39 l 470 54 b 464 57 456 59 448 59 b 430 59 420 50 420 40 b 420 18 451 25 451 20 b 451 18 450 17 445 17 b 438 17 431 19 426 22 l 420 7 b 425 4 435 2 444 2 z m 494 62 b 502 62 508 67 508 74 b 508 80 502 85 494 85 b 486 85 481 80 481 73 b 481 67 486 62 494 62 z m 483 3 l 505 3 l 505 58 l 483 58 z m 544 59 b 535 59 526 56 520 52 l 527 37 b 530 40 536 42 540 42 b 547 42 550 40 551 35 l 542 35 b 525 35 517 29 517 19 b 517 9 524 2 537 2 b 545 2 550 5 552 10 l 552 3 l 573 3 l 573 32 b 573 50 562 59 544 59 z m 544 15 b 540 15 538 17 538 20 b 538 23 540 24 545 24 l 551 24 l 551 21 b 550 17 547 15 544 15 z m 634 74 b 604 74 585 54 585 28 b 585 2 604 -18 634 -18 b 642 -18 652 -16 658 -13 l 654 -1 b 647 -4 640 -5 634 -5 b 614 -5 600 9 600 28 b 600 47 614 62 634 62 b 654 62 668 49 668 31 b 668 19 665 17 663 17 b 661 17 659 18 659 22 l 659 51 l 640 51 l 640 47 b 637 50 633 52 628 52 b 617 52 607 42 607 27 b 607 11 617 2 628 2 b 635 2 640 5 643 11 b 646 5 651 2 658 2 b 671 2 682 12 682 31 b 682 55 662 74 634 74 z m 633 18 b 629 18 626 21 626 27 b 626 33 629 36 633 36 b 637 36 640 33 640 27 b 640 21 637 18 633 18 z m 733 58 l 733 51 b 729 56 724 59 717 59 b 703 59 691 48 691 32 b 691 16 703 6 717 6 b 723 6 728 8 732 12 l 732 11 b 732 3 728 -1 719 -1 b 713 -1 706 1 702 5 l 694 -11 b 701 -15 711 -17 721 -17 b 742 -17 754 -7 754 14 l 754 58 z m 723 23 b 718 23 713 27 713 32 b 713 38 718 41 723 41 b 728 41 732 38 732 32 b 732 27 728 23 723 23 z m 840 59 b 832 59 826 56 822 50 b 818 56 812 59 805 59 b 799 59 794 57 789 52 l 789 58 l 768 58 l 768 3 l 791 3 l 791 30 b 791 37 794 40 798 40 b 801 40 804 37 804 30 l 804 3 l 826 3 l 826 30 b 826 37 829 40 833 40 b 836 40 839 37 839 30 l 839 3 l 861 3 l 861 34 b 861 51 852 59 840 59 z m 899 59 b 891 59 881 56 875 52 l 882 37 b 886 40 891 42 896 42 b 902 42 905 40 906 35 l 897 35 b 880 35 873 29 873 19 b 873 9 879 2 893 2 b 900 2 905 5 908 10 l 908 3 l 928 3 l 928 32 b 928 50 918 59 899 59 z m 899 15 b 896 15 894 17 894 20 b 894 23 896 24 901 24 l 906 24 l 906 21 b 905 17 902 15 899 15 z m 954 62 b 962 62 967 67 967 74 b 967 80 962 85 954 85 b 946 85 940 80 940 73 b 940 67 946 62 954 62 z m 943 3 l 965 3 l 965 58 l 943 58 z m 979 3 l 1001 3 l 1001 77 l 979 77 z m 1026 2 b 1033 2 1039 7 1039 15 b 1039 23 1033 28 1026 28 b 1018 28 1013 23 1013 15 b 1013 7 1018 2 1026 2 z m 1079 2 b 1092 2 1102 8 1106 18 l 1089 27 b 1086 22 1083 19 1079 19 b 1074 19 1070 23 1070 30 b 1070 37 1074 41 1079 41 b 1083 41 1086 39 1089 34 l 1106 42 b 1102 52 1092 59 1079 59 b 1061 59 1047 47 1047 30 b 1047 14 1061 2 1079 2 z m 1143 2 b 1162 2 1175 14 1175 30 b 1175 47 1162 59 1143 59 b 1125 59 1112 47 1112 30 b 1112 14 1125 2 1143 2 z m 1143 19 b 1138 19 1135 23 1135 30 b 1135 37 1138 41 1143 41 b 1148 41 1152 37 1152 30 b 1152 23 1148 19 1143 19 z m 1257 59 b 1250 59 1244 56 1239 50 b 1236 56 1230 59 1223 59 b 1217 59 1211 57 1207 52 l 1207 58 l 1186 58 l 1186 3 l 1208 3 l 1208 30 b 1208 37 1211 40 1215 40 b 1219 40 1221 37 1221 30 l 1221 3 l 1244 3 l 1244 30 b 1244 37 1247 40 1251 40 b 1254 40 1257 37 1257 30 l 1257 3 l 1279 3 l 1279 34 b 1279 51 1270 59 1257 59 z m 180 -78 l 180 -60 l 124 -60 l 124 -130 l 147 -130 l 147 -108 l 176 -108 l 176 -90 l 147 -90 l 147 -78 z m 219 -131 b 237 -131 250 -120 250 -103 b 250 -86 237 -75 219 -75 b 201 -75 188 -86 188 -103 b 188 -120 201 -131 219 -131 z m 219 -114 b 214 -114 210 -110 210 -103 b 210 -96 214 -92 219 -92 b 224 -92 228 -96 228 -103 b 228 -110 224 -114 219 -114 z m 283 -82 l 283 -76 l 262 -76 l 262 -130 l 284 -130 l 284 -106 b 284 -97 289 -94 295 -94 b 297 -94 298 -94 300 -95 l 300 -75 b 293 -75 287 -77 283 -82 z m 384 -76 l 384 -82 b 381 -77 376 -75 368 -75 b 354 -75 342 -85 342 -101 b 342 -117 354 -127 368 -127 b 375 -127 380 -125 383 -121 l 383 -122 b 383 -130 379 -134 370 -134 b 364 -134 357 -132 353 -128 l 346 -144 b 352 -148 362 -151 373 -151 b 393 -151 405 -141 405 -119 l 405 -76 z m 374 -110 b 369 -110 365 -106 365 -101 b 365 -96 369 -92 374 -92 b 379 -92 383 -96 383 -101 b 383 -106 379 -110 374 -110 z m 477 -103 b 477 -84 463 -75 447 -75 b 430 -75 417 -86 417 -103 b 417 -119 430 -131 449 -131 b 460 -131 468 -128 473 -122 l 461 -111 b 458 -113 455 -115 450 -115 b 445 -115 441 -112 439 -108 l 477 -108 b 477 -107 477 -105 477 -103 z m 448 -90 b 452 -90 455 -93 456 -97 l 439 -97 b 440 -93 443 -90 448 -90 z m 523 -113 b 521 -114 520 -114 518 -114 b 515 -114 513 -112 513 -109 l 513 -95 l 524 -95 l 524 -79 l 513 -79 l 513 -63 l 491 -63 l 491 -79 l 483 -79 l 483 -95 l 491 -95 l 491 -109 b 491 -124 500 -131 514 -131 b 520 -131 525 -130 528 -128 z m 629 -78 l 629 -60 l 573 -60 l 573 -130 l 596 -130 l 596 -108 l 625 -108 l 625 -90 l 596 -90 l 596 -78 z m 676 -76 l 676 -101 b 676 -109 672 -112 669 -112 b 664 -112 662 -110 662 -102 l 662 -76 l 639 -76 l 639 -106 b 639 -124 649 -131 662 -131 b 668 -131 673 -129 677 -125 l 677 -130 l 698 -130 l 698 -76 z m 713 -130 l 735 -130 l 735 -56 l 713 -56 z m 749 -130 l 772 -130 l 772 -56 l 749 -56 z m 872 -60 l 855 -101 l 838 -60 l 813 -60 l 842 -130 l 865 -130 l 894 -60 z m 954 -103 b 954 -84 940 -75 924 -75 b 907 -75 894 -86 894 -103 b 894 -119 906 -131 926 -131 b 937 -131 945 -128 950 -122 l 938 -111 b 935 -113 932 -115 927 -115 b 921 -115 918 -112 916 -108 l 954 -108 b 954 -107 954 -105 954 -103 z m 924 -90 b 929 -90 932 -93 933 -97 l 916 -97 b 917 -93 920 -90 924 -90 z m 986 -82 l 986 -76 l 965 -76 l 965 -130 l 987 -130 l 987 -106 b 987 -97 992 -94 999 -94 b 1001 -94 1002 -94 1004 -95 l 1004 -75 b 996 -75 990 -77 986 -82 z m 1036 -131 b 1054 -131 1064 -123 1064 -113 b 1064 -91 1033 -98 1033 -93 b 1033 -91 1034 -90 1040 -90 b 1044 -90 1050 -91 1055 -94 l 1062 -79 b 1056 -76 1047 -75 1040 -75 b 1021 -75 1012 -83 1012 -93 b 1012 -115 1043 -108 1043 -113 b 1043 -115 1042 -116 1036 -116 b 1030 -116 1022 -114 1017 -111 l 1011 -126 b 1017 -129 1026 -131 1036 -131 z m 1086 -71 b 1094 -71 1099 -66 1099 -59 b 1099 -53 1094 -48 1086 -48 b 1078 -48 1072 -53 1072 -60 b 1072 -66 1078 -71 1086 -71 z m 1075 -130 l 1097 -130 l 1097 -76 l 1075 -76 z m 1140 -131 b 1158 -131 1171 -120 1171 -103 b 1171 -86 1158 -75 1140 -75 b 1122 -75 1108 -86 1108 -103 b 1108 -120 1122 -131 1140 -131 z m 1140 -114 b 1135 -114 1131 -110 1131 -103 b 1131 -96 1135 -92 1140 -92 b 1145 -92 1149 -96 1149 -103 b 1149 -110 1145 -114 1140 -114 z m 1220 -75 b 1214 -75 1208 -77 1204 -81 l 1204 -76 l 1183 -76 l 1183 -130 l 1205 -130 l 1205 -105 b 1205 -97 1209 -94 1213 -94 b 1217 -94 1220 -96 1220 -103 l 1220 -130 l 1242 -130 l 1242 -99 b 1242 -82 1232 -75 1220 -75 z m 77 256 l 1282 256 l 1282 249 l 77 249 z"}," ":{"x_min":0,"x_max":339,"ha":339,"o":""},"I":{"x_min":0,"x_max":494,"ha":494,"o":"m 122 -2 b 155 -2 198 0 251 6 b 276 9 299 10 319 10 b 340 10 354 9 361 6 b 366 4 369 3 373 3 b 385 3 393 26 393 36 b 392 56 374 66 338 69 l 331 69 b 301 69 263 67 214 62 b 216 79 222 103 232 133 b 240 156 266 221 308 326 l 336 395 b 386 513 411 598 413 647 b 454 652 488 655 514 655 b 548 655 571 652 581 646 b 586 641 591 638 595 638 b 598 638 600 641 603 646 b 609 657 612 667 612 675 b 612 691 601 699 587 707 b 571 716 547 720 517 720 b 480 720 428 716 358 707 b 333 703 308 702 283 702 b 253 702 233 704 224 707 b 220 708 217 709 215 710 b 212 710 210 709 209 707 b 204 700 201 691 201 681 b 201 643 274 638 301 638 l 336 640 b 333 630 331 625 331 625 l 331 623 b 331 621 330 620 330 620 l 329 617 l 329 617 b 328 614 327 613 327 612 b 327 612 327 611 327 611 b 320 590 204 337 171 245 b 151 189 141 136 141 84 b 141 75 141 66 142 57 b 135 57 126 57 115 57 b 86 57 40 57 26 89 b 25 92 23 94 21 94 b 10 94 7 70 7 62 b 7 47 14 33 27 21 b 40 8 59 1 85 -1 b 97 -2 109 -2 122 -2 z"},"H":{"x_min":0,"x_max":807,"ha":807,"o":"m 593 -8 b 606 -6 611 4 611 7 b 611 9 609 13 606 19 l 603 26 b 602 30 601 37 601 47 b 601 77 606 109 616 145 b 630 186 647 234 670 290 b 695 292 713 293 725 293 b 737 293 779 292 787 280 b 789 277 792 276 794 276 b 805 276 812 297 812 307 b 812 333 795 351 761 360 b 745 364 725 366 701 366 b 730 432 769 539 769 607 b 769 636 763 656 750 669 b 736 685 722 692 708 692 b 705 692 702 690 701 688 b 699 683 698 676 698 666 l 699 652 b 699 584 634 424 608 362 b 593 361 579 359 567 358 b 531 353 493 348 452 345 b 464 393 470 437 470 475 b 470 561 441 627 384 675 b 348 705 307 721 261 723 l 258 723 b 167 723 87 668 39 594 b 13 553 2 517 2 469 b 2 431 15 399 39 374 b 57 354 74 345 90 345 b 98 345 102 347 103 350 l 104 354 b 104 356 103 358 101 360 b 98 363 95 366 91 367 b 69 381 62 402 62 428 b 62 474 76 519 103 562 b 144 620 219 662 291 662 b 377 662 396 600 396 525 b 396 461 381 399 361 339 l 341 338 b 316 338 296 341 280 346 l 268 351 b 260 354 255 355 251 355 b 242 354 240 333 240 326 b 240 299 255 280 285 268 b 298 264 315 261 335 260 b 312 200 279 149 239 106 b 207 74 180 58 134 58 l 126 58 b 112 58 104 57 103 55 b 102 52 102 51 102 50 b 102 43 112 34 132 22 b 151 11 172 5 195 5 b 304 5 373 137 410 222 b 416 236 422 250 427 264 b 460 267 501 271 550 277 l 573 279 b 519 157 514 91 514 91 b 514 73 517 58 521 45 b 538 -14 593 -8 593 -8 z"},"4":{"x_min":0,"x_max":1374,"ha":1374,"o":"m 146 563 b 183 563 212 593 212 630 b 212 668 184 697 147 697 b 109 697 81 667 81 630 b 81 593 109 563 146 563 z m 146 580 b 119 580 98 602 98 630 b 98 658 119 680 147 680 b 175 680 195 659 195 630 b 195 602 174 580 146 580 z m 149 593 b 166 593 178 601 183 614 l 159 626 b 157 621 153 619 149 619 b 144 619 140 623 140 630 b 140 638 144 641 149 641 b 153 641 157 639 159 634 l 183 646 b 178 659 166 668 149 668 b 126 668 109 652 109 630 b 109 608 126 593 149 593 z m 288 599 l 348 669 l 348 696 l 233 696 l 233 662 l 290 662 l 231 591 l 231 564 l 351 564 l 351 599 z m 415 598 l 415 615 l 470 615 l 470 647 l 415 647 l 415 663 l 478 663 l 478 696 l 372 696 l 372 564 l 480 564 l 480 598 z m 549 598 l 549 615 l 604 615 l 604 647 l 549 647 l 549 663 l 611 663 l 611 696 l 506 696 l 506 564 l 614 564 l 614 598 z m 725 696 l 725 636 l 675 696 l 639 696 l 639 564 l 682 564 l 682 624 l 732 564 l 768 564 l 768 696 z m 841 598 l 841 615 l 896 615 l 896 647 l 841 647 l 841 663 l 903 663 l 903 696 l 797 696 l 797 564 l 906 564 l 906 598 z m 980 561 b 1020 561 1040 581 1040 606 b 1040 654 968 641 968 657 b 968 661 973 665 985 665 b 997 665 1009 662 1022 655 l 1035 688 b 1021 696 1003 699 986 699 b 945 699 925 679 925 655 b 925 605 997 619 997 602 b 997 598 993 595 980 595 b 966 595 949 600 937 607 l 923 575 b 936 566 958 561 980 561 z m 1062 564 l 1106 564 l 1106 696 l 1062 696 z m 1233 564 l 1278 564 l 1221 696 l 1178 696 l 1121 564 l 1166 564 l 1174 587 l 1224 587 z m 1187 619 l 1199 652 l 1212 619 z m 261 426 l 284 426 l 284 478 l 304 478 l 304 496 l 241 496 l 241 478 l 261 478 z m 360 496 l 360 472 l 338 472 l 338 496 l 315 496 l 315 426 l 338 426 l 338 452 l 360 452 l 360 426 l 383 426 l 383 496 z m 399 426 l 422 426 l 422 496 l 399 496 z m 463 425 b 485 425 495 436 495 448 b 495 474 457 467 457 476 b 457 478 459 480 466 480 b 472 480 479 478 485 475 l 492 492 b 485 496 476 498 466 498 b 445 498 434 487 434 474 b 434 448 472 455 472 447 b 472 444 470 443 463 443 b 456 443 447 445 441 449 l 433 432 b 440 428 452 425 463 425 z m 597 479 l 597 496 l 541 496 l 541 426 l 564 426 l 564 449 l 593 449 l 593 467 l 564 467 l 564 479 z m 644 425 b 667 425 683 440 683 461 b 683 483 667 498 644 498 b 622 498 605 483 605 461 b 605 440 622 425 644 425 z m 644 444 b 636 444 629 450 629 461 b 629 472 636 479 644 479 b 653 479 660 472 660 461 b 660 450 653 444 644 444 z m 741 496 l 741 465 l 715 496 l 696 496 l 696 426 l 719 426 l 719 458 l 745 426 l 764 426 l 764 496 z m 795 426 l 818 426 l 818 478 l 838 478 l 838 496 l 775 496 l 775 478 l 795 478 z m 939 479 l 939 496 l 883 496 l 883 426 l 906 426 l 906 449 l 935 449 l 935 467 l 906 467 l 906 479 z m 987 425 b 1009 425 1026 440 1026 461 b 1026 483 1009 498 987 498 b 964 498 948 483 948 461 b 948 440 964 425 987 425 z m 987 444 b 978 444 971 450 971 461 b 971 472 978 479 987 479 b 995 479 1002 472 1002 461 b 1002 450 995 444 987 444 z m 1080 426 l 1105 426 l 1090 448 b 1098 452 1103 460 1103 470 b 1103 486 1091 496 1072 496 l 1038 496 l 1038 426 l 1062 426 l 1062 444 l 1068 444 z m 1080 470 b 1080 465 1077 462 1070 462 l 1062 462 l 1062 478 l 1070 478 b 1077 478 1080 475 1080 470 z m 111 380 l 78 380 l 78 310 l 101 310 l 101 327 l 111 327 b 131 327 143 338 143 354 b 143 370 131 380 111 380 z m 110 346 l 101 346 l 101 362 l 110 362 b 116 362 119 359 119 354 b 119 349 116 346 110 346 z m 178 328 l 178 337 l 207 337 l 207 354 l 178 354 l 178 362 l 211 362 l 211 380 l 155 380 l 155 310 l 212 310 l 212 328 z m 267 310 l 292 310 l 277 332 b 286 336 290 344 290 354 b 290 370 278 380 259 380 l 226 380 l 226 310 l 249 310 l 249 328 l 255 328 z m 267 354 b 267 349 264 346 257 346 l 249 346 l 249 362 l 257 362 b 264 362 267 359 267 354 z m 329 309 b 351 309 361 320 361 332 b 361 358 323 351 323 359 b 323 362 325 364 332 364 b 338 364 345 362 351 359 l 358 376 b 351 380 342 382 332 382 b 311 382 300 371 300 358 b 300 332 338 339 338 330 b 338 328 336 327 329 327 b 322 327 313 329 307 333 l 299 316 b 306 312 318 309 329 309 z m 409 309 b 431 309 448 324 448 345 b 448 366 431 382 409 382 b 386 382 370 366 370 345 b 370 324 386 309 409 309 z m 409 328 b 400 328 393 334 393 345 b 393 356 400 363 409 363 b 417 363 424 356 424 345 b 424 334 417 328 409 328 z m 506 380 l 506 348 l 480 380 l 461 380 l 461 310 l 483 310 l 483 342 l 510 310 l 529 310 l 529 380 z m 596 310 l 620 310 l 590 380 l 567 380 l 537 310 l 561 310 l 565 323 l 591 323 z m 572 339 l 578 357 l 585 339 z m 628 310 l 683 310 l 683 329 l 652 329 l 652 380 l 628 380 z m 761 309 b 782 309 794 321 794 342 l 794 380 l 772 380 l 772 342 b 772 332 768 328 761 328 b 755 328 751 332 751 342 l 751 380 l 727 380 l 727 342 b 727 321 740 309 761 309 z m 835 309 b 857 309 867 320 867 332 b 867 358 829 351 829 359 b 829 362 831 364 838 364 b 844 364 851 362 857 359 l 864 376 b 857 380 848 382 838 382 b 817 382 806 371 806 358 b 806 332 844 339 844 330 b 844 328 842 327 835 327 b 828 327 819 329 813 333 l 805 316 b 812 312 824 309 835 309 z m 902 328 l 902 337 l 931 337 l 931 354 l 902 354 l 902 362 l 935 362 l 935 380 l 879 380 l 879 310 l 936 310 l 936 328 z m 1020 309 b 1042 309 1059 324 1059 345 b 1059 366 1042 382 1020 382 b 997 382 981 366 981 345 b 981 324 997 309 1020 309 z m 1020 328 b 1011 328 1004 334 1004 345 b 1004 356 1011 363 1020 363 b 1028 363 1035 356 1035 345 b 1035 334 1028 328 1020 328 z m 1117 380 l 1117 348 l 1091 380 l 1072 380 l 1072 310 l 1094 310 l 1094 342 l 1121 310 l 1140 310 l 1140 380 z m 1155 310 l 1210 310 l 1210 329 l 1179 329 l 1179 380 l 1155 380 z m 1281 380 l 1258 380 l 1244 356 l 1230 380 l 1206 380 l 1232 336 l 1232 310 l 1255 310 l 1255 336 z m 213 136 l 197 159 b 206 163 212 171 212 181 b 212 197 201 206 182 206 l 154 206 l 154 136 l 167 136 l 167 156 l 182 156 b 183 156 184 156 185 157 l 199 136 z m 199 181 b 199 172 193 167 182 167 l 167 167 l 167 195 l 182 195 b 193 195 199 190 199 181 z m 279 162 b 279 179 268 190 252 190 b 237 190 225 179 225 163 b 225 147 236 135 254 135 b 263 135 271 138 275 144 l 269 152 b 265 148 260 146 254 146 b 245 146 239 151 237 159 l 279 159 b 279 160 279 161 279 162 z m 252 180 b 260 180 266 175 267 167 l 237 167 b 238 175 244 180 252 180 z m 314 190 b 305 190 297 188 291 183 l 296 174 b 300 178 306 180 312 180 b 321 180 325 175 325 168 l 325 167 l 312 167 b 296 167 290 160 290 151 b 290 142 297 135 309 135 b 317 135 323 138 326 143 l 326 136 l 338 136 l 338 167 b 338 183 329 190 314 190 z m 312 144 b 306 144 302 147 302 152 b 302 156 304 159 312 159 l 325 159 l 325 153 b 323 147 318 144 312 144 z m 383 135 b 393 135 401 140 405 148 l 396 153 b 392 148 388 146 382 146 b 373 146 366 152 366 163 b 366 173 373 179 382 179 b 388 179 392 177 396 172 l 405 178 b 401 186 393 190 383 190 b 366 190 354 179 354 163 b 354 147 366 135 383 135 z m 449 190 b 442 190 436 188 432 183 l 432 210 l 419 210 l 419 136 l 432 136 l 432 163 b 432 174 438 179 446 179 b 454 179 459 175 459 165 l 459 136 l 471 136 l 471 167 b 471 183 462 190 449 190 z m 589 190 b 581 190 574 187 570 181 b 566 187 560 190 552 190 b 545 190 539 187 535 183 l 535 189 l 523 189 l 523 136 l 535 136 l 535 163 b 535 174 541 179 549 179 b 557 179 561 175 561 165 l 561 136 l 573 136 l 573 163 b 573 174 579 179 587 179 b 594 179 599 175 599 165 l 599 136 l 611 136 l 611 167 b 611 183 602 190 589 190 z m 681 162 b 681 179 670 190 655 190 b 639 190 628 179 628 163 b 628 147 639 135 657 135 b 666 135 673 138 678 144 l 671 152 b 667 148 663 146 657 146 b 648 146 641 151 640 159 l 681 159 b 681 160 681 161 681 162 z m 655 180 b 663 180 669 175 670 167 l 640 167 b 641 175 647 180 655 180 z m 758 190 b 752 190 746 188 741 183 l 741 210 l 729 210 l 729 136 l 741 136 l 741 143 b 745 138 751 135 758 135 b 774 135 785 146 785 163 b 785 179 774 190 758 190 z m 757 146 b 748 146 741 153 741 163 b 741 173 748 179 757 179 b 766 179 773 173 773 163 b 773 153 766 146 757 146 z m 837 189 l 820 150 l 804 189 l 791 189 l 814 136 l 813 134 b 811 129 808 126 804 126 b 801 126 797 128 795 130 l 790 121 b 793 118 799 116 804 116 b 813 116 819 120 824 132 l 849 189 z m 942 162 b 942 179 931 190 916 190 b 900 190 888 179 888 163 b 888 147 900 135 917 135 b 927 135 934 138 939 144 l 932 152 b 928 148 924 146 918 146 b 909 146 902 151 901 159 l 942 159 b 942 160 942 161 942 162 z m 916 180 b 924 180 929 175 930 167 l 901 167 b 902 175 908 180 916 180 z m 1025 190 b 1016 190 1009 187 1005 181 b 1001 187 995 190 987 190 b 980 190 974 187 970 183 l 970 189 l 958 189 l 958 136 l 971 136 l 971 163 b 971 174 976 179 984 179 b 992 179 996 175 996 165 l 996 136 l 1009 136 l 1009 163 b 1009 174 1014 179 1022 179 b 1030 179 1034 175 1034 165 l 1034 136 l 1046 136 l 1046 167 b 1046 183 1038 190 1025 190 z m 1087 190 b 1078 190 1070 188 1064 183 l 1069 174 b 1073 178 1079 180 1085 180 b 1094 180 1098 175 1098 168 l 1098 167 l 1085 167 b 1069 167 1063 160 1063 151 b 1063 142 1070 135 1082 135 b 1090 135 1096 138 1099 143 l 1099 136 l 1111 136 l 1111 167 b 1111 183 1102 190 1087 190 z m 1085 144 b 1079 144 1075 147 1075 152 b 1075 156 1077 159 1086 159 l 1098 159 l 1098 153 b 1096 147 1091 144 1085 144 z m 1137 198 b 1142 198 1145 202 1145 206 b 1145 210 1142 213 1137 213 b 1133 213 1129 210 1129 206 b 1129 201 1133 198 1137 198 z m 1131 136 l 1143 136 l 1143 189 l 1131 189 z m 1164 136 l 1176 136 l 1176 210 l 1164 210 z m 108 19 l 130 45 l 130 58 l 81 58 l 81 41 l 102 41 l 80 16 l 80 3 l 132 3 l 132 19 z m 199 30 b 199 49 186 59 170 59 b 152 59 139 47 139 30 b 139 14 152 2 172 2 b 183 2 190 5 195 11 l 184 23 b 180 20 178 19 173 19 b 167 19 163 21 162 25 l 199 25 b 199 27 199 29 199 30 z m 170 43 b 175 43 178 40 179 36 l 161 36 b 162 40 165 43 170 43 z m 268 30 b 268 49 255 59 239 59 b 221 59 208 47 208 30 b 208 14 221 2 241 2 b 251 2 259 5 264 11 l 253 23 b 249 20 246 19 241 19 b 236 19 232 21 231 25 l 268 25 b 268 27 268 29 268 30 z m 239 43 b 243 43 247 40 247 36 l 230 36 b 231 40 234 43 239 43 z m 317 59 b 311 59 305 56 301 52 l 301 58 l 280 58 l 280 3 l 302 3 l 302 29 b 302 37 306 40 310 40 b 314 40 317 37 317 30 l 317 3 l 339 3 l 339 34 b 339 51 330 59 317 59 z m 412 30 b 412 49 398 59 382 59 b 364 59 351 47 351 30 b 351 14 364 2 384 2 b 395 2 402 5 408 11 l 396 23 b 392 20 390 19 385 19 b 379 19 375 21 374 25 l 411 25 b 411 27 412 29 412 30 z m 382 43 b 387 43 390 40 391 36 l 373 36 b 374 40 377 43 382 43 z m 444 2 b 463 2 472 10 472 20 b 472 42 441 35 441 41 b 441 42 443 43 448 43 b 453 43 458 42 464 39 l 470 54 b 464 57 456 59 448 59 b 430 59 420 50 420 40 b 420 18 451 25 451 20 b 451 18 450 17 445 17 b 438 17 431 19 426 22 l 420 7 b 425 4 435 2 444 2 z m 494 62 b 502 62 508 67 508 74 b 508 80 502 85 494 85 b 486 85 481 80 481 73 b 481 67 486 62 494 62 z m 483 3 l 505 3 l 505 58 l 483 58 z m 544 59 b 535 59 526 56 520 52 l 527 37 b 530 40 536 42 540 42 b 547 42 550 40 551 35 l 542 35 b 525 35 517 29 517 19 b 517 9 524 2 537 2 b 545 2 550 5 552 10 l 552 3 l 573 3 l 573 32 b 573 50 562 59 544 59 z m 544 15 b 540 15 538 17 538 20 b 538 23 540 24 545 24 l 551 24 l 551 21 b 550 17 547 15 544 15 z m 634 74 b 604 74 585 54 585 28 b 585 2 604 -18 634 -18 b 642 -18 652 -16 658 -13 l 654 -1 b 647 -4 640 -5 634 -5 b 614 -5 600 9 600 28 b 600 47 614 62 634 62 b 654 62 668 49 668 31 b 668 19 665 17 663 17 b 661 17 659 18 659 22 l 659 51 l 640 51 l 640 47 b 637 50 633 52 628 52 b 617 52 607 42 607 27 b 607 11 617 2 628 2 b 635 2 640 5 643 11 b 646 5 651 2 658 2 b 671 2 682 12 682 31 b 682 55 662 74 634 74 z m 633 18 b 629 18 626 21 626 27 b 626 33 629 36 633 36 b 637 36 640 33 640 27 b 640 21 637 18 633 18 z m 733 58 l 733 51 b 729 56 724 59 717 59 b 703 59 691 48 691 32 b 691 16 703 6 717 6 b 723 6 728 8 732 12 l 732 11 b 732 3 728 -1 719 -1 b 713 -1 706 1 702 5 l 694 -11 b 701 -15 711 -17 721 -17 b 742 -17 754 -7 754 14 l 754 58 z m 723 23 b 718 23 713 27 713 32 b 713 38 718 41 723 41 b 728 41 732 38 732 32 b 732 27 728 23 723 23 z m 840 59 b 832 59 826 56 822 50 b 818 56 812 59 805 59 b 799 59 794 57 789 52 l 789 58 l 768 58 l 768 3 l 791 3 l 791 30 b 791 37 794 40 798 40 b 801 40 804 37 804 30 l 804 3 l 826 3 l 826 30 b 826 37 829 40 833 40 b 836 40 839 37 839 30 l 839 3 l 861 3 l 861 34 b 861 51 852 59 840 59 z m 899 59 b 891 59 881 56 875 52 l 882 37 b 886 40 891 42 896 42 b 902 42 905 40 906 35 l 897 35 b 880 35 873 29 873 19 b 873 9 879 2 893 2 b 900 2 905 5 908 10 l 908 3 l 928 3 l 928 32 b 928 50 918 59 899 59 z m 899 15 b 896 15 894 17 894 20 b 894 23 896 24 901 24 l 906 24 l 906 21 b 905 17 902 15 899 15 z m 954 62 b 962 62 967 67 967 74 b 967 80 962 85 954 85 b 946 85 940 80 940 73 b 940 67 946 62 954 62 z m 943 3 l 965 3 l 965 58 l 943 58 z m 979 3 l 1001 3 l 1001 77 l 979 77 z m 1026 2 b 1033 2 1039 7 1039 15 b 1039 23 1033 28 1026 28 b 1018 28 1013 23 1013 15 b 1013 7 1018 2 1026 2 z m 1079 2 b 1092 2 1102 8 1106 18 l 1089 27 b 1086 22 1083 19 1079 19 b 1074 19 1070 23 1070 30 b 1070 37 1074 41 1079 41 b 1083 41 1086 39 1089 34 l 1106 42 b 1102 52 1092 59 1079 59 b 1061 59 1047 47 1047 30 b 1047 14 1061 2 1079 2 z m 1143 2 b 1162 2 1175 14 1175 30 b 1175 47 1162 59 1143 59 b 1125 59 1112 47 1112 30 b 1112 14 1125 2 1143 2 z m 1143 19 b 1138 19 1135 23 1135 30 b 1135 37 1138 41 1143 41 b 1148 41 1152 37 1152 30 b 1152 23 1148 19 1143 19 z m 1257 59 b 1250 59 1244 56 1239 50 b 1236 56 1230 59 1223 59 b 1217 59 1211 57 1207 52 l 1207 58 l 1186 58 l 1186 3 l 1208 3 l 1208 30 b 1208 37 1211 40 1215 40 b 1219 40 1221 37 1221 30 l 1221 3 l 1244 3 l 1244 30 b 1244 37 1247 40 1251 40 b 1254 40 1257 37 1257 30 l 1257 3 l 1279 3 l 1279 34 b 1279 51 1270 59 1257 59 z m 180 -78 l 180 -60 l 124 -60 l 124 -130 l 147 -130 l 147 -108 l 176 -108 l 176 -90 l 147 -90 l 147 -78 z m 219 -131 b 237 -131 250 -120 250 -103 b 250 -86 237 -75 219 -75 b 201 -75 188 -86 188 -103 b 188 -120 201 -131 219 -131 z m 219 -114 b 214 -114 210 -110 210 -103 b 210 -96 214 -92 219 -92 b 224 -92 228 -96 228 -103 b 228 -110 224 -114 219 -114 z m 283 -82 l 283 -76 l 262 -76 l 262 -130 l 284 -130 l 284 -106 b 284 -97 289 -94 295 -94 b 297 -94 298 -94 300 -95 l 300 -75 b 293 -75 287 -77 283 -82 z m 384 -76 l 384 -82 b 381 -77 376 -75 368 -75 b 354 -75 342 -85 342 -101 b 342 -117 354 -127 368 -127 b 375 -127 380 -125 383 -121 l 383 -122 b 383 -130 379 -134 370 -134 b 364 -134 357 -132 353 -128 l 346 -144 b 352 -148 362 -151 373 -151 b 393 -151 405 -141 405 -119 l 405 -76 z m 374 -110 b 369 -110 365 -106 365 -101 b 365 -96 369 -92 374 -92 b 379 -92 383 -96 383 -101 b 383 -106 379 -110 374 -110 z m 477 -103 b 477 -84 463 -75 447 -75 b 430 -75 417 -86 417 -103 b 417 -119 430 -131 449 -131 b 460 -131 468 -128 473 -122 l 461 -111 b 458 -113 455 -115 450 -115 b 445 -115 441 -112 439 -108 l 477 -108 b 477 -107 477 -105 477 -103 z m 448 -90 b 452 -90 455 -93 456 -97 l 439 -97 b 440 -93 443 -90 448 -90 z m 523 -113 b 521 -114 520 -114 518 -114 b 515 -114 513 -112 513 -109 l 513 -95 l 524 -95 l 524 -79 l 513 -79 l 513 -63 l 491 -63 l 491 -79 l 483 -79 l 483 -95 l 491 -95 l 491 -109 b 491 -124 500 -131 514 -131 b 520 -131 525 -130 528 -128 z m 629 -78 l 629 -60 l 573 -60 l 573 -130 l 596 -130 l 596 -108 l 625 -108 l 625 -90 l 596 -90 l 596 -78 z m 676 -76 l 676 -101 b 676 -109 672 -112 669 -112 b 664 -112 662 -110 662 -102 l 662 -76 l 639 -76 l 639 -106 b 639 -124 649 -131 662 -131 b 668 -131 673 -129 677 -125 l 677 -130 l 698 -130 l 698 -76 z m 713 -130 l 735 -130 l 735 -56 l 713 -56 z m 749 -130 l 772 -130 l 772 -56 l 749 -56 z m 872 -60 l 855 -101 l 838 -60 l 813 -60 l 842 -130 l 865 -130 l 894 -60 z m 954 -103 b 954 -84 940 -75 924 -75 b 907 -75 894 -86 894 -103 b 894 -119 906 -131 926 -131 b 937 -131 945 -128 950 -122 l 938 -111 b 935 -113 932 -115 927 -115 b 921 -115 918 -112 916 -108 l 954 -108 b 954 -107 954 -105 954 -103 z m 924 -90 b 929 -90 932 -93 933 -97 l 916 -97 b 917 -93 920 -90 924 -90 z m 986 -82 l 986 -76 l 965 -76 l 965 -130 l 987 -130 l 987 -106 b 987 -97 992 -94 999 -94 b 1001 -94 1002 -94 1004 -95 l 1004 -75 b 996 -75 990 -77 986 -82 z m 1036 -131 b 1054 -131 1064 -123 1064 -113 b 1064 -91 1033 -98 1033 -93 b 1033 -91 1034 -90 1040 -90 b 1044 -90 1050 -91 1055 -94 l 1062 -79 b 1056 -76 1047 -75 1040 -75 b 1021 -75 1012 -83 1012 -93 b 1012 -115 1043 -108 1043 -113 b 1043 -115 1042 -116 1036 -116 b 1030 -116 1022 -114 1017 -111 l 1011 -126 b 1017 -129 1026 -131 1036 -131 z m 1086 -71 b 1094 -71 1099 -66 1099 -59 b 1099 -53 1094 -48 1086 -48 b 1078 -48 1072 -53 1072 -60 b 1072 -66 1078 -71 1086 -71 z m 1075 -130 l 1097 -130 l 1097 -76 l 1075 -76 z m 1140 -131 b 1158 -131 1171 -120 1171 -103 b 1171 -86 1158 -75 1140 -75 b 1122 -75 1108 -86 1108 -103 b 1108 -120 1122 -131 1140 -131 z m 1140 -114 b 1135 -114 1131 -110 1131 -103 b 1131 -96 1135 -92 1140 -92 b 1145 -92 1149 -96 1149 -103 b 1149 -110 1145 -114 1140 -114 z m 1220 -75 b 1214 -75 1208 -77 1204 -81 l 1204 -76 l 1183 -76 l 1183 -130 l 1205 -130 l 1205 -105 b 1205 -97 1209 -94 1213 -94 b 1217 -94 1220 -96 1220 -103 l 1220 -130 l 1242 -130 l 1242 -99 b 1242 -82 1232 -75 1220 -75 z m 77 256 l 1282 256 l 1282 249 l 77 249 z"},"~":{"x_min":0,"x_max":301,"ha":301,"o":"m 183 189 b 210 193 228 208 236 233 b 239 243 240 250 240 258 b 240 273 236 281 230 281 b 227 281 224 277 220 271 b 211 255 201 248 189 248 b 176 248 161 254 145 267 b 127 282 110 290 94 291 b 54 291 28 262 28 222 b 28 215 29 208 31 201 b 33 194 36 190 40 190 b 45 190 49 195 53 206 b 58 219 73 226 99 227 b 109 227 123 220 141 208 b 158 195 171 189 180 189 z"},"D":{"x_min":0,"x_max":737,"ha":737,"o":"m 250 -19 b 282 -19 316 -14 355 -4 b 489 35 591 107 663 212 b 719 293 747 374 747 454 b 747 521 726 579 684 625 b 636 677 562 704 459 704 b 306 704 156 623 68 499 b 31 443 13 406 12 387 b 11 368 11 356 11 354 b 11 323 17 301 29 289 b 37 281 42 276 44 275 b 47 275 49 274 50 274 b 57 274 61 282 61 296 l 60 302 b 60 322 68 348 84 380 b 125 456 205 527 281 566 b 342 594 404 607 467 607 b 505 607 544 602 583 592 b 630 577 659 558 672 534 b 684 511 690 489 690 468 b 690 438 680 402 661 359 b 618 267 505 161 415 115 b 361 89 315 73 277 68 l 277 70 b 276 73 276 76 276 80 b 276 104 294 152 331 224 b 373 297 403 352 422 388 b 461 459 480 510 480 539 b 480 554 477 567 468 578 b 456 595 445 603 437 603 b 427 603 425 595 425 587 b 425 583 425 578 423 571 b 422 564 419 555 415 544 b 408 530 396 506 377 474 b 341 411 303 349 263 288 b 225 227 206 178 206 140 b 206 111 213 81 240 65 l 232 65 b 188 65 138 69 98 92 b 92 95 87 97 83 97 b 78 97 76 93 76 85 b 76 76 81 62 91 44 b 114 2 206 -19 250 -19 z"},"^":{"x_min":0,"x_max":282,"ha":282,"o":"m 56 741 b 53 724 52 714 52 710 l 52 709 b 52 701 57 697 67 695 b 69 695 71 694 73 694 b 75 694 76 695 77 695 b 79 697 83 701 90 707 b 109 782 131 832 157 855 b 171 834 181 812 185 788 b 188 764 190 747 190 734 b 190 731 190 728 189 725 b 189 721 189 717 189 715 b 189 712 189 709 189 708 b 191 700 198 695 209 694 b 210 694 212 694 213 694 b 224 694 228 712 229 720 b 231 732 232 750 232 771 l 232 776 b 232 820 226 913 167 913 l 161 913 b 93 913 68 805 58 754 z"},"0":{"x_min":0,"x_max":1374,"ha":1374,"o":"m 146 563 b 183 563 212 593 212 630 b 212 668 184 697 147 697 b 109 697 81 667 81 630 b 81 593 109 563 146 563 z m 146 580 b 119 580 98 602 98 630 b 98 658 119 680 147 680 b 175 680 195 659 195 630 b 195 602 174 580 146 580 z m 149 593 b 166 593 178 601 183 614 l 159 626 b 157 621 153 619 149 619 b 144 619 140 623 140 630 b 140 638 144 641 149 641 b 153 641 157 639 159 634 l 183 646 b 178 659 166 668 149 668 b 126 668 109 652 109 630 b 109 608 126 593 149 593 z m 288 599 l 348 669 l 348 696 l 233 696 l 233 662 l 290 662 l 231 591 l 231 564 l 351 564 l 351 599 z m 415 598 l 415 615 l 470 615 l 470 647 l 415 647 l 415 663 l 478 663 l 478 696 l 372 696 l 372 564 l 480 564 l 480 598 z m 549 598 l 549 615 l 604 615 l 604 647 l 549 647 l 549 663 l 611 663 l 611 696 l 506 696 l 506 564 l 614 564 l 614 598 z m 725 696 l 725 636 l 675 696 l 639 696 l 639 564 l 682 564 l 682 624 l 732 564 l 768 564 l 768 696 z m 841 598 l 841 615 l 896 615 l 896 647 l 841 647 l 841 663 l 903 663 l 903 696 l 797 696 l 797 564 l 906 564 l 906 598 z m 980 561 b 1020 561 1040 581 1040 606 b 1040 654 968 641 968 657 b 968 661 973 665 985 665 b 997 665 1009 662 1022 655 l 1035 688 b 1021 696 1003 699 986 699 b 945 699 925 679 925 655 b 925 605 997 619 997 602 b 997 598 993 595 980 595 b 966 595 949 600 937 607 l 923 575 b 936 566 958 561 980 561 z m 1062 564 l 1106 564 l 1106 696 l 1062 696 z m 1233 564 l 1278 564 l 1221 696 l 1178 696 l 1121 564 l 1166 564 l 1174 587 l 1224 587 z m 1187 619 l 1199 652 l 1212 619 z m 261 426 l 284 426 l 284 478 l 304 478 l 304 496 l 241 496 l 241 478 l 261 478 z m 360 496 l 360 472 l 338 472 l 338 496 l 315 496 l 315 426 l 338 426 l 338 452 l 360 452 l 360 426 l 383 426 l 383 496 z m 399 426 l 422 426 l 422 496 l 399 496 z m 463 425 b 485 425 495 436 495 448 b 495 474 457 467 457 476 b 457 478 459 480 466 480 b 472 480 479 478 485 475 l 492 492 b 485 496 476 498 466 498 b 445 498 434 487 434 474 b 434 448 472 455 472 447 b 472 444 470 443 463 443 b 456 443 447 445 441 449 l 433 432 b 440 428 452 425 463 425 z m 597 479 l 597 496 l 541 496 l 541 426 l 564 426 l 564 449 l 593 449 l 593 467 l 564 467 l 564 479 z m 644 425 b 667 425 683 440 683 461 b 683 483 667 498 644 498 b 622 498 605 483 605 461 b 605 440 622 425 644 425 z m 644 444 b 636 444 629 450 629 461 b 629 472 636 479 644 479 b 653 479 660 472 660 461 b 660 450 653 444 644 444 z m 741 496 l 741 465 l 715 496 l 696 496 l 696 426 l 719 426 l 719 458 l 745 426 l 764 426 l 764 496 z m 795 426 l 818 426 l 818 478 l 838 478 l 838 496 l 775 496 l 775 478 l 795 478 z m 939 479 l 939 496 l 883 496 l 883 426 l 906 426 l 906 449 l 935 449 l 935 467 l 906 467 l 906 479 z m 987 425 b 1009 425 1026 440 1026 461 b 1026 483 1009 498 987 498 b 964 498 948 483 948 461 b 948 440 964 425 987 425 z m 987 444 b 978 444 971 450 971 461 b 971 472 978 479 987 479 b 995 479 1002 472 1002 461 b 1002 450 995 444 987 444 z m 1080 426 l 1105 426 l 1090 448 b 1098 452 1103 460 1103 470 b 1103 486 1091 496 1072 496 l 1038 496 l 1038 426 l 1062 426 l 1062 444 l 1068 444 z m 1080 470 b 1080 465 1077 462 1070 462 l 1062 462 l 1062 478 l 1070 478 b 1077 478 1080 475 1080 470 z m 111 380 l 78 380 l 78 310 l 101 310 l 101 327 l 111 327 b 131 327 143 338 143 354 b 143 370 131 380 111 380 z m 110 346 l 101 346 l 101 362 l 110 362 b 116 362 119 359 119 354 b 119 349 116 346 110 346 z m 178 328 l 178 337 l 207 337 l 207 354 l 178 354 l 178 362 l 211 362 l 211 380 l 155 380 l 155 310 l 212 310 l 212 328 z m 267 310 l 292 310 l 277 332 b 286 336 290 344 290 354 b 290 370 278 380 259 380 l 226 380 l 226 310 l 249 310 l 249 328 l 255 328 z m 267 354 b 267 349 264 346 257 346 l 249 346 l 249 362 l 257 362 b 264 362 267 359 267 354 z m 329 309 b 351 309 361 320 361 332 b 361 358 323 351 323 359 b 323 362 325 364 332 364 b 338 364 345 362 351 359 l 358 376 b 351 380 342 382 332 382 b 311 382 300 371 300 358 b 300 332 338 339 338 330 b 338 328 336 327 329 327 b 322 327 313 329 307 333 l 299 316 b 306 312 318 309 329 309 z m 409 309 b 431 309 448 324 448 345 b 448 366 431 382 409 382 b 386 382 370 366 370 345 b 370 324 386 309 409 309 z m 409 328 b 400 328 393 334 393 345 b 393 356 400 363 409 363 b 417 363 424 356 424 345 b 424 334 417 328 409 328 z m 506 380 l 506 348 l 480 380 l 461 380 l 461 310 l 483 310 l 483 342 l 510 310 l 529 310 l 529 380 z m 596 310 l 620 310 l 590 380 l 567 380 l 537 310 l 561 310 l 565 323 l 591 323 z m 572 339 l 578 357 l 585 339 z m 628 310 l 683 310 l 683 329 l 652 329 l 652 380 l 628 380 z m 761 309 b 782 309 794 321 794 342 l 794 380 l 772 380 l 772 342 b 772 332 768 328 761 328 b 755 328 751 332 751 342 l 751 380 l 727 380 l 727 342 b 727 321 740 309 761 309 z m 835 309 b 857 309 867 320 867 332 b 867 358 829 351 829 359 b 829 362 831 364 838 364 b 844 364 851 362 857 359 l 864 376 b 857 380 848 382 838 382 b 817 382 806 371 806 358 b 806 332 844 339 844 330 b 844 328 842 327 835 327 b 828 327 819 329 813 333 l 805 316 b 812 312 824 309 835 309 z m 902 328 l 902 337 l 931 337 l 931 354 l 902 354 l 902 362 l 935 362 l 935 380 l 879 380 l 879 310 l 936 310 l 936 328 z m 1020 309 b 1042 309 1059 324 1059 345 b 1059 366 1042 382 1020 382 b 997 382 981 366 981 345 b 981 324 997 309 1020 309 z m 1020 328 b 1011 328 1004 334 1004 345 b 1004 356 1011 363 1020 363 b 1028 363 1035 356 1035 345 b 1035 334 1028 328 1020 328 z m 1117 380 l 1117 348 l 1091 380 l 1072 380 l 1072 310 l 1094 310 l 1094 342 l 1121 310 l 1140 310 l 1140 380 z m 1155 310 l 1210 310 l 1210 329 l 1179 329 l 1179 380 l 1155 380 z m 1281 380 l 1258 380 l 1244 356 l 1230 380 l 1206 380 l 1232 336 l 1232 310 l 1255 310 l 1255 336 z m 213 136 l 197 159 b 206 163 212 171 212 181 b 212 197 201 206 182 206 l 154 206 l 154 136 l 167 136 l 167 156 l 182 156 b 183 156 184 156 185 157 l 199 136 z m 199 181 b 199 172 193 167 182 167 l 167 167 l 167 195 l 182 195 b 193 195 199 190 199 181 z m 279 162 b 279 179 268 190 252 190 b 237 190 225 179 225 163 b 225 147 236 135 254 135 b 263 135 271 138 275 144 l 269 152 b 265 148 260 146 254 146 b 245 146 239 151 237 159 l 279 159 b 279 160 279 161 279 162 z m 252 180 b 260 180 266 175 267 167 l 237 167 b 238 175 244 180 252 180 z m 314 190 b 305 190 297 188 291 183 l 296 174 b 300 178 306 180 312 180 b 321 180 325 175 325 168 l 325 167 l 312 167 b 296 167 290 160 290 151 b 290 142 297 135 309 135 b 317 135 323 138 326 143 l 326 136 l 338 136 l 338 167 b 338 183 329 190 314 190 z m 312 144 b 306 144 302 147 302 152 b 302 156 304 159 312 159 l 325 159 l 325 153 b 323 147 318 144 312 144 z m 383 135 b 393 135 401 140 405 148 l 396 153 b 392 148 388 146 382 146 b 373 146 366 152 366 163 b 366 173 373 179 382 179 b 388 179 392 177 396 172 l 405 178 b 401 186 393 190 383 190 b 366 190 354 179 354 163 b 354 147 366 135 383 135 z m 449 190 b 442 190 436 188 432 183 l 432 210 l 419 210 l 419 136 l 432 136 l 432 163 b 432 174 438 179 446 179 b 454 179 459 175 459 165 l 459 136 l 471 136 l 471 167 b 471 183 462 190 449 190 z m 589 190 b 581 190 574 187 570 181 b 566 187 560 190 552 190 b 545 190 539 187 535 183 l 535 189 l 523 189 l 523 136 l 535 136 l 535 163 b 535 174 541 179 549 179 b 557 179 561 175 561 165 l 561 136 l 573 136 l 573 163 b 573 174 579 179 587 179 b 594 179 599 175 599 165 l 599 136 l 611 136 l 611 167 b 611 183 602 190 589 190 z m 681 162 b 681 179 670 190 655 190 b 639 190 628 179 628 163 b 628 147 639 135 657 135 b 666 135 673 138 678 144 l 671 152 b 667 148 663 146 657 146 b 648 146 641 151 640 159 l 681 159 b 681 160 681 161 681 162 z m 655 180 b 663 180 669 175 670 167 l 640 167 b 641 175 647 180 655 180 z m 758 190 b 752 190 746 188 741 183 l 741 210 l 729 210 l 729 136 l 741 136 l 741 143 b 745 138 751 135 758 135 b 774 135 785 146 785 163 b 785 179 774 190 758 190 z m 757 146 b 748 146 741 153 741 163 b 741 173 748 179 757 179 b 766 179 773 173 773 163 b 773 153 766 146 757 146 z m 837 189 l 820 150 l 804 189 l 791 189 l 814 136 l 813 134 b 811 129 808 126 804 126 b 801 126 797 128 795 130 l 790 121 b 793 118 799 116 804 116 b 813 116 819 120 824 132 l 849 189 z m 942 162 b 942 179 931 190 916 190 b 900 190 888 179 888 163 b 888 147 900 135 917 135 b 927 135 934 138 939 144 l 932 152 b 928 148 924 146 918 146 b 909 146 902 151 901 159 l 942 159 b 942 160 942 161 942 162 z m 916 180 b 924 180 929 175 930 167 l 901 167 b 902 175 908 180 916 180 z m 1025 190 b 1016 190 1009 187 1005 181 b 1001 187 995 190 987 190 b 980 190 974 187 970 183 l 970 189 l 958 189 l 958 136 l 971 136 l 971 163 b 971 174 976 179 984 179 b 992 179 996 175 996 165 l 996 136 l 1009 136 l 1009 163 b 1009 174 1014 179 1022 179 b 1030 179 1034 175 1034 165 l 1034 136 l 1046 136 l 1046 167 b 1046 183 1038 190 1025 190 z m 1087 190 b 1078 190 1070 188 1064 183 l 1069 174 b 1073 178 1079 180 1085 180 b 1094 180 1098 175 1098 168 l 1098 167 l 1085 167 b 1069 167 1063 160 1063 151 b 1063 142 1070 135 1082 135 b 1090 135 1096 138 1099 143 l 1099 136 l 1111 136 l 1111 167 b 1111 183 1102 190 1087 190 z m 1085 144 b 1079 144 1075 147 1075 152 b 1075 156 1077 159 1086 159 l 1098 159 l 1098 153 b 1096 147 1091 144 1085 144 z m 1137 198 b 1142 198 1145 202 1145 206 b 1145 210 1142 213 1137 213 b 1133 213 1129 210 1129 206 b 1129 201 1133 198 1137 198 z m 1131 136 l 1143 136 l 1143 189 l 1131 189 z m 1164 136 l 1176 136 l 1176 210 l 1164 210 z m 108 19 l 130 45 l 130 58 l 81 58 l 81 41 l 102 41 l 80 16 l 80 3 l 132 3 l 132 19 z m 199 30 b 199 49 186 59 170 59 b 152 59 139 47 139 30 b 139 14 152 2 172 2 b 183 2 190 5 195 11 l 184 23 b 180 20 178 19 173 19 b 167 19 163 21 162 25 l 199 25 b 199 27 199 29 199 30 z m 170 43 b 175 43 178 40 179 36 l 161 36 b 162 40 165 43 170 43 z m 268 30 b 268 49 255 59 239 59 b 221 59 208 47 208 30 b 208 14 221 2 241 2 b 251 2 259 5 264 11 l 253 23 b 249 20 246 19 241 19 b 236 19 232 21 231 25 l 268 25 b 268 27 268 29 268 30 z m 239 43 b 243 43 247 40 247 36 l 230 36 b 231 40 234 43 239 43 z m 317 59 b 311 59 305 56 301 52 l 301 58 l 280 58 l 280 3 l 302 3 l 302 29 b 302 37 306 40 310 40 b 314 40 317 37 317 30 l 317 3 l 339 3 l 339 34 b 339 51 330 59 317 59 z m 412 30 b 412 49 398 59 382 59 b 364 59 351 47 351 30 b 351 14 364 2 384 2 b 395 2 402 5 408 11 l 396 23 b 392 20 390 19 385 19 b 379 19 375 21 374 25 l 411 25 b 411 27 412 29 412 30 z m 382 43 b 387 43 390 40 391 36 l 373 36 b 374 40 377 43 382 43 z m 444 2 b 463 2 472 10 472 20 b 472 42 441 35 441 41 b 441 42 443 43 448 43 b 453 43 458 42 464 39 l 470 54 b 464 57 456 59 448 59 b 430 59 420 50 420 40 b 420 18 451 25 451 20 b 451 18 450 17 445 17 b 438 17 431 19 426 22 l 420 7 b 425 4 435 2 444 2 z m 494 62 b 502 62 508 67 508 74 b 508 80 502 85 494 85 b 486 85 481 80 481 73 b 481 67 486 62 494 62 z m 483 3 l 505 3 l 505 58 l 483 58 z m 544 59 b 535 59 526 56 520 52 l 527 37 b 530 40 536 42 540 42 b 547 42 550 40 551 35 l 542 35 b 525 35 517 29 517 19 b 517 9 524 2 537 2 b 545 2 550 5 552 10 l 552 3 l 573 3 l 573 32 b 573 50 562 59 544 59 z m 544 15 b 540 15 538 17 538 20 b 538 23 540 24 545 24 l 551 24 l 551 21 b 550 17 547 15 544 15 z m 634 74 b 604 74 585 54 585 28 b 585 2 604 -18 634 -18 b 642 -18 652 -16 658 -13 l 654 -1 b 647 -4 640 -5 634 -5 b 614 -5 600 9 600 28 b 600 47 614 62 634 62 b 654 62 668 49 668 31 b 668 19 665 17 663 17 b 661 17 659 18 659 22 l 659 51 l 640 51 l 640 47 b 637 50 633 52 628 52 b 617 52 607 42 607 27 b 607 11 617 2 628 2 b 635 2 640 5 643 11 b 646 5 651 2 658 2 b 671 2 682 12 682 31 b 682 55 662 74 634 74 z m 633 18 b 629 18 626 21 626 27 b 626 33 629 36 633 36 b 637 36 640 33 640 27 b 640 21 637 18 633 18 z m 733 58 l 733 51 b 729 56 724 59 717 59 b 703 59 691 48 691 32 b 691 16 703 6 717 6 b 723 6 728 8 732 12 l 732 11 b 732 3 728 -1 719 -1 b 713 -1 706 1 702 5 l 694 -11 b 701 -15 711 -17 721 -17 b 742 -17 754 -7 754 14 l 754 58 z m 723 23 b 718 23 713 27 713 32 b 713 38 718 41 723 41 b 728 41 732 38 732 32 b 732 27 728 23 723 23 z m 840 59 b 832 59 826 56 822 50 b 818 56 812 59 805 59 b 799 59 794 57 789 52 l 789 58 l 768 58 l 768 3 l 791 3 l 791 30 b 791 37 794 40 798 40 b 801 40 804 37 804 30 l 804 3 l 826 3 l 826 30 b 826 37 829 40 833 40 b 836 40 839 37 839 30 l 839 3 l 861 3 l 861 34 b 861 51 852 59 840 59 z m 899 59 b 891 59 881 56 875 52 l 882 37 b 886 40 891 42 896 42 b 902 42 905 40 906 35 l 897 35 b 880 35 873 29 873 19 b 873 9 879 2 893 2 b 900 2 905 5 908 10 l 908 3 l 928 3 l 928 32 b 928 50 918 59 899 59 z m 899 15 b 896 15 894 17 894 20 b 894 23 896 24 901 24 l 906 24 l 906 21 b 905 17 902 15 899 15 z m 954 62 b 962 62 967 67 967 74 b 967 80 962 85 954 85 b 946 85 940 80 940 73 b 940 67 946 62 954 62 z m 943 3 l 965 3 l 965 58 l 943 58 z m 979 3 l 1001 3 l 1001 77 l 979 77 z m 1026 2 b 1033 2 1039 7 1039 15 b 1039 23 1033 28 1026 28 b 1018 28 1013 23 1013 15 b 1013 7 1018 2 1026 2 z m 1079 2 b 1092 2 1102 8 1106 18 l 1089 27 b 1086 22 1083 19 1079 19 b 1074 19 1070 23 1070 30 b 1070 37 1074 41 1079 41 b 1083 41 1086 39 1089 34 l 1106 42 b 1102 52 1092 59 1079 59 b 1061 59 1047 47 1047 30 b 1047 14 1061 2 1079 2 z m 1143 2 b 1162 2 1175 14 1175 30 b 1175 47 1162 59 1143 59 b 1125 59 1112 47 1112 30 b 1112 14 1125 2 1143 2 z m 1143 19 b 1138 19 1135 23 1135 30 b 1135 37 1138 41 1143 41 b 1148 41 1152 37 1152 30 b 1152 23 1148 19 1143 19 z m 1257 59 b 1250 59 1244 56 1239 50 b 1236 56 1230 59 1223 59 b 1217 59 1211 57 1207 52 l 1207 58 l 1186 58 l 1186 3 l 1208 3 l 1208 30 b 1208 37 1211 40 1215 40 b 1219 40 1221 37 1221 30 l 1221 3 l 1244 3 l 1244 30 b 1244 37 1247 40 1251 40 b 1254 40 1257 37 1257 30 l 1257 3 l 1279 3 l 1279 34 b 1279 51 1270 59 1257 59 z m 180 -78 l 180 -60 l 124 -60 l 124 -130 l 147 -130 l 147 -108 l 176 -108 l 176 -90 l 147 -90 l 147 -78 z m 219 -131 b 237 -131 250 -120 250 -103 b 250 -86 237 -75 219 -75 b 201 -75 188 -86 188 -103 b 188 -120 201 -131 219 -131 z m 219 -114 b 214 -114 210 -110 210 -103 b 210 -96 214 -92 219 -92 b 224 -92 228 -96 228 -103 b 228 -110 224 -114 219 -114 z m 283 -82 l 283 -76 l 262 -76 l 262 -130 l 284 -130 l 284 -106 b 284 -97 289 -94 295 -94 b 297 -94 298 -94 300 -95 l 300 -75 b 293 -75 287 -77 283 -82 z m 384 -76 l 384 -82 b 381 -77 376 -75 368 -75 b 354 -75 342 -85 342 -101 b 342 -117 354 -127 368 -127 b 375 -127 380 -125 383 -121 l 383 -122 b 383 -130 379 -134 370 -134 b 364 -134 357 -132 353 -128 l 346 -144 b 352 -148 362 -151 373 -151 b 393 -151 405 -141 405 -119 l 405 -76 z m 374 -110 b 369 -110 365 -106 365 -101 b 365 -96 369 -92 374 -92 b 379 -92 383 -96 383 -101 b 383 -106 379 -110 374 -110 z m 477 -103 b 477 -84 463 -75 447 -75 b 430 -75 417 -86 417 -103 b 417 -119 430 -131 449 -131 b 460 -131 468 -128 473 -122 l 461 -111 b 458 -113 455 -115 450 -115 b 445 -115 441 -112 439 -108 l 477 -108 b 477 -107 477 -105 477 -103 z m 448 -90 b 452 -90 455 -93 456 -97 l 439 -97 b 440 -93 443 -90 448 -90 z m 523 -113 b 521 -114 520 -114 518 -114 b 515 -114 513 -112 513 -109 l 513 -95 l 524 -95 l 524 -79 l 513 -79 l 513 -63 l 491 -63 l 491 -79 l 483 -79 l 483 -95 l 491 -95 l 491 -109 b 491 -124 500 -131 514 -131 b 520 -131 525 -130 528 -128 z m 629 -78 l 629 -60 l 573 -60 l 573 -130 l 596 -130 l 596 -108 l 625 -108 l 625 -90 l 596 -90 l 596 -78 z m 676 -76 l 676 -101 b 676 -109 672 -112 669 -112 b 664 -112 662 -110 662 -102 l 662 -76 l 639 -76 l 639 -106 b 639 -124 649 -131 662 -131 b 668 -131 673 -129 677 -125 l 677 -130 l 698 -130 l 698 -76 z m 713 -130 l 735 -130 l 735 -56 l 713 -56 z m 749 -130 l 772 -130 l 772 -56 l 749 -56 z m 872 -60 l 855 -101 l 838 -60 l 813 -60 l 842 -130 l 865 -130 l 894 -60 z m 954 -103 b 954 -84 940 -75 924 -75 b 907 -75 894 -86 894 -103 b 894 -119 906 -131 926 -131 b 937 -131 945 -128 950 -122 l 938 -111 b 935 -113 932 -115 927 -115 b 921 -115 918 -112 916 -108 l 954 -108 b 954 -107 954 -105 954 -103 z m 924 -90 b 929 -90 932 -93 933 -97 l 916 -97 b 917 -93 920 -90 924 -90 z m 986 -82 l 986 -76 l 965 -76 l 965 -130 l 987 -130 l 987 -106 b 987 -97 992 -94 999 -94 b 1001 -94 1002 -94 1004 -95 l 1004 -75 b 996 -75 990 -77 986 -82 z m 1036 -131 b 1054 -131 1064 -123 1064 -113 b 1064 -91 1033 -98 1033 -93 b 1033 -91 1034 -90 1040 -90 b 1044 -90 1050 -91 1055 -94 l 1062 -79 b 1056 -76 1047 -75 1040 -75 b 1021 -75 1012 -83 1012 -93 b 1012 -115 1043 -108 1043 -113 b 1043 -115 1042 -116 1036 -116 b 1030 -116 1022 -114 1017 -111 l 1011 -126 b 1017 -129 1026 -131 1036 -131 z m 1086 -71 b 1094 -71 1099 -66 1099 -59 b 1099 -53 1094 -48 1086 -48 b 1078 -48 1072 -53 1072 -60 b 1072 -66 1078 -71 1086 -71 z m 1075 -130 l 1097 -130 l 1097 -76 l 1075 -76 z m 1140 -131 b 1158 -131 1171 -120 1171 -103 b 1171 -86 1158 -75 1140 -75 b 1122 -75 1108 -86 1108 -103 b 1108 -120 1122 -131 1140 -131 z m 1140 -114 b 1135 -114 1131 -110 1131 -103 b 1131 -96 1135 -92 1140 -92 b 1145 -92 1149 -96 1149 -103 b 1149 -110 1145 -114 1140 -114 z m 1220 -75 b 1214 -75 1208 -77 1204 -81 l 1204 -76 l 1183 -76 l 1183 -130 l 1205 -130 l 1205 -105 b 1205 -97 1209 -94 1213 -94 b 1217 -94 1220 -96 1220 -103 l 1220 -130 l 1242 -130 l 1242 -99 b 1242 -82 1232 -75 1220 -75 z m 77 256 l 1282 256 l 1282 249 l 77 249 z"},"F":{"x_min":0,"x_max":464,"ha":464,"o":"m 83 -8 b 92 -8 97 -7 97 -5 b 98 -3 98 -1 98 -1 b 98 2 97 6 95 11 b 90 22 88 32 88 40 b 88 80 112 147 159 242 b 196 244 228 247 256 250 b 302 255 332 258 347 258 b 367 258 379 257 389 239 b 391 235 393 233 395 233 l 397 234 b 407 238 411 250 411 269 b 411 274 411 279 410 284 b 407 293 399 303 385 312 b 368 322 342 327 308 327 b 275 327 232 322 199 317 l 232 375 b 299 491 333 566 333 600 b 333 604 333 609 332 613 l 369 618 b 442 628 512 633 579 633 b 600 633 614 631 622 628 b 629 625 636 620 643 612 b 650 604 655 601 658 601 b 661 601 666 604 672 611 b 684 624 688 635 688 652 b 688 663 685 672 680 681 b 662 708 597 714 567 714 b 525 714 482 709 440 703 b 404 697 344 691 261 684 b 238 682 216 681 197 681 b 162 681 113 683 80 694 b 74 697 69 698 64 698 b 54 698 45 674 45 665 b 45 625 95 605 195 605 b 208 605 229 606 257 607 b 223 536 185 463 142 389 b 124 357 108 329 94 303 b 79 301 64 300 50 300 b 33 300 22 301 16 304 b 14 305 12 305 11 305 b 8 305 5 303 3 300 b 1 295 0 288 0 278 b 0 255 19 242 59 239 l 62 239 b 31 169 15 115 15 77 b 15 50 25 28 44 11 b 58 -1 71 -8 83 -8 z"},"`":{"x_min":0,"x_max":321,"ha":321,"o":"m 178 564 b 190 564 197 569 197 578 b 197 580 196 583 195 585 b 190 597 182 621 173 656 b 167 682 160 697 152 702 b 145 707 125 710 116 710 b 104 710 99 707 99 694 b 99 685 105 662 119 625 b 130 592 142 574 154 569 b 161 566 169 564 178 564 z"},"k":{"x_min":0,"x_max":433,"ha":433,"o":"m 28 -4 b 37 -4 44 6 48 26 l 81 172 b 79 83 154 9 216 5 b 353 -2 393 115 355 98 b 245 47 104 126 127 220 b 154 217 204 288 345 318 b 381 343 389 459 281 400 b 195 353 105 261 105 261 b 182 419 240 549 254 596 b 261 619 264 638 264 653 b 264 679 255 698 237 709 b 229 715 222 719 217 719 b 216 719 214 718 211 717 b 208 716 205 710 203 699 b 199 685 188 653 169 605 b 150 556 128 506 104 454 b 80 402 54 345 28 282 b -12 188 -31 120 -31 74 b -31 34 -17 9 13 -1 b 19 -3 23 -4 28 -4 z"},"u":{"x_min":0,"x_max":497,"ha":497,"o":"m 382 19 b 338 62 420 236 441 284 b 453 307 459 321 459 328 b 460 334 460 337 460 338 b 460 349 456 359 446 370 b 437 380 429 385 421 385 b 413 385 400 376 383 357 b 375 349 365 336 351 320 b 276 234 198 148 105 82 b 83 66 61 56 40 52 b 50 81 68 119 96 167 b 125 217 174 307 174 365 b 174 381 170 394 163 403 b 146 422 131 432 120 432 b 115 432 111 429 110 423 b 109 420 109 418 109 415 b 108 409 105 397 99 381 b 91 365 54 296 -13 173 b -30 144 -39 125 -39 92 b -39 72 -31 53 -17 37 b 0 17 16 6 31 2 b 45 -1 55 -2 61 -2 b 79 -2 98 3 118 15 b 184 56 261 125 311 185 b 300 152 295 130 294 118 b 278 26 329 -25 382 19 z"},"]":{"x_min":0,"x_max":239,"ha":239,"o":"m 147 721 l 72 721 b 61 721 53 719 48 715 b 43 711 41 708 41 705 b 42 696 55 691 80 691 b 91 691 105 692 123 693 b 120 626 115 548 108 458 b 104 404 102 354 99 311 b 89 172 80 89 72 61 b 67 44 61 40 44 40 l 31 39 b 14 36 6 30 6 22 b 6 17 11 11 22 5 b 30 1 40 -1 51 -1 l 82 -1 b 109 -1 127 8 136 28 b 154 66 164 176 167 219 l 186 555 b 189 629 191 668 191 674 b 191 708 182 721 147 721 z"},"U":{"x_min":0,"x_max":812,"ha":812,"o":"m 488 556 b 488 608 468 653 426 688 b 385 725 333 741 270 738 l 267 738 b 221 738 180 726 142 702 b 104 677 72 646 47 608 b 35 588 25 568 20 549 b 14 529 11 507 11 483 b 11 445 23 414 48 388 b 66 369 83 360 99 360 b 106 360 111 361 112 365 l 112 368 b 112 371 111 373 109 375 b 107 378 104 380 100 382 b 89 389 82 398 77 408 b 73 418 71 430 71 442 b 71 488 84 533 111 576 b 132 606 160 630 194 649 b 229 667 264 677 299 677 b 328 677 351 670 366 656 b 381 643 392 626 396 608 b 400 596 400 578 398 555 b 395 532 386 501 369 462 b 357 435 333 385 299 312 b 249 204 224 129 224 86 b 225 44 242 19 276 8 b 277 7 278 7 280 7 b 317 -2 366 21 425 77 b 483 133 578 249 709 424 b 616 254 575 133 587 60 b 598 21 617 -1 645 -6 b 672 -12 681 -1 671 25 b 679 102 708 198 758 314 b 809 430 837 515 844 571 b 852 627 842 658 815 663 b 788 668 770 662 761 644 b 751 625 743 602 735 573 b 547 300 407 141 315 97 b 324 130 344 179 377 243 b 392 271 409 304 426 340 b 443 375 458 413 470 451 b 482 488 488 523 488 556 z"},"o":{"x_min":0,"x_max":344,"ha":344,"o":"m 21 352 b 4 328 -5 308 -7 291 b -7 288 -7 285 -7 282 l -7 278 b -5 258 3 241 16 226 b -28 171 -50 127 -50 92 l -50 86 b -49 12 31 8 47 9 b 125 10 189 59 235 120 b 302 201 336 364 221 411 b 198 420 178 425 160 424 b 105 422 54 399 21 352 z m 175 170 b 114 95 28 32 11 46 b 0 55 26 105 69 167 b 85 190 95 208 98 223 b 91 239 75 249 57 249 b 54 249 50 248 47 247 l 47 250 b 47 252 47 254 47 257 b 49 289 70 312 92 333 b 114 351 133 361 149 364 b 235 378 229 234 175 170 z"},"N":{"x_min":0,"x_max":798,"ha":798,"o":"m 629 0 b 635 0 638 6 638 17 b 638 22 637 28 636 36 b 636 41 635 46 635 53 b 635 104 648 153 665 202 b 675 230 702 298 745 404 b 774 473 794 522 804 554 b 812 575 815 592 815 605 b 815 626 808 639 792 655 b 784 666 773 671 761 671 b 758 671 752 670 742 668 b 654 665 401 352 363 290 l 385 333 b 413 390 441 484 441 547 b 441 558 440 575 437 600 b 434 624 419 650 391 677 b 358 708 318 724 271 724 b 232 724 191 711 148 687 b 59 632 6 528 6 430 l 6 422 b 10 375 22 341 45 318 b 67 297 86 287 104 287 l 108 287 b 132 289 144 294 144 303 b 144 307 140 311 132 314 b 94 327 81 388 81 422 b 81 438 84 460 90 488 b 96 515 112 547 140 583 b 171 619 204 644 240 658 b 263 667 283 672 301 672 b 342 672 362 646 362 595 b 362 539 336 458 283 354 b 263 313 244 271 225 227 b 202 170 191 128 191 100 l 191 86 b 192 66 194 53 210 37 b 223 22 237 14 251 14 b 262 14 270 19 276 28 l 308 106 b 320 126 593 490 728 582 l 712 549 b 520 186 538 130 538 103 b 538 66 552 24 613 6 b 621 3 625 0 629 0 z"},"+":{"x_min":0,"x_max":488,"ha":488,"o":"m 330 232 b 334 247 338 259 342 268 b 346 280 348 289 348 294 b 348 301 345 306 339 311 b 333 315 327 319 323 322 l 316 326 b 312 329 308 330 304 330 b 294 330 287 321 282 304 l 275 280 b 271 267 267 252 263 236 b 230 239 208 241 195 245 l 188 245 b 176 245 170 237 168 222 l 168 218 b 168 197 194 191 210 188 b 222 187 236 185 251 184 b 247 163 245 144 245 126 b 245 105 250 90 259 81 b 269 74 278 70 287 70 b 295 71 299 75 300 83 b 302 108 307 141 316 181 b 328 180 340 180 354 180 b 372 180 384 181 393 182 b 413 186 427 192 427 215 b 427 221 425 225 421 227 b 417 229 410 230 399 230 l 382 230 b 367 230 349 231 330 232 z"},"G":{"x_min":0,"x_max":648,"ha":648,"o":"m 481 266 b 474 233 458 205 435 181 b 411 157 381 133 343 111 b 306 88 263 77 214 77 l 200 77 b 148 83 116 99 103 125 b 89 155 82 186 82 218 b 82 249 85 278 93 305 b 100 331 107 353 115 369 b 122 383 125 391 126 393 l 126 394 b 154 442 194 492 246 542 b 319 607 391 640 464 640 b 504 629 531 618 543 604 b 516 578 495 554 481 534 b 468 513 459 495 456 480 b 451 460 452 444 458 432 b 463 419 471 410 480 403 b 490 397 498 392 504 389 b 504 389 505 389 505 389 b 509 389 511 391 512 394 l 513 402 b 514 409 515 417 519 427 b 521 438 536 458 562 485 b 577 501 592 520 607 539 b 622 558 634 577 644 596 b 653 616 656 634 653 650 b 649 665 643 677 633 686 b 624 695 618 699 613 699 b 608 699 605 694 603 683 b 600 668 590 649 572 628 b 568 644 559 659 545 673 b 516 705 475 720 422 720 b 372 720 324 709 277 688 b 230 666 188 636 149 599 b 110 562 78 520 53 473 b 18 409 1 350 1 295 b 1 197 33 120 96 63 b 145 20 195 -2 249 -2 b 301 -2 353 16 402 53 b 405 55 410 59 418 64 b 426 69 432 72 434 75 b 418 16 441 -10 503 -3 b 508 31 520 74 538 125 b 556 176 565 213 565 237 b 565 250 563 265 561 283 b 558 301 551 315 540 324 b 530 330 518 333 502 333 b 487 333 471 331 454 328 b 436 324 420 320 405 315 b 374 306 342 301 311 301 l 307 301 b 298 301 292 300 290 299 b 288 297 286 294 286 289 b 286 276 292 265 302 256 b 313 248 325 243 339 242 b 350 242 355 242 356 242 b 375 242 394 244 413 249 b 432 254 455 259 481 266 z"}}}
